<svg id="Layer_1" data-name="Layer 1" xmlns="http://www.w3.org/2000/svg" viewBox="0 0 1584.92 233.31"><defs><style>.cls-1{fill:#cfb56a;}.cls-2{fill:#6248d2;}</style></defs><path class="cls-1" d="M395.78,147.31h12.77v25.34H395.78ZM408.55,122h13.18v25.35H408.55Zm12.67-38H434.4v38H421.22Zm12.67-12.67h12.78V84H433.89ZM446.06,84h13.17v38H446.06Zm12.57,38H471.8v25.35H458.63Zm13.17,25.35h12.77v25.34H471.8Z"/><path class="cls-1" d="M501.3,71.28h12.77V172.65H501.3Zm12.77,0H552V84H514.07Zm0,50.68H552v12.67H514.07Zm37.41-38h13.17v38H551.48Z"/><path class="cls-1" d="M581.38,71.28h63.35V84H581.38ZM606.72,84h12.77v88.7H606.72Z"/><path class="cls-1" d="M661.46,96.62h13.18v50.69H661.46ZM674.13,84h13.18V96.62H674.13Zm0,63.36h13.18V160H674.13Zm12.67-76h38V84h-38Zm0,88.7h38v12.67h-38Zm37.51-76h13.18V96.62H724.31Zm0,63.36h13.18V160H724.31ZM737,96.62h13.18v50.69H737Z"/><path class="cls-1" d="M766.88,84h12.78v25.34H766.88Zm0,63.36h12.78V160H766.88Zm12.78-76h50.48V84H779.66Zm0,38H804.8V122H779.66Zm0,50.69h50.48v12.67H779.66Zm25.14-38h25.34v12.67H804.8Zm25.34-38h12.77V96.62H830.14Zm0,50.68h12.77V160H830.14Z"/><path class="cls-1" d="M888.93,71.28H901.6V96.62H888.93ZM901.6,96.62h12.67v50.69H901.6Zm12.67,50.69h12.67v25.34H914.27ZM926.94,122h12.67v25.35H926.94Zm12.67-38h12.68v38H939.61Zm12.68-12.67H965V84H952.29ZM965,84h12.67v38H965Zm12.67,38H990.3v25.35H977.63Zm12.67,25.35H1003v25.34H990.3ZM1003,96.62h12.67v50.69H1003Zm12.67-25.34h12.67V96.62h-12.67Z"/><path class="cls-1" d="M1032.36,147.31h12.77v25.34h-12.77ZM1045.13,122h13.19v25.35h-13.19Zm12.68-38H1071v38h-13.18Zm12.67-12.67h12.77V84h-12.77ZM1082.64,84h13.18v38h-13.18Zm12.57,38h13.18v25.35h-13.18Zm13.18,25.35h12.77v25.34h-12.77Z"/><path class="cls-1" d="M1137.89,71.28h12.78V172.65h-12.78Zm12.78,0h50.48V84h-50.48Zm0,38h50.48V122h-50.48ZM1175.6,122h12.78v12.67H1175.6Zm12.78,12.67h12.77V160h-12.77ZM1200.74,84h13.18v25.34h-13.18Zm.41,76h12.77v12.67h-12.77Z"/><path class="cls-1" d="M1230.64,96.62h12.78v50.69h-12.78ZM1243.42,84h12.77V96.62h-12.77Zm0,63.36h12.77V160h-12.77Zm12.77-76h37.71V84h-37.71Zm0,88.7h37.71v12.67h-37.71Zm37.71-76h12.77V96.62H1293.9Zm0,63.36h12.77V160H1293.9Z"/><path class="cls-1" d="M1323.29,147.31h12.77v25.34h-12.77ZM1336.06,122h13.18v25.35h-13.18Zm12.67-38h13.18v38h-13.18Zm12.67-12.67h12.78V84H1361.4ZM1373.57,84h13.18v38h-13.18Zm12.57,38h13.18v25.35h-13.18Zm13.18,25.35h12.77v25.34h-12.77Z"/><path class="cls-1" d="M1428.81,71.28h12.78V172.65h-12.78Zm12.78,0h37.91V84h-37.91Zm0,88.7h37.91v12.67h-37.91ZM1479,84h13.18V96.62H1479Zm0,63.36h13.18V160H1479Zm12.67-50.69h13.18v50.69h-13.18Z"/><path class="cls-1" d="M1521.56,71.28h12.78V172.65h-12.78Zm12.78,0h50.58V84h-50.58Zm0,38h50.58V122h-50.58Zm0,50.69h50.58v12.67h-50.58Z"/><polygon class="cls-2" points="106.05 95.44 106.05 84.84 106.05 74.23 95.44 74.23 95.44 63.63 95.44 53.02 84.84 53.02 84.84 42.42 84.84 31.82 74.23 31.82 74.23 21.21 74.23 10.61 63.63 10.61 63.63 0 53.02 0 42.42 0 31.82 0 21.21 0 10.61 0 0 0 0 10.61 0 21.21 10.61 21.21 10.61 31.82 10.61 42.42 21.21 42.42 21.21 53.02 21.21 63.63 31.82 63.63 31.82 74.23 31.82 84.84 42.42 84.84 42.42 95.44 42.42 106.05 53.02 106.05 53.02 116.65 53.02 127.26 63.63 127.26 63.63 137.86 63.63 148.47 74.23 148.47 74.23 159.07 74.23 169.68 84.84 169.68 84.84 159.07 84.84 148.47 95.44 148.47 95.44 137.86 95.44 127.26 106.05 127.26 106.05 116.65 106.05 106.05 116.65 106.05 116.65 95.44 106.05 95.44"/><polygon class="cls-2" points="339.36 0 328.75 0 318.15 0 307.54 0 296.94 0 286.33 0 286.33 10.61 275.73 10.61 275.73 21.21 275.73 31.82 265.12 31.82 265.12 42.42 265.12 53.02 254.52 53.02 254.52 63.63 254.52 74.23 243.91 74.23 243.91 84.84 243.91 95.44 233.31 95.44 233.31 106.05 243.91 106.05 243.91 116.65 243.91 127.26 254.52 127.26 254.52 137.86 254.52 148.47 265.12 148.47 265.12 159.07 265.12 169.68 275.73 169.68 275.73 159.07 275.73 148.47 286.33 148.47 286.33 137.86 286.33 127.26 296.94 127.26 296.94 116.65 296.94 106.05 307.54 106.05 307.54 95.44 307.54 84.84 318.15 84.84 318.15 74.23 318.15 63.63 328.75 63.63 328.75 53.02 328.75 42.42 339.36 42.42 339.36 31.82 339.36 21.21 349.96 21.21 349.96 10.61 349.96 0 339.36 0"/><polygon class="cls-1" points="275.73 212.1 275.73 201.5 275.73 190.9 265.12 190.9 265.12 180.29 265.12 169.69 254.52 169.69 254.52 159.08 254.52 148.48 243.91 148.48 243.91 137.87 243.91 127.27 233.31 127.27 233.31 116.66 233.31 106.06 222.7 106.06 222.7 95.45 222.7 84.85 212.1 84.85 212.1 74.24 212.1 63.64 212.1 53.03 201.49 53.03 201.49 42.43 201.49 31.82 190.89 31.82 190.89 21.22 190.89 10.61 180.28 10.61 180.28 0.01 169.68 0.01 169.68 10.61 159.07 10.61 159.07 21.22 159.07 31.82 148.47 31.82 148.47 42.43 148.47 53.03 137.86 53.03 137.86 63.64 137.86 74.24 137.86 84.85 127.26 84.85 127.26 95.45 127.26 106.06 116.65 106.06 116.65 116.66 116.65 127.27 106.05 127.27 106.05 137.87 106.05 148.48 95.44 148.48 95.44 159.08 95.44 169.69 84.84 169.69 84.84 180.29 84.84 190.9 74.23 190.9 74.23 201.5 74.23 212.1 63.63 212.1 63.63 222.71 63.63 233.31 74.23 233.31 84.84 233.31 95.44 233.31 106.05 233.31 116.65 233.31 127.26 233.31 127.26 222.71 127.26 212.1 137.86 212.1 137.86 201.5 137.86 190.9 148.47 190.9 148.47 180.29 148.47 169.69 159.07 169.69 159.07 159.08 159.07 148.48 159.07 137.87 169.68 137.87 169.68 127.27 169.68 116.66 180.28 116.66 180.28 127.27 180.28 137.87 190.89 137.87 190.89 148.48 190.89 159.08 190.89 169.69 201.49 169.69 201.49 180.29 201.49 190.9 212.1 190.9 212.1 201.5 212.1 212.1 222.7 212.1 222.7 222.71 222.7 233.31 233.31 233.31 243.91 233.31 254.52 233.31 265.12 233.31 275.73 233.31 286.33 233.31 286.33 222.71 286.33 212.1 275.73 212.1"/></svg>