<svg xmlns="http://www.w3.org/2000/svg" viewBox="0 0 978.46 92.32"><defs><style>.cls-1{fill:#d5f8ff;}.cls-2{fill:#bce6ed;}.cls-3{fill:#edfcff;}</style></defs><g id="Layer_12" data-name="Layer 12"><path class="cls-1" d="M330,74.24A5.21,5.21,0,0,1,327,76.42a6.18,6.18,0,0,1-4.12-.23,4.86,4.86,0,0,1-3.67,2.4A5.19,5.19,0,0,1,314.94,77a3.07,3.07,0,0,1-4.07-.47,5.4,5.4,0,0,1-6.52-.12,10.88,10.88,0,0,1-8,2.06,11.41,11.41,0,0,1-7.27-4.27,11,11,0,0,1-12.59-.5c-1.43-1.14-2.61-2.83-2.43-4.64s1.69-3.27,3.31-4.15a5.85,5.85,0,0,1,2.72-.81c.95,0,2.38.13,2.9.93a1.79,1.79,0,0,1,1.39-1.36,2,2,0,0,1,2,.55,1.74,1.74,0,0,1,.54-2,2.36,2.36,0,0,1,2.43.07,4.23,4.23,0,0,1,2.7-4.68c1.86-.63,4.48,0,5.34,1.73a8.43,8.43,0,1,1,15.93,4.17,12.13,12.13,0,0,1,5.06-3.1,7,7,0,0,1,5.9,1A4.81,4.81,0,0,1,326,66.93a4.06,4.06,0,0,1,3.52.35A3,3,0,0,1,330.74,70a6.25,6.25,0,0,0,4.9.35,20.11,20.11,0,0,1,4.78-1.22c2.87-.09,5.51,1.77,8.39,1.8a24.82,24.82,0,0,0,4.79-.85,5.63,5.63,0,0,1,4.65.76c-2.93-.13-5.72,2.15-8.62,2.66-4,.7-8.11-1.77-12-.7-1.3.35-2.47,1.08-3.73,1.54A4.39,4.39,0,0,1,330,74.24Z"/><path class="cls-2" d="M326.5,75.46a7,7,0,0,1-3.9-2.09,5.11,5.11,0,0,1-3.22,2.31,3.37,3.37,0,0,1-3.5-1.71,2.64,2.64,0,0,1-2.09,1.11,2.81,2.81,0,0,1-2.24-1,3.85,3.85,0,0,1-4,1,3.56,3.56,0,0,1-2.28-2.51h.27a7.94,7.94,0,0,0,2.79-.81A6.22,6.22,0,0,0,310.58,70,17.2,17.2,0,0,1,308,71a13.76,13.76,0,0,1-5.21.52,17.5,17.5,0,0,1-2.69-.48A5.81,5.81,0,0,0,302,72.12h0c-5.49,5.82-8.8.75-8.8.75l.1,0a2.82,2.82,0,0,0,1.47-.1,2.13,2.13,0,0,0,1.14-.86c-.49,0-.89,0-1.29,0a7.84,7.84,0,0,1-1.11-.13,6.42,6.42,0,0,1-1.08-.29,11.51,11.51,0,0,1-1.2-.48,2.15,2.15,0,0,0,.75,1.22,2,2,0,0,0,.41.29,5.26,5.26,0,0,1-3.74.27,7.05,7.05,0,0,0,1.9-1.28,6.09,6.09,0,0,0,1.64-2.5A13.58,13.58,0,0,1,290,70.85a10.44,10.44,0,0,1-2.44,1.2,10.26,10.26,0,0,1-2.66.5,13.75,13.75,0,0,1-2.84-.15,6.08,6.08,0,0,0,2.81,1,7.8,7.8,0,0,0,1.45,0,10.18,10.18,0,0,1-10.86-.76,8.83,8.83,0,0,0,1,1,11,11,0,0,0,12.59.5,11.41,11.41,0,0,0,7.27,4.27,10.88,10.88,0,0,0,8-2.06,5.4,5.4,0,0,0,6.52.12,3.07,3.07,0,0,0,4.07.47,5.19,5.19,0,0,0,4.22,1.63,4.86,4.86,0,0,0,3.67-2.4,6.18,6.18,0,0,0,4.12.23,5.13,5.13,0,0,0,2.18-1.16A7.08,7.08,0,0,1,326.5,75.46Z"/><path class="cls-3" d="M310.68,52.73a8.41,8.41,0,0,0-13.24,6.58c-.86-1.76-3.48-2.36-5.34-1.73l-.11.05a5.39,5.39,0,0,1,2.58.64,5.54,5.54,0,0,1,2.84,4.41A15.18,15.18,0,0,1,300.32,56a9.69,9.69,0,0,1,6-3.79A7.64,7.64,0,0,1,310.68,52.73Z"/><path class="cls-3" d="M325.53,62.76a5,5,0,0,0-1.2-1.35,7,7,0,0,0-5.9-1,10.59,10.59,0,0,0-4.36,2.5c-.14.18-.28.37-.42.54A13.33,13.33,0,0,1,325.53,62.76Z"/><path class="cls-3" d="M284.43,64.57a2,2,0,0,1,2.31.77A3.66,3.66,0,0,1,287,63a3,3,0,0,1,1-1.12,1.92,1.92,0,0,0-1,.3,1.74,1.74,0,0,0-.54,2,2,2,0,0,0-2-.55A1.79,1.79,0,0,0,283,65c-.52-.8-1.95-.94-2.9-.93a4.85,4.85,0,0,0-1.73.35,6.24,6.24,0,0,1,5.11,2.26A1.6,1.6,0,0,1,284.43,64.57Z"/><path class="cls-3" d="M297.09,68.06a3.67,3.67,0,0,1,1.17-1.88,4.15,4.15,0,0,1,2.05-1,4.24,4.24,0,0,1,2.26.25,3.62,3.62,0,0,1,1.72,1.38,6,6,0,0,0-1.9-.83,4.82,4.82,0,0,0-3.79.65A6.31,6.31,0,0,0,297.09,68.06Z"/><path class="cls-3" d="M302.16,62.37A3.52,3.52,0,0,1,303.58,61a4.07,4.07,0,0,1,2-.51,4,4,0,0,1,2,.51A3.44,3.44,0,0,1,309,62.36a7.1,7.1,0,0,0-1.66-.86,5.73,5.73,0,0,0-1.74-.3,5.84,5.84,0,0,0-1.74.3A6.72,6.72,0,0,0,302.16,62.37Z"/><path class="cls-3" d="M308.43,66.35a1.28,1.28,0,0,1,.58-.82,1.73,1.73,0,0,1,1-.27,1.62,1.62,0,0,1,1,.4,1.27,1.27,0,0,1,.47.9,3.4,3.4,0,0,0-.78-.4A2.34,2.34,0,0,0,310,66a2.36,2.36,0,0,0-.74.06A3.12,3.12,0,0,0,308.43,66.35Z"/><path class="cls-3" d="M315,70a3,3,0,0,1,1.35-1.27,3.63,3.63,0,0,1,1.9-.35,3.52,3.52,0,0,1,1.79.71,2.93,2.93,0,0,1,1.09,1.51,5.56,5.56,0,0,0-1.4-1,4.33,4.33,0,0,0-1.55-.46,4.49,4.49,0,0,0-1.62.15A5.51,5.51,0,0,0,315,70Z"/><path class="cls-3" d="M317.12,66.22a1.46,1.46,0,0,1,.85-.56,2.09,2.09,0,0,1,1.95.5,1.48,1.48,0,0,1,.46.9,5.79,5.79,0,0,0-.8-.43,5.24,5.24,0,0,0-.76-.26,6.5,6.5,0,0,0-.79-.14A5.43,5.43,0,0,0,317.12,66.22Z"/><path class="cls-3" d="M287.28,68.44a4.11,4.11,0,0,1,1-2.08,4.74,4.74,0,0,1,2-1.32,4.59,4.59,0,0,1,2.38-.14A4.08,4.08,0,0,1,294.72,66a6.85,6.85,0,0,0-2.13-.49,5.73,5.73,0,0,0-2.07.27,5.49,5.49,0,0,0-1.82,1A6.79,6.79,0,0,0,287.28,68.44Z"/><path class="cls-3" d="M279.36,70.2a2,2,0,0,1,.67-1.12,2.43,2.43,0,0,1,1.23-.58,2.48,2.48,0,0,1,1.35.15,2,2,0,0,1,1,.85,4.85,4.85,0,0,0-1.15-.29,3.54,3.54,0,0,0-1.08,0,3.45,3.45,0,0,0-1,.32A5.15,5.15,0,0,0,279.36,70.2Z"/><path class="cls-1" d="M346.25,69.29A6.32,6.32,0,0,0,353.68,68,25.82,25.82,0,0,1,346.25,69.29Z"/><path class="cls-1" d="M342.28,73.79a6.09,6.09,0,0,0-5.52.47C338.51,74.06,340.52,74,342.28,73.79Z"/><path class="cls-2" d="M304.31,77.92a14.34,14.34,0,0,1-7.23,2.14,6.37,6.37,0,0,0,4.34.35A5,5,0,0,0,304.31,77.92Z"/><path class="cls-2" d="M319.92,79.18a10.68,10.68,0,0,1-5.59-.68A4.8,4.8,0,0,0,317.2,80,3.74,3.74,0,0,0,319.92,79.18Z"/><path class="cls-2" d="M288.62,75.83a10.73,10.73,0,0,1-5.45,1.43,4.82,4.82,0,0,0,3.23.37A3.67,3.67,0,0,0,288.62,75.83Z"/><path class="cls-1" d="M603.07,32.2a6.59,6.59,0,0,0,3.26.18c1.06-.3,2.33-1.41,2.09-2.49a4.75,4.75,0,0,0,5.78-.73,26,26,0,0,0,4.66.18c.92-.05,2-.3,2.3-1.18a1.54,1.54,0,0,0-.44-1.44,3.19,3.19,0,0,0-1.38-.74,7.23,7.23,0,0,0-5.12-.05A3.15,3.15,0,0,0,612.51,24a3.55,3.55,0,0,0-2.77,0,3.7,3.7,0,0,0-2.47-1.59,4.43,4.43,0,0,0-3.15.68,6.64,6.64,0,0,0-3.23-6.34,6.56,6.56,0,0,0-7,.45,2.56,2.56,0,0,0-3.22-1.31,2.3,2.3,0,0,0-1-1.73,4.18,4.18,0,0,0-2.73,0,3.31,3.31,0,0,0-2.34-2.63,3.58,3.58,0,0,0-3.5,1.13,6,6,0,0,0-1.47-6.09,6,6,0,0,0-6.12-1.35,5,5,0,0,0-2.23,1.49,10.72,10.72,0,0,0-17.76-3.33,10.93,10.93,0,0,0-2.59,10,2.76,2.76,0,0,0-3.08-.42A3.07,3.07,0,0,0,546,15.66a2.17,2.17,0,0,0-2.15-.54,1.6,1.6,0,0,0-1.09,1.55,5.36,5.36,0,0,0-4.49-2.84,5,5,0,0,0-4.74,7.55c-.48-.63-1.44-.53-2.21-.38a2.19,2.19,0,0,0-1.68,1.51,4.56,4.56,0,0,0-4.68-1.12A4,4,0,0,0,522.27,25c-.52-.86-1.88-.62-2.87-.44a2.58,2.58,0,0,0-2,2c-1.05-.39-2,.68-2.09,1.8a1.89,1.89,0,0,0,2.22,1.87,7.58,7.58,0,0,0,4.69,2,7.05,7.05,0,0,0,4.67-1.56,5.42,5.42,0,0,0,3.59,1.75,6.05,6.05,0,0,0,4-1.34,3.77,3.77,0,0,0,4.66.62,11.53,11.53,0,0,0,7.06,2.2A10.33,10.33,0,0,0,552.53,31a4.64,4.64,0,0,0,6.33,1.42,5,5,0,0,0,3.9,1.71,5.79,5.79,0,0,0,4.17-2c2.94,1.76,7.19,1.78,9.82-.42A3.41,3.41,0,0,0,579.19,33a2.77,2.77,0,0,0,2.29-1c1.84,1.23,4.81,1.38,6.29-.27a9.66,9.66,0,0,0,7.44,4.21A10,10,0,0,0,603.07,32.2Z"/><path class="cls-2" d="M601.14,28.92a9.61,9.61,0,0,1-6.38,2.75,9.27,9.27,0,0,1-6.38-2.46,5.87,5.87,0,0,1-6.49-1.16,2.41,2.41,0,0,1-2.25,1.25,2.89,2.89,0,0,1-2.24-1.76A6.73,6.73,0,0,1,573,30.75a5.37,5.37,0,0,1-5.17-2.2,7.3,7.3,0,0,1-2.32,2.37,4.45,4.45,0,0,1-3.2.6,3.54,3.54,0,0,1-2.41-2.33,4.81,4.81,0,0,1-4.37-.14,4.71,4.71,0,0,1-2.64-3.43A16.54,16.54,0,0,1,549,30a8.73,8.73,0,0,1-5.44,1.89,6.16,6.16,0,0,1-5.07-2.57,2.81,2.81,0,0,1-2.18.2,3.93,3.93,0,0,1-2-1.6,4.4,4.4,0,0,1-3.48,1.88,5.23,5.23,0,0,1-3.72-2.24,8.31,8.31,0,0,1-7.49,4,6.86,6.86,0,0,0,7.25-.93,5.42,5.42,0,0,0,3.59,1.75,6.05,6.05,0,0,0,4-1.34,3.77,3.77,0,0,0,4.66.62,11.53,11.53,0,0,0,7.06,2.2A10.33,10.33,0,0,0,552.53,31a4.64,4.64,0,0,0,6.33,1.42,5,5,0,0,0,3.9,1.71,5.79,5.79,0,0,0,4.17-2c2.94,1.76,7.19,1.78,9.82-.42A3.41,3.41,0,0,0,579.19,33a2.77,2.77,0,0,0,2.29-1c1.84,1.23,4.81,1.38,6.29-.27a9.66,9.66,0,0,0,7.44,4.21,10,10,0,0,0,7.86-3.71,6.59,6.59,0,0,0,3.26.18,3.54,3.54,0,0,0,1.43-.85A9.47,9.47,0,0,1,601.14,28.92Z"/><path class="cls-2" d="M561.53,20.93a11.39,11.39,0,0,1-18.62,4.27C549.3,27.05,556.77,25.58,561.53,20.93Z"/><path class="cls-2" d="M532,25a5.23,5.23,0,0,1-8.56,2A8.92,8.92,0,0,0,532,25Z"/><path class="cls-3" d="M554,19.23a5.24,5.24,0,0,1,8.26-3A8.94,8.94,0,0,0,554,19.23Z"/><path class="cls-3" d="M557.4,13.48a4.11,4.11,0,0,1,6.47-2.35A7,7,0,0,0,557.4,13.48Z"/><path class="cls-3" d="M565.7,19.23a3.42,3.42,0,0,1,5.38-2A5.82,5.82,0,0,0,565.7,19.23Z"/><path class="cls-3" d="M566.84,13.4a5.07,5.07,0,0,1,8.49-.53A8.63,8.63,0,0,0,566.84,13.4Z"/><path class="cls-3" d="M574.55,19.2a5.07,5.07,0,0,1,8.49-.53A8.63,8.63,0,0,0,574.55,19.2Z"/><path class="cls-3" d="M589.86,22.8a2.89,2.89,0,0,1,4.85-.3A4.93,4.93,0,0,0,589.86,22.8Z"/><path class="cls-3" d="M539.56,22.8a4.61,4.61,0,0,1,7.72-.48A7.85,7.85,0,0,0,539.56,22.8Z"/><path class="cls-3" d="M536.63,19.61a3.51,3.51,0,0,1,5.87-.37A6,6,0,0,0,536.63,19.61Z"/><path class="cls-2" d="M583.63,24a9.81,9.81,0,0,1-14.77,3.52C573.93,28.25,579.28,26.69,583.63,24Z"/><path class="cls-2" d="M606.87,28.45A7.26,7.26,0,0,1,595.72,27,16.45,16.45,0,0,0,606.87,28.45Z"/><path class="cls-3" d="M586.24,12.7a3.25,3.25,0,0,0-1.71-1.18,3.58,3.58,0,0,0-3.5,1.13,6,6,0,0,0-1.47-6.09,6,6,0,0,0-6.12-1.35,5,5,0,0,0-2.23,1.49A11,11,0,0,0,563.65.26l0,0A12.3,12.3,0,0,1,570.2,8.9c1.69-1.08,3.6-2.23,5.57-1.84a4.71,4.71,0,0,1,3.41,3.15A7.3,7.3,0,0,1,579,15,8.13,8.13,0,0,1,586.24,12.7Z"/><path class="cls-3" d="M614,25.36A3.13,3.13,0,0,0,612.51,24a3.55,3.55,0,0,0-2.77,0,3.7,3.7,0,0,0-2.47-1.59,4.43,4.43,0,0,0-3.15.68,6.64,6.64,0,0,0-3.23-6.34c-.13-.07-.27-.15-.41-.21a7.32,7.32,0,0,1,1.07,8.21,6.73,6.73,0,0,1,3.78-1.11,3.55,3.55,0,0,1,3.29,2.16A5.67,5.67,0,0,1,614,25.36Z"/><path class="cls-3" d="M550.86,13.33a2.76,2.76,0,0,0-3.08-.42A3.07,3.07,0,0,0,546,15.66a2.17,2.17,0,0,0-2.15-.54,1.43,1.43,0,0,0-.69.47,3.49,3.49,0,0,1,3.36,1.4,2.86,2.86,0,0,1,1.77-3.24,3.16,3.16,0,0,1,3.58,1.54,16.43,16.43,0,0,1,.23-10A11,11,0,0,0,550.86,13.33Z"/><path class="cls-2" d="M603.81,34a13.49,13.49,0,0,1-6.27,3.29,6,6,0,0,0,4.06-.47A4.69,4.69,0,0,0,603.81,34Z"/><path class="cls-2" d="M534.77,33.07a13.48,13.48,0,0,1-7,.85,6,6,0,0,0,4,1A4.66,4.66,0,0,0,534.77,33.07Z"/><path class="cls-2" d="M573.6,34a6.5,6.5,0,0,1-3.39.07,2.89,2.89,0,0,0,1.84.67A2.22,2.22,0,0,0,573.6,34Z"/><path class="cls-1" d="M797.66,87.62a3.86,3.86,0,0,1-2.76,2.09A3.17,3.17,0,0,1,792,88.52a4.47,4.47,0,0,1-5.58-.5,12,12,0,0,1-12,1.5,3.12,3.12,0,0,1-4.27-.44,5.23,5.23,0,0,1-6.11-.41,7.3,7.3,0,0,1-5,1.7,7.75,7.75,0,0,1-5-2.13,8.08,8.08,0,0,1-8.24.89,13.6,13.6,0,0,1-5.43-.11c-1-.23-2.22-.84-2.2-1.9a1.75,1.75,0,0,1,1.9-1.46,4.71,4.71,0,0,1,2.25,1.15c0-1,1.25-1.88,2-1.28a1.63,1.63,0,0,1,.62-1.62,1.46,1.46,0,0,1,1.6-.28,3.15,3.15,0,0,1,4.9-2.85c-.12-.82.55-1.39,1.28-1.79a2.13,2.13,0,0,1,2.34.24,12.58,12.58,0,0,1,3-9.27,15,15,0,0,1,8.3-4.84c5-1.09,10.7.38,14,4.34s3.36,10.41-.3,14a11.58,11.58,0,0,1,4.76-1.16,3.3,3.3,0,0,1,3.21,2.63c.56-.65,2.59-1,3.42-.76a2.39,2.39,0,0,1,1.75,1.72,2.48,2.48,0,0,1,3.12-.75C797.5,85.62,798.18,86.53,797.66,87.62Z"/><path class="cls-3" d="M758.19,70a12.58,12.58,0,0,0-3,9.27,2.13,2.13,0,0,0-2.34-.24c-.73.4-1.4,1-1.28,1.79a3.23,3.23,0,0,0-3.34-.11,3.19,3.19,0,0,0-.47.35,3.73,3.73,0,0,1,1.45-.09,3.81,3.81,0,0,1,2.56,1.6,2.29,2.29,0,0,1,3-2.5,7.44,7.44,0,0,1,1.91,1,15.36,15.36,0,0,1,8.86-15.63A14.81,14.81,0,0,0,758.19,70Z"/><path class="cls-2" d="M797.29,88.22a4.45,4.45,0,0,1-2.47.53,3.22,3.22,0,0,1-2.72-2.21,3.4,3.4,0,0,1-3,1.24,3.59,3.59,0,0,1-2.71-2,7.73,7.73,0,0,1-5.55,2.88A8,8,0,0,1,775,86.07a6.68,6.68,0,0,1-1.45,1.15,2.32,2.32,0,0,1-1.78.22A1.41,1.41,0,0,1,771,86a3.68,3.68,0,0,1-3.89,1,3.75,3.75,0,0,1-2.56-3.13,11.56,11.56,0,0,1-2.93,3.26,6,6,0,0,1-4.16,1.15,4.46,4.46,0,0,1-3.54-2.66,6.78,6.78,0,0,1-3.5,2.52,4,4,0,0,1-4.11-1.29,7.34,7.34,0,0,1-7.89.94A3,3,0,0,0,740.43,89a13.6,13.6,0,0,0,5.43.11,8.08,8.08,0,0,0,8.24-.89,7.75,7.75,0,0,0,5,2.13,7.3,7.3,0,0,0,5-1.7,5.23,5.23,0,0,0,6.11.41,3.12,3.12,0,0,0,4.27.44,12,12,0,0,0,12-1.5,4.47,4.47,0,0,0,5.58.5,3.17,3.17,0,0,0,2.87,1.19A3.86,3.86,0,0,0,797.29,88.22Z"/><path class="cls-2" d="M759.83,83.62a9.78,9.78,0,0,0,10.94-1.31A56,56,0,0,1,759.83,83.62Z"/><path class="cls-2" d="M772.87,84.49a3.17,3.17,0,0,0,5.65,1.19C776.53,86.35,774.16,86.15,772.87,84.49Z"/><path class="cls-2" d="M751.4,84.86a3.3,3.3,0,0,0,2.73,1.43,3.6,3.6,0,0,0,2.63-1.8A7,7,0,0,1,751.4,84.86Z"/><path class="cls-3" d="M764.4,77.33a4.32,4.32,0,0,0-6.54.24A9.49,9.49,0,0,1,764.4,77.33Z"/><path class="cls-3" d="M768,74.52a3.22,3.22,0,0,0-4.88.18A7,7,0,0,1,768,74.52Z"/><path class="cls-3" d="M766,79.82a3.22,3.22,0,0,0-4.88.18A7.06,7.06,0,0,1,766,79.82Z"/><path class="cls-3" d="M776.6,78.54a4.41,4.41,0,0,0-3.32-1.38,4.37,4.37,0,0,0-3.21,1.62A9.46,9.46,0,0,1,776.6,78.54Z"/><path class="cls-3" d="M778.22,81a3.23,3.23,0,0,0-4.89.18A7.09,7.09,0,0,1,778.22,81Z"/><path class="cls-2" d="M781.53,91.24a12.67,12.67,0,0,1-6.62-.7,5.68,5.68,0,0,0,3.42,1.76A4.41,4.41,0,0,0,781.53,91.24Z"/><path class="cls-2" d="M760.16,90.65a9.48,9.48,0,0,1-4.94-.59,4.24,4.24,0,0,0,2.54,1.35A3.27,3.27,0,0,0,760.16,90.65Z"/><path class="cls-2" d="M798,88.84a9.48,9.48,0,0,1-4.56,2,4.25,4.25,0,0,0,2.88-.12A3.26,3.26,0,0,0,798,88.84Z"/><path class="cls-1" d="M973.34,42.41a1.78,1.78,0,0,0-1.16-2.56l-.16,0c-.88-.11-2.09-.1-2.51.68a3.89,3.89,0,0,0-.93-3.64,5.25,5.25,0,0,0-4.2-1.29,4.87,4.87,0,0,0-1.79-5c-1.51-1.12-3.58-1.69-5.18-.72a6,6,0,0,0,.87-4.91,8.15,8.15,0,0,0-2.8-4.23,8.92,8.92,0,0,0-9.09-1.43,7.15,7.15,0,0,0-4,8c-.15-.59-1.29-.92-1.89-.85a1.32,1.32,0,0,0-1.12,1.25,2,2,0,0,0-2-.32A2.12,2.12,0,0,0,936,29a7.37,7.37,0,0,0-4.49-3.34,6.35,6.35,0,0,0-5.57,1.16,5.3,5.3,0,0,0-1.74,5.31,2.91,2.91,0,0,0-3.26,2.3,2.15,2.15,0,0,0-2.28.17,2.08,2.08,0,0,0-1,2,3.2,3.2,0,0,0-3.95.27,3.44,3.44,0,0,0-.9,4,2.15,2.15,0,0,0-2.07,0,1.33,1.33,0,0,0-.06,2.37,5.43,5.43,0,0,0,2.64.82A5.11,5.11,0,0,0,915,44c.19,0,1.43-.72,1.48-.69a4.83,4.83,0,0,0,4.47-.09c.66.92,2.67,1,3.25,0,1.58,1.75,5,1.9,6.6.17.71,1.09,2.74,1,3.76.21a3.74,3.74,0,0,0,4.64-.45,11.91,11.91,0,0,0,11.25.55,4.92,4.92,0,0,0,4.74.15c1.75.75,4.64-.31,5.71-1.88,1.3,1.69,4.15,2.55,5.82,1.22a7.2,7.2,0,0,0,4.89.75C972.7,43.79,972.94,43.2,973.34,42.41Z"/><path class="cls-2" d="M970.37,43.07a5.31,5.31,0,0,1-3.47-3.8A6.12,6.12,0,0,1,965.17,41a2.59,2.59,0,0,1-3.76-.84,5.74,5.74,0,0,1-.6-1.62,11.29,11.29,0,0,1-1.75,2.36A3.89,3.89,0,0,1,956.42,42a3.48,3.48,0,0,1-2.23-1,6.05,6.05,0,0,1-1.37-2,9.38,9.38,0,0,1-.65-2.92,17.52,17.52,0,0,1-2.5,4.32,6.8,6.8,0,0,1-4.23,2.48,3.66,3.66,0,0,1-3.76-2.15,3.33,3.33,0,0,1-2.71.77,3.82,3.82,0,0,1-2.28-1.94,2.6,2.6,0,0,1-2.86,1.1,2.85,2.85,0,0,1-1.89-2.62,12.23,12.23,0,0,1-1.47,3.56,4.36,4.36,0,0,1-3.14,2c-1.29.09-3-.82-3.14-2.09a1.78,1.78,0,0,1-1.66,1.14,2.1,2.1,0,0,1-1.73-1.37,2.62,2.62,0,0,1-2.33,1.34,2.53,2.53,0,0,1-2.21-1.45,9,9,0,0,1-2.41,1.53A4.34,4.34,0,0,1,911,43a2.93,2.93,0,0,1-1-.46,1.7,1.7,0,0,0,.63.83,5.43,5.43,0,0,0,2.64.82A5.11,5.11,0,0,0,915,44c.19,0,1.43-.72,1.48-.69a4.83,4.83,0,0,0,4.47-.09c.66.92,2.67,1,3.25,0,1.58,1.75,5,1.9,6.6.17.71,1.09,2.74,1,3.76.21a3.74,3.74,0,0,0,4.64-.45,11.91,11.91,0,0,0,11.25.55,4.92,4.92,0,0,0,4.74.15c1.75.75,4.64-.31,5.71-1.88,1.3,1.69,4.15,2.55,5.82,1.22a7.2,7.2,0,0,0,4.89.75,1.78,1.78,0,0,0,1.39-.9A5.17,5.17,0,0,1,970.37,43.07Z"/><path class="cls-2" d="M927.29,37.74a5.69,5.69,0,0,0,8.76-1.29A14,14,0,0,1,927.29,37.74Z"/><path class="cls-2" d="M947.52,34.84a5.69,5.69,0,0,0,8.84.5A13.94,13.94,0,0,1,947.52,34.84Z"/><path class="cls-2" d="M945.67,36a3.1,3.1,0,0,0,4.84.27A7.57,7.57,0,0,1,945.67,36Z"/><path class="cls-3" d="M944.09,32.31a3.12,3.12,0,0,0-4.79.77A7.65,7.65,0,0,1,944.09,32.31Z"/><path class="cls-3" d="M951.7,29.11a4.69,4.69,0,0,0-7.21,1.14A11.48,11.48,0,0,1,951.7,29.11Z"/><path class="cls-3" d="M951,32a2.65,2.65,0,0,0-4.06.65A6.5,6.5,0,0,1,951,32Z"/><path class="cls-3" d="M932.51,33.06a4.29,4.29,0,0,0-6.57,1A10.54,10.54,0,0,1,932.51,33.06Z"/><path class="cls-3" d="M927.31,36.25a3.41,3.41,0,0,0-2.75-.82,3.37,3.37,0,0,0-2.36,1.63A8.1,8.1,0,0,1,927.31,36.25Z"/><path class="cls-3" d="M935.35,30.84a2.3,2.3,0,0,0-3.53.56A5.6,5.6,0,0,1,935.35,30.84Z"/><path class="cls-2" d="M954,36.24a4.37,4.37,0,0,0,6.77.38A10.75,10.75,0,0,1,954,36.24Z"/><path class="cls-3" d="M941.07,26.43a2.29,2.29,0,0,0-.62,0,1.32,1.32,0,0,0-1.12,1.25,2,2,0,0,0-2-.32A2.12,2.12,0,0,0,936,29a7.37,7.37,0,0,0-4.49-3.34,6.72,6.72,0,0,0-2.68-.12,7,7,0,0,1,3.68,1.26,18.85,18.85,0,0,1,3.69,3.56,2.62,2.62,0,0,1,1.38-2.21,2.4,2.4,0,0,1,2.45.39A2.43,2.43,0,0,1,941.07,26.43Z"/><path class="cls-3" d="M961.16,30.51a6.38,6.38,0,0,1,2.63,1.4,4.61,4.61,0,0,0-1.2-1.33c-1.51-1.12-3.58-1.69-5.18-.72a6,6,0,0,0,.87-4.91,8.15,8.15,0,0,0-2.8-4.23,8.92,8.92,0,0,0-9.09-1.43,7.16,7.16,0,0,0-2.75,2.22,8,8,0,0,1,12.25,10.23A6.52,6.52,0,0,1,961.16,30.51Z"/><path class="cls-2" d="M945.88,45.71a11,11,0,0,1-5.7-.6,4.88,4.88,0,0,0,2.94,1.51A3.81,3.81,0,0,0,945.88,45.71Z"/><path class="cls-2" d="M929,45.54a8.17,8.17,0,0,1-4.26-.52,3.64,3.64,0,0,0,2.19,1.17A2.82,2.82,0,0,0,929,45.54Z"/><path class="cls-2" d="M960,44.14a8.1,8.1,0,0,1-4.15,1.09,3.61,3.61,0,0,0,2.46.28A2.83,2.83,0,0,0,960,44.14Z"/><path class="cls-1" d="M117.56,39.42a9.13,9.13,0,0,0-3.42-2.78,7,7,0,0,0-4.86-.4,3.52,3.52,0,0,0-2.37-2.94,3.94,3.94,0,0,0-3.85,1.09c-.21-3.7-5.73-4.09-7-1.86.21-3.67-6.82-7.7-10.91-4.81.44-5.24-3-10.36-7.68-12.7s-10.4-2.14-15.31-.29c-3.78,1.42-7.33,3.94-9,7.59-1.54,3.3-1.2,7.59,1.22,10.23a3.45,3.45,0,0,0-1.92-.23A2.67,2.67,0,0,0,50.3,34.4,3.8,3.8,0,0,0,45,36a7.51,7.51,0,0,0-7.56-2.24,8.49,8.49,0,0,0-6.06,5.83,8.81,8.81,0,0,0-6-.85,5.29,5.29,0,0,0-3.85,3.66h0c-1.7,1.23-3.32,2.66-5.32,3.29s-3.93.42-5.92.53-4.13.65-5.33,2.24c3.55-1.52,7.87,1.2,11.72.84,2.26-.22,4.33-1.51,6.43-2.47a4.72,4.72,0,0,0,.41.37A9.12,9.12,0,0,0,29.6,49c2.17-.1,4.11-1.11,6.15-1.86a6.28,6.28,0,0,0,8-.63A21.53,21.53,0,0,0,56.24,53.9c4.86.92,10.67-.81,15-3.22,1.64,2.1,5.88,1.29,7.61-.74a6.73,6.73,0,0,0,9.29-1.39,18.82,18.82,0,0,0,14.5,1.62c1.05-.31,2.65-1.4,2.81-2.49a17,17,0,0,0,10.15-.42,5.44,5.44,0,0,0,3.22-2.4C119.69,43.1,118.79,41,117.56,39.42Z"/><path class="cls-1" d="M21.14,49.19a7.86,7.86,0,0,1-7.57,1.09,4.7,4.7,0,0,0,4,1.7A4.94,4.94,0,0,0,21.14,49.19Z"/><path class="cls-2" d="M118.81,44.86a3.7,3.7,0,0,0,.29-.89,10.84,10.84,0,0,1-5.95,2.62,11.07,11.07,0,0,1-8.24-2.77,9.87,9.87,0,0,1-8.26,4.89,10.3,10.3,0,0,1-8.56-4.78,8.26,8.26,0,0,1-3.27,3.43,4.46,4.46,0,0,1-4.73-.66,5.29,5.29,0,0,1-5.34,2.61,5.14,5.14,0,0,1-4.1-4.21A17.37,17.37,0,0,1,57,49.43a17.67,17.67,0,0,1-12.25-7.66,8.32,8.32,0,0,1-4.66,2.84A5.46,5.46,0,0,1,35,43.11,11.81,11.81,0,0,1,24.5,47.9,9.64,9.64,0,0,0,29.6,49c2.17-.1,4.11-1.11,6.15-1.86a6.28,6.28,0,0,0,8-.63A21.53,21.53,0,0,0,56.24,53.9c4.86.92,10.67-.81,15-3.22,1.64,2.1,5.88,1.29,7.61-.74a6.73,6.73,0,0,0,9.29-1.39,18.82,18.82,0,0,0,14.5,1.62c1.05-.31,2.65-1.4,2.81-2.49a17,17,0,0,0,10.15-.42A5.44,5.44,0,0,0,118.81,44.86Z"/><path class="cls-3" d="M72.9,35.48a5.93,5.93,0,0,0-11.13.44C64.88,33.35,69.43,33.42,72.9,35.48Z"/><path class="cls-3" d="M87.61,34.28A4.07,4.07,0,0,0,81.25,34,20,20,0,0,1,87.61,34.28Z"/><path class="cls-3" d="M93.85,38.6a6.67,6.67,0,0,0-8.41-.35A25.81,25.81,0,0,1,93.85,38.6Z"/><path class="cls-3" d="M105.27,39.78a4.65,4.65,0,0,0-7-.12A12.54,12.54,0,0,1,105.27,39.78Z"/><path class="cls-3" d="M56.79,37.71a4.22,4.22,0,0,0-5.89,1.07A22.81,22.81,0,0,1,56.79,37.71Z"/><path class="cls-2" d="M37.41,40.19A15.4,15.4,0,0,0,55.92,42,35.83,35.83,0,0,1,37.41,40.19Z"/><path class="cls-2" d="M77.74,42.44a9.76,9.76,0,0,1-15.33.94A14.53,14.53,0,0,0,77.74,42.44Z"/><path class="cls-2" d="M84.32,44a8.44,8.44,0,0,0,10.37-1.19A34.53,34.53,0,0,1,84.32,44Z"/><path class="cls-3" d="M96.11,32.53c.21-3.67-6.82-7.7-10.91-4.81.44-5.24-3-10.36-7.68-12.7s-10.4-2.14-15.31-.29a19.23,19.23,0,0,0-5.08,2.8A21.12,21.12,0,0,1,76,17.37a15.25,15.25,0,0,1,6.13,5.14,9.69,9.69,0,0,1,1.42,7.72C85.65,28.74,88.66,28,91,29a7.63,7.63,0,0,1,4.51,5.75,7,7,0,0,1,3.89-2.21,6.11,6.11,0,0,1,3.06.16C101,30.64,97.11,30.71,96.11,32.53Z"/><path class="cls-2" d="M106.16,49.53a8.17,8.17,0,0,1-5.31,2.89,19.06,19.06,0,0,1-6.16-.3,8,8,0,0,0,6.38,1.6C103.3,53.32,105,51.49,106.16,49.53Z"/><path class="cls-2" d="M70.34,52.74a18.65,18.65,0,0,1-9.42,2.79,8.38,8.38,0,0,0,5.66.46A6.47,6.47,0,0,0,70.34,52.74Z"/></g></svg>