<svg id="road" xmlns="http://www.w3.org/2000/svg" xmlns:xlink="http://www.w3.org/1999/xlink" viewBox="0 0 1919 821"><defs><style>.cls-1,.cls-10,.cls-11,.cls-12,.cls-13,.cls-14,.cls-15,.cls-16,.cls-17,.cls-18,.cls-19,.cls-2,.cls-20,.cls-21,.cls-22,.cls-23,.cls-24,.cls-25,.cls-26,.cls-27,.cls-28,.cls-29,.cls-3,.cls-30,.cls-31,.cls-32,.cls-33,.cls-34,.cls-35,.cls-36,.cls-37,.cls-38,.cls-39,.cls-4,.cls-40,.cls-41,.cls-42,.cls-43,.cls-44,.cls-45,.cls-46,.cls-47,.cls-48,.cls-49,.cls-5,.cls-50,.cls-51,.cls-52,.cls-53,.cls-54,.cls-55,.cls-6,.cls-7,.cls-8,.cls-9{fill-rule:evenodd;}.cls-1{fill:url(#Áåçûìÿííûé_ãðàäèåíò_169);}.cls-2{fill:url(#Áåçûìÿííûé_ãðàäèåíò_169-2);}.cls-3{fill:url(#Áåçûìÿííûé_ãðàäèåíò_169-3);}.cls-4{fill:url(#Áåçûìÿííûé_ãðàäèåíò_169-4);}.cls-5{fill:#a8b4ec;}.cls-6{fill:url(#Áåçûìÿííûé_ãðàäèåíò_170);}.cls-7{fill:url(#Áåçûìÿííûé_ãðàäèåíò_170-2);}.cls-8{fill:url(#Áåçûìÿííûé_ãðàäèåíò_170-3);}.cls-9{fill:url(#Áåçûìÿííûé_ãðàäèåíò_170-4);}.cls-10{fill:url(#Áåçûìÿííûé_ãðàäèåíò_170-5);}.cls-11{fill:url(#Áåçûìÿííûé_ãðàäèåíò_170-6);}.cls-12{fill:url(#Áåçûìÿííûé_ãðàäèåíò_170-7);}.cls-13{fill:url(#Áåçûìÿííûé_ãðàäèåíò_170-8);}.cls-14{fill:url(#Áåçûìÿííûé_ãðàäèåíò_170-9);}.cls-15{fill:url(#Áåçûìÿííûé_ãðàäèåíò_170-10);}.cls-16{fill:url(#Áåçûìÿííûé_ãðàäèåíò_170-11);}.cls-17{fill:url(#Áåçûìÿííûé_ãðàäèåíò_170-12);}.cls-18{fill:url(#Áåçûìÿííûé_ãðàäèåíò_170-13);}.cls-19{fill:url(#Áåçûìÿííûé_ãðàäèåíò_170-14);}.cls-20{fill:url(#Áåçûìÿííûé_ãðàäèåíò_170-15);}.cls-21{fill:url(#Áåçûìÿííûé_ãðàäèåíò_170-16);}.cls-22{fill:url(#Áåçûìÿííûé_ãðàäèåíò_170-17);}.cls-23{fill:#7b8cd6;}.cls-24{fill:url(#Áåçûìÿííûé_ãðàäèåíò_170-18);}.cls-25{fill:url(#Áåçûìÿííûé_ãðàäèåíò_170-19);}.cls-26{fill:url(#Áåçûìÿííûé_ãðàäèåíò_274);}.cls-27{fill:#a9bcf2;}.cls-28{fill:url(#Áåçûìÿííûé_ãðàäèåíò_301);}.cls-29{fill:url(#Áåçûìÿííûé_ãðàäèåíò_301-2);}.cls-30{fill:url(#Áåçûìÿííûé_ãðàäèåíò_301-3);}.cls-31{fill:url(#Áåçûìÿííûé_ãðàäèåíò_301-4);}.cls-32{fill:url(#Áåçûìÿííûé_ãðàäèåíò_301-5);}.cls-33{fill:url(#Áåçûìÿííûé_ãðàäèåíò_301-6);}.cls-34{fill:url(#Áåçûìÿííûé_ãðàäèåíò_301-7);}.cls-35{fill:url(#Áåçûìÿííûé_ãðàäèåíò_301-8);}.cls-36{fill:url(#Áåçûìÿííûé_ãðàäèåíò_301-9);}.cls-37{fill:url(#Áåçûìÿííûé_ãðàäèåíò_301-10);}.cls-38{fill:url(#Áåçûìÿííûé_ãðàäèåíò_301-11);}.cls-39{fill:url(#Áåçûìÿííûé_ãðàäèåíò_301-12);}.cls-40{fill:#e1e8fd;}.cls-41{fill:#fffffd;}.cls-42{fill:url(#Áåçûìÿííûé_ãðàäèåíò_169-5);}.cls-43{fill:url(#Áåçûìÿííûé_ãðàäèåíò_170-20);}.cls-44{fill:url(#Áåçûìÿííûé_ãðàäèåíò_170-21);}.cls-45{fill:url(#Áåçûìÿííûé_ãðàäèåíò_170-22);}.cls-46{fill:url(#Áåçûìÿííûé_ãðàäèåíò_170-23);}.cls-47{fill:url(#Áåçûìÿííûé_ãðàäèåíò_170-24);}.cls-48{fill:url(#Áåçûìÿííûé_ãðàäèåíò_170-25);}.cls-49{fill:url(#Áåçûìÿííûé_ãðàäèåíò_169-6);}.cls-50{fill:#8596e4;}.cls-51{fill:url(#Áåçûìÿííûé_ãðàäèåíò_170-26);}.cls-52{fill:url(#Áåçûìÿííûé_ãðàäèåíò_170-27);}.cls-53{fill:url(#Áåçûìÿííûé_ãðàäèåíò_170-28);}.cls-54{fill:url(#Áåçûìÿííûé_ãðàäèåíò_169-7);}.cls-55{fill:url(#Áåçûìÿííûé_ãðàäèåíò_170-29);}</style><linearGradient id="Áåçûìÿííûé_ãðàäèåíò_169" x1="80.39" y1="305.77" x2="80.39" y2="297.73" gradientUnits="userSpaceOnUse"><stop offset="0" stop-color="#c6ccf3"/><stop offset="0.26" stop-color="#cfd4f5"/><stop offset="0.67" stop-color="#e7eafa"/><stop offset="1" stop-color="#fff"/></linearGradient><linearGradient id="Áåçûìÿííûé_ãðàäèåíò_169-2" x1="215.08" y1="305.36" x2="215.08" y2="276.53" xlink:href="#Áåçûìÿííûé_ãðàäèåíò_169"/><linearGradient id="Áåçûìÿííûé_ãðàäèåíò_169-3" x1="158.52" y1="305.77" x2="158.52" y2="256.1" xlink:href="#Áåçûìÿííûé_ãðàäèåíò_169"/><linearGradient id="Áåçûìÿííûé_ãðàäèåíò_169-4" x1="156.52" y1="305.77" x2="156.52" y2="276.53" xlink:href="#Áåçûìÿííûé_ãðàäèåíò_169"/><linearGradient id="Áåçûìÿííûé_ãðàäèåíò_170" x1="188.21" y1="305.12" x2="182.26" y2="245.32" gradientUnits="userSpaceOnUse"><stop offset="0" stop-color="#dbe1ff"/><stop offset="0.36" stop-color="#e4e8ff"/><stop offset="0.94" stop-color="#fcfcff"/><stop offset="1" stop-color="#fff"/></linearGradient><linearGradient id="Áåçûìÿííûé_ãðàäèåíò_170-2" x1="168.53" y1="307.08" x2="162.58" y2="247.28" xlink:href="#Áåçûìÿííûé_ãðàäèåíò_170"/><linearGradient id="Áåçûìÿííûé_ãðàäèåíò_170-3" x1="199.18" y1="304.03" x2="193.24" y2="244.23" xlink:href="#Áåçûìÿííûé_ãðàäèåíò_170"/><linearGradient id="Áåçûìÿííûé_ãðàäèåíò_170-4" x1="135.45" y1="310.37" x2="129.51" y2="250.56" xlink:href="#Áåçûìÿííûé_ãðàäèåíò_170"/><linearGradient id="Áåçûìÿííûé_ãðàäèåíò_170-5" x1="151.57" y1="308.77" x2="145.62" y2="248.96" xlink:href="#Áåçûìÿííûé_ãðàäèåíò_170"/><linearGradient id="Áåçûìÿííûé_ãðàäèåíò_170-6" x1="115.57" y1="312.35" x2="109.62" y2="252.54" xlink:href="#Áåçûìÿííûé_ãðàäèåíò_170"/><linearGradient id="Áåçûìÿííûé_ãðàäèåíò_170-7" x1="97.14" y1="314.18" x2="91.19" y2="254.38" xlink:href="#Áåçûìÿííûé_ãðàäèåíò_170"/><linearGradient id="Áåçûìÿííûé_ãðàäèåíò_170-8" x1="157.42" y1="308.19" x2="151.47" y2="248.38" xlink:href="#Áåçûìÿííûé_ãðàäèåíò_170"/><linearGradient id="Áåçûìÿííûé_ãðàäèåíò_170-9" x1="192.22" y1="304.72" x2="186.28" y2="244.92" xlink:href="#Áåçûìÿííûé_ãðàäèåíò_170"/><linearGradient id="Áåçûìÿííûé_ãðàäèåíò_170-10" x1="217.74" y1="302.19" x2="211.8" y2="242.38" xlink:href="#Áåçûìÿííûé_ãðàäèåíò_170"/><linearGradient id="Áåçûìÿííûé_ãðàäèåíò_170-11" x1="227.79" y1="301.19" x2="221.84" y2="241.38" xlink:href="#Áåçûìÿííûé_ãðàäèåíò_170"/><linearGradient id="Áåçûìÿííûé_ãðàäèåíò_170-12" x1="81.9" y1="315.7" x2="75.96" y2="255.89" xlink:href="#Áåçûìÿííûé_ãðàäèåíò_170"/><linearGradient id="Áåçûìÿííûé_ãðàäèåíò_170-13" x1="72.15" y1="316.66" x2="66.21" y2="256.88" xlink:href="#Áåçûìÿííûé_ãðàäèåíò_170"/><linearGradient id="Áåçûìÿííûé_ãðàäèåíò_170-14" x1="158.14" y1="308.12" x2="152.19" y2="248.31" xlink:href="#Áåçûìÿííûé_ãðàäèåíò_170"/><linearGradient id="Áåçûìÿííûé_ãðàäèåíò_170-15" x1="184.23" y1="305.52" x2="178.28" y2="245.72" xlink:href="#Áåçûìÿííûé_ãðàäèåíò_170"/><linearGradient id="Áåçûìÿííûé_ãðàäèåíò_170-16" x1="46.07" y1="305.77" x2="46.07" y2="303.93" xlink:href="#Áåçûìÿííûé_ãðàäèåíò_170"/><linearGradient id="Áåçûìÿííûé_ãðàäèåíò_170-17" x1="12.53" y1="251.71" x2="12.53" y2="248.7" xlink:href="#Áåçûìÿííûé_ãðàäèåíò_170"/><linearGradient id="Áåçûìÿííûé_ãðàäèåíò_170-18" x1="119.6" y1="285.83" x2="119.6" y2="279.77" xlink:href="#Áåçûìÿííûé_ãðàäèåíò_170"/><linearGradient id="Áåçûìÿííûé_ãðàäèåíò_170-19" x1="254.83" y1="305.21" x2="253.67" y2="293.54" xlink:href="#Áåçûìÿííûé_ãðàäèåíò_170"/><linearGradient id="Áåçûìÿííûé_ãðàäèåíò_274" x1="1769.57" y1="338.67" x2="1769.57" y2="284.58" gradientUnits="userSpaceOnUse"><stop offset="0" stop-color="#d3d0ff"/><stop offset="1" stop-color="#f6e0ff"/></linearGradient><linearGradient id="Áåçûìÿííûé_ãðàäèåíò_301" x1="1760.22" y1="281.87" x2="1755.46" y2="334.78" gradientUnits="userSpaceOnUse"><stop offset="0" stop-color="#ffffea"/><stop offset="1" stop-color="#f6e0ff"/></linearGradient><linearGradient id="Áåçûìÿííûé_ãðàäèåíò_301-2" x1="1751.21" y1="281.06" x2="1746.45" y2="333.97" xlink:href="#Áåçûìÿííûé_ãðàäèåíò_301"/><linearGradient id="Áåçûìÿííûé_ãðàäèåíò_301-3" x1="1744.74" y1="280.49" x2="1739.98" y2="333.39" xlink:href="#Áåçûìÿííûé_ãðàäèåíò_301"/><linearGradient id="Áåçûìÿííûé_ãðàäèåíò_301-4" x1="1723.5" y1="273.29" x2="1718.16" y2="332.61" xlink:href="#Áåçûìÿííûé_ãðàäèåíò_301"/><linearGradient id="Áåçûìÿííûé_ãðàäèåíò_301-5" x1="1731.92" y1="279.33" x2="1727.16" y2="332.23" xlink:href="#Áåçûìÿííûé_ãðàäèåíò_301"/><linearGradient id="Áåçûìÿííûé_ãðàäèåíò_301-6" x1="1765.23" y1="282.32" x2="1760.47" y2="335.23" xlink:href="#Áåçûìÿííûé_ãðàäèåíò_301"/><linearGradient id="Áåçûìÿííûé_ãðàäèåíò_301-7" x1="1790.27" y1="284.58" x2="1785.51" y2="337.49" xlink:href="#Áåçûìÿííûé_ãðàäèåíò_301"/><linearGradient id="Áåçûìÿííûé_ãðàäèåíò_301-8" x1="1774.87" y1="283.22" x2="1770.11" y2="336.1" xlink:href="#Áåçûìÿííûé_ãðàäèåíò_301"/><linearGradient id="Áåçûìÿííûé_ãðàäèåíò_301-9" x1="1804.79" y1="285.89" x2="1800.03" y2="338.79" xlink:href="#Áåçûìÿííûé_ãðàäèåíò_301"/><linearGradient id="Áåçûìÿííûé_ãðàäèåíò_301-10" x1="1787" y1="284.29" x2="1782.24" y2="337.19" xlink:href="#Áåçûìÿííûé_ãðàäèåíò_301"/><linearGradient id="Áåçûìÿííûé_ãðàäèåíò_301-11" x1="1813.45" y1="286.67" x2="1808.69" y2="339.57" xlink:href="#Áåçûìÿííûé_ãðàäèåíò_301"/><linearGradient id="Áåçûìÿííûé_ãðàäèåíò_301-12" x1="1827.58" y1="287.94" x2="1822.82" y2="340.85" xlink:href="#Áåçûìÿííûé_ãðàäèåíò_301"/><linearGradient id="Áåçûìÿííûé_ãðàäèåíò_169-5" x1="774.72" y1="329.8" x2="774.72" y2="283.21" xlink:href="#Áåçûìÿííûé_ãðàäèåíò_169"/><linearGradient id="Áåçûìÿííûé_ãðàäèåíò_170-20" x1="747.06" y1="326.85" x2="751.66" y2="291.31" xlink:href="#Áåçûìÿííûé_ãðàäèåíò_170"/><linearGradient id="Áåçûìÿííûé_ãðàäèåíò_170-21" x1="774.26" y1="330.81" x2="778.9" y2="294.93" xlink:href="#Áåçûìÿííûé_ãðàäèåíò_170"/><linearGradient id="Áåçûìÿííûé_ãðàäèåíò_170-22" x1="809.32" y1="335.35" x2="813.96" y2="299.47" xlink:href="#Áåçûìÿííûé_ãðàäèåíò_170"/><linearGradient id="Áåçûìÿííûé_ãðàäèåíò_170-23" x1="790.84" y1="332.96" x2="795.49" y2="297.09" xlink:href="#Áåçûìÿííûé_ãðàäèåíò_170"/><linearGradient id="Áåçûìÿííûé_ãðàäèåíò_170-24" x1="717.72" y1="323.49" x2="722.37" y2="287.61" xlink:href="#Áåçûìÿííûé_ãðàäèåíò_170"/><linearGradient id="Áåçûìÿííûé_ãðàäèåíò_170-25" x1="741.25" y1="326.72" x2="747.75" y2="276.46" xlink:href="#Áåçûìÿííûé_ãðàäèåíò_170"/><linearGradient id="Áåçûìÿííûé_ãðàäèåíò_169-6" x1="1142.45" y1="327.81" x2="1142.45" y2="277.9" xlink:href="#Áåçûìÿííûé_ãðàäèåíò_169"/><linearGradient id="Áåçûìÿííûé_ãðàäèåíò_170-26" x1="1123.58" y1="323.49" x2="1123.04" y2="284.14" xlink:href="#Áåçûìÿííûé_ãðàäèåíò_170"/><linearGradient id="Áåçûìÿííûé_ãðàäèåíò_170-27" x1="1191.45" y1="323.45" x2="1190.88" y2="282.3" xlink:href="#Áåçûìÿííûé_ãðàäèåíò_170"/><linearGradient id="Áåçûìÿííûé_ãðàäèåíò_170-28" x1="1042.81" y1="324.6" x2="1042.27" y2="285.25" xlink:href="#Áåçûìÿííûé_ãðàäèåíò_170"/><linearGradient id="Áåçûìÿííûé_ãðàäèåíò_169-7" x1="1483.99" y1="315.32" x2="1483.99" y2="294.44" xlink:href="#Áåçûìÿííûé_ãðàäèåíò_169"/><linearGradient id="Áåçûìÿííûé_ãðàäèåíò_170-29" x1="1488.51" y1="311.75" x2="1488.51" y2="294.44" xlink:href="#Áåçûìÿííûé_ãðàäèåíò_170"/></defs><path class="cls-1" d="M92,305.77s-7.61-17.8-23.24-.41Z"/><path class="cls-2" d="M197.29,303.83s4-27.05,14.71-27.3,20.88,28.83,20.88,28.83Z"/><path class="cls-3" d="M115.83,304.18S114.76,290.8,125,299c0,0,12.85-41.68,31.51-42.88s24,24.76,24,24.76,3.45-10.1,9.23-8.22c7.56,2.47,11.51,33.09,11.51,33.09Z"/><path class="cls-4" d="M54.94,305.77H258.09l-16.86-.37s-9.88-7.39-16.52-7.83-10.57,7.61-10.57,7.61-9.66-26.25-27.9-28.52S153.85,304,153.85,304s-.88-3.12-2.8-1.87c0,0-3.31-13.13-13.62-14.59s-19.77,17.11-19.77,17.11-2.35-4.41-5.76-.39c0,0-8-9.88-32.59,1,0,0-4.07-2.36-17.48.09Z"/><path class="cls-5" d="M54.94,305.77H259.19S169.77,304,54.94,305.77Z"/><path class="cls-6" d="M173.07,280.23c-6.11,4.17-11.71,13.36-11.71,13.36s28.88,7.39,52.22,8.16C213.58,301.75,195.88,264.66,173.07,280.23Z"/><path class="cls-7" d="M155.18,303.41s4.39-4.72,10.68-4.59,15.34,5.12,15.34,5.12Z"/><path class="cls-8" d="M192,304.44s9.26-4.5,14.5-.5Z"/><path class="cls-9" d="M118.34,303.36s7.71-16.34,17.9-15.94,14.81,14.67,14.81,14.67A146.4,146.4,0,0,1,118.34,303.36Z"/><path class="cls-10" d="M148.31,303.76s3.06-2.13,4.13-1.85,1.41,2,1.41,2A20.34,20.34,0,0,1,148.31,303.76Z"/><path class="cls-11" d="M117.66,304.61s-2.22-4.42-5.76-.39Z"/><path class="cls-12" d="M112.62,305a16.27,16.27,0,0,0-12.38-5.29C92,299.67,79.82,305,79.82,305Z"/><path class="cls-13" d="M130.78,284.15s13,3.68,24.4,1.05,23.06-11.44,23.06-11.44-8-19.83-21.72-17.62S131.38,282.82,130.78,284.15Z"/><path class="cls-14" d="M184.49,274.24s6,3.77,9.78,3.68C194.27,277.92,190.6,268.68,184.49,274.24Z"/><path class="cls-15" d="M203.68,283.27s9.17,13.14,25.72,13.57C229.4,296.84,215.4,262.1,203.68,283.27Z"/><path class="cls-16" d="M240.62,305s-19.59-16.8-25.12-2C215.5,303,234.77,305,240.62,305Z"/><path class="cls-17" d="M72.08,303.57s2.89-5.52,8.69-5.8a9.43,9.43,0,0,1,8.33,3.62S78.89,303.9,72.08,303.57Z"/><path class="cls-18" d="M61.56,305.29a68.18,68.18,0,0,1,18.83-.93S78.82,305.62,61.56,305.29Z"/><path class="cls-19" d="M149.93,296.84a14.3,14.3,0,0,1,14.26.93,17.62,17.62,0,0,1-7.73,1.9C151.61,299.87,149.93,296.84,149.93,296.84Z"/><path class="cls-20" d="M170.14,298.82s17.06.86,27.15,3.07c0,0-2.6,1.65-10.89,1.08A54.68,54.68,0,0,1,170.14,298.82Z"/><path class="cls-21" d="M54.94,305.77H37.21S50.19,301.63,54.94,305.77Z"/><path class="cls-22" d="M15.36,251.71,9.7,251S12.93,245.35,15.36,251.71Z"/><path class="cls-23" d="M9.7,251a5.54,5.54,0,0,1,5.66.67Z"/><path class="cls-24" d="M125.28,285.83l-11.36-1.36S120.4,273,125.28,285.83Z"/><path class="cls-5" d="M113.92,284.47s4.42-1.67,11.36,1.36Z"/><path class="cls-25" d="M250.58,305.77s5.94-3.49,8.61,0Z"/><path class="cls-26" d="M1850.51,333.27l-23.24-1.44s-6.65-4.71-14.79,2.47c0,0,12.16-33-13.54-23.77,0,0,1.5-12.24-3.91-11.36-9.71,1.57-19.48,30.8-19.48,30.8s9.6-44.36-7.7-45.36c-21.67-1.24-36.45,35.78-36.45,35.78s-2.9-4.53-6.5,1.77c0,0-6.51-.64-18.31,14.63l-17.95,1.88S1814,336.72,1850.51,333.27Z"/><path class="cls-27" d="M1688.64,338.67s117-7.63,161.87-5.4C1850.51,333.27,1754.76,338.67,1688.64,338.67Z"/><path class="cls-28" d="M1775.91,328.14s9.57-41.68-8.06-43.53-31.08,27-31.08,27S1749.88,325.5,1775.91,328.14Z"/><path class="cls-29" d="M1730.79,322.33s6.88-4.11,14.2-1.94,18.76,6.95,18.76,6.95S1740.52,327.64,1730.79,322.33Z"/><path class="cls-30" d="M1716.44,336.46s10.76-9.65,22-9.12,24.81,5.52,24.81,5.52Z"/><path class="cls-31" d="M1706.59,336.79s6.29-9.28,10.2-12.92,13.4-.49,13.4-.49S1719.71,336.46,1706.59,336.79Z"/><path class="cls-32" d="M1724.9,322.16s1.58-3,3.54-3.31a2.94,2.94,0,0,1,3,1.54,7.25,7.25,0,0,1-2.85,1.73A9.23,9.23,0,0,1,1724.9,322.16Z"/><path class="cls-33" d="M1757.1,329.08s6.48-1.92,7.7,1.77C1764.8,330.85,1759.33,331.05,1757.1,329.08Z"/><path class="cls-34" d="M1775,331.58s7.85-25.18,16.74-31.69,7.17,10.64,7.17,10.64A35.89,35.89,0,0,1,1775,331.58Z"/><path class="cls-35" d="M1783.63,332.86a131.81,131.81,0,0,0-26.53.87S1774.25,334.72,1783.63,332.86Z"/><path class="cls-36" d="M1787.06,330.86s13.26-22.22,20.56-22.22c10.83,0,7.08,17.35,7.08,17.35A48.66,48.66,0,0,1,1787.06,330.86Z"/><path class="cls-37" d="M1778.29,331.19s6.07-3.47,9.33-3.85C1787.62,327.34,1787.59,332.72,1778.29,331.19Z"/><path class="cls-38" d="M1798.05,333.28s9.42-3.55,13.64-3.1a30.58,30.58,0,0,1,8.8,2.74Z"/><path class="cls-39" d="M1817.38,331.19a20.61,20.61,0,0,0,4.74,1.37c2.32.32,7.73.3,7.73.3S1823.89,328.49,1817.38,331.19Z"/><path class="cls-40" d="M1840.57,348.11s6-9.93,14.65,0Z"/><path class="cls-41" d="M1841.66,346.69s9.63,1.32,12.84.63C1854.5,347.32,1847.57,336.33,1841.66,346.69Z"/><path class="cls-27" d="M1840.57,348.11s7.32-3,14.65,0Z"/><path class="cls-40" d="M1828.24,306.53s5-5.09,12,0Z"/><path class="cls-41" d="M1829.15,305.81s7.91.68,10.54.32C1839.69,306.13,1834,300.49,1829.15,305.81Z"/><path class="cls-27" d="M1828.24,306.53a27.57,27.57,0,0,1,12,0Z"/><path class="cls-42" d="M699.86,321.77s91.71,8.3,149.72,8L844,328.36s-21.95-33.24-41.51-27.49-23,17.1-23,17.1-1.17-8.75-7.14-3.23c0,0-3.43-27.58-20.73-31.29s-31.1,37.17-31.1,37.17-1.12-9.14-7.91,1Z"/><path class="cls-23" d="M699.86,321.77s76.62,11.82,149.72,8C849.58,329.79,765.42,327.68,699.86,321.77Z"/><path class="cls-43" d="M723.42,313.16s26.25,6.15,49.42,10.93c0,0,.46-36.58-20.37-42.07S723.42,313.16,723.42,313.16Z"/><path class="cls-44" d="M772.84,314.3a3.81,3.81,0,0,1,4-1.18c2.47.76,2.64,4.85,2.64,4.85S774.65,318,772.84,314.3Z"/><path class="cls-45" d="M777.48,320.23a34,34,0,0,1,26.22-20.55C824,296.31,844,328.36,844,328.36S793.37,325.5,777.48,320.23Z"/><path class="cls-46" d="M773.56,325.33s5.22-2.85,14.18-1.85,22,4.33,22,4.33S783.47,326.75,773.56,325.33Z"/><path class="cls-47" d="M712.6,321.61s2.84-4.9,5.53-4.76,5,6.33,5,6.33Z"/><path class="cls-48" d="M724.89,323.18s-2.84-6.18-.63-7.72,36.28,9.41,36.28,9.41Z"/><path class="cls-49" d="M1034.67,327.81l215.56-7-46.38-3.44s-.48-42.51-58.28-39.26-95.91,45.37-95.91,45.37S1047.34,314.66,1034.67,327.81Z"/><path class="cls-50" d="M1034.67,327.81l215.56-7S1161.61,314.15,1034.67,327.81Z"/><path class="cls-51" d="M1197.14,297.59s-20.91,7.94-73.14,17.31-74.34,8.55-74.34,8.55,18.71-27.93,69.71-41.14S1192.5,288.17,1197.14,297.59Z"/><path class="cls-52" d="M1195.47,302.85a184.83,184.83,0,0,0-37,13.27s36.32,3.05,65.8,2.73C1224.27,318.85,1204.29,306.14,1195.47,302.85Z"/><path class="cls-53" d="M1036,326.49a38.43,38.43,0,0,0,8.42-.8,18.94,18.94,0,0,0,5.26-2.24S1046.68,315.15,1036,326.49Z"/><path class="cls-54" d="M1441.68,315.32s60.5-47,84.62,0Z"/><path class="cls-50" d="M1441.68,315.32h84.62S1503.45,308.46,1441.68,315.32Z"/><path class="cls-55" d="M1452.82,307.93s57.5,4.65,71.38,3.69c0,0-6.24-17-29.56-17.18S1452.82,307.93,1452.82,307.93Z"/></svg>