<svg xmlns="http://www.w3.org/2000/svg" xmlns:xlink="http://www.w3.org/1999/xlink" viewBox="0 0 1919 821"><defs><style>.cls-1{isolation:isolate;}.cls-10,.cls-2,.cls-3,.cls-4,.cls-5,.cls-6,.cls-7,.cls-8,.cls-9{fill-rule:evenodd;}.cls-2{fill:url(#Áåçûìÿííûé_ãðàäèåíò_6);}.cls-3,.cls-4,.cls-7{fill:#fff;}.cls-3,.cls-4{mix-blend-mode:soft-light;}.cls-4{opacity:0.5;}.cls-5{fill:url(#Áåçûìÿííûé_ãðàäèåíò_6-2);}.cls-6{fill:url(#Áåçûìÿííûé_ãðàäèåíò_5);}.cls-7{opacity:0.53;}.cls-8{fill:#6ea1f4;}.cls-9{fill:#384a95;opacity:0.2;}.cls-10{fill:url(#Áåçûìÿííûé_ãðàäèåíò_5-2);}</style><linearGradient id="Áåçûìÿííûé_ãðàäèåíò_6" x1="1776.13" y1="575.36" x2="1776.13" y2="382.73" gradientTransform="matrix(-1, 0, 0, 1, 3227.86, 0)" gradientUnits="userSpaceOnUse"><stop offset="0" stop-color="#bdfcff"/><stop offset="1" stop-color="#81b1ff"/></linearGradient><linearGradient id="Áåçûìÿííûé_ãðàäèåíò_6-2" x1="416.87" y1="581.27" x2="416.87" y2="367.39" gradientTransform="matrix(1, 0, 0, 1, 0, 0)" xlink:href="#Áåçûìÿííûé_ãðàäèåíò_6"/><linearGradient id="Áåçûìÿííûé_ãðàäèåíò_5" x1="2170.68" y1="585.36" x2="2170.68" y2="387.07" gradientTransform="matrix(-1, 0, 0, 1, 3577.61, 0)" gradientUnits="userSpaceOnUse"><stop offset="0" stop-color="#a3efff"/><stop offset="1" stop-color="#7b91f4"/></linearGradient><linearGradient id="Áåçûìÿííûé_ãðàäèåíò_5-2" x1="720.93" y1="595.52" x2="720.93" y2="386.79" gradientTransform="matrix(-1, 0, 0, 1, 1185.5, 0)" xlink:href="#Áåçûìÿííûé_ãðàäèåíò_5"/></defs><g class="cls-1"><g id="road"><path class="cls-2" d="M988.52,492.71q22.46-8.34,45-16.62c1.22,0,2.45,0,3.67,0,42.2-23.49,84.58-46.66,126.43-70.81,12.5,10.41,25.9,21,37.75,31.45,5.11,3.47-2.78-2.9,5.58,3.05s36,28.65,44.22,34.73.48,0,5.51,3.06,8.44,5.74,14.62,8.6,15.91,4.93,22.78,7.64C1273,486,1251.47,478.56,1230.64,470a12.62,12.62,0,0,0,2.26-.05c8.53-3.52,25-11,31.4-14.17s3.39-.93,8-3c10.73,9.29,21.91,18.48,32.81,27.74l2.23,0c2,2.93,3.93,5.91,5.89,8.86,2.77,2.19,5.54,4.37,8.38,6.46,24.41-24.7,38.28-46.54,58.95-73.66l2.44.07c8.75-12.95,22.16-24.45,31.8-37.64,1.08-.6,2.16-1.2,3.23-1.81,6.56,7.82,13.52,15.36,19.53,23.63.49.12,1,.26,1.46.39,22.94,27.95,42.11,55.73,68.17,81.29,1.15-.16,1,.44,3-.29,13.68-10.12,40.72-28.11,52.3-34.34s-.61,1.55,6.49-2c24.6,18.19,50.38,35.72,75.1,54.06,14.73-13.31,29.63-26.17,44.7-39l2.74.16q33.86-25.42,67.77-50.75c15.7,8,140.28,106.83,155.93,114.95.33,45-108.92-.66-109.13,44.3-272-.33-546.15-2.11-818,.25Q988.39,534,988.52,492.71Z"/><path class="cls-3" d="M1418.05,382.73c7.48,11.79,15.14,23.28,21.53,35.73a281.78,281.78,0,0,0-18-26.79l-5.22,1.62a343.1,343.1,0,0,1,20.26,40.33c-3.94-8.08-7.91-16.19-12.46-23.94q-6.35,7.86-12.82,15.61c.31,8.61.39,17.24.54,25.85l-2.56.95c-1.55-4.15-3.14-8.3-4.54-12.5l-3,1.1q3.09,18.94,7.17,37.73c-16.37,14.16-32.34,28.71-50.07,41.17-11.54-8.68-22.68-17.79-33.87-26.92,24.19-22.51,36.1-44.94,55.56-70.56,4.22,15.12,8.25,30.25,13.14,45.18-4-14.94-7.39-30-10.7-45.11,8.75-12.95,22.16-24.45,31.8-37.64C1415.9,383.94,1417,383.34,1418.05,382.73Z"/><path class="cls-3" d="M1478.63,480.72c-14-20.17-26-41.45-39.05-62.26,6.87,11.53,13.22,23.37,19.89,35l-1.08,1.37c3.38,7.06,6.92,14.18,10.76,21Z"/><path class="cls-3" d="M1163.56,405.25c7.33,9.55,14.87,18.95,22.17,28.54-7.25-7.88-14.65-15.61-22-23.39l-2.77.84q7,8.22,13.94,16.43c-3.5-2.78-7-5.55-10.51-8.34-4.63,3.31-9.27,6.61-13.94,9.86,5.81,10.58,11.36,21.3,17,32-3.43-5.31-6.85-10.61-10.32-15.88l-2.07.16q3.93,5.64,7.81,11.3c-8,6.49-16,13.19-23.81,19.9q-13.23-17.75-26.56-35.4l-3,2.08q7.62,10.68,15.2,21.41-24.68-4.93-49.35-9.91C1104.77,438.44,1134.33,422.14,1163.56,405.25Z"/><path class="cls-3" d="M1569,451.4c3.21,3.81,7.45,7.11,11,10.65-2.21-1.31-6.21-4-8-5s-1.42-.21-2.81-.83c5.37,8,10.6,15.84,15.91,23.77q-6.74,2.53-13.46,5.11c-7.17-6.62-14.3-13.29-21.53-19.85l-1.79.5q1.67,1.68,3.34,3.35c-1.84-1.51-3.67-3-5.5-4.55l-3.53,1.05c4.41,5.6,8.87,11.15,13.33,16.71-6.51,1.25-13,2.39-19.49,3.83-3.14-3.5-6.86-6.65-9.54-10.46,9.28-6.32,29.17-18.78,36.47-22.71S1564.28,453.69,1569,451.4Z"/><path class="cls-4" d="M1380.58,422.11c5.91,21.59,11.85,43,19.54,64-8.32,7.29-16.51,14.8-25.29,21.55-3.35-18.62-6.74-37.25-9-56,.85,19.93,2.39,39.9,4.22,59.76-1.41,1.09-2.79,2.22-4.22,3.26-3.48-18.69-6.88-37.44-9.4-56.29C1364,446,1371.75,433.67,1380.58,422.11Z"/><path class="cls-3" d="M1414.82,384.54c.39,2.95,1,5.83,1.52,8.75a343.1,343.1,0,0,1,20.26,40.33c-3.94-8.08-7.91-16.19-12.46-23.94q-6.35,7.86-12.82,15.61a169.76,169.76,0,0,0-6.36-20.21c4,15,5.07,30.72,6.9,46.06a12.23,12.23,0,0,0-2.55,1.09c-1.69-6.13-3-5.76-4.61-13.47s-4.11-23.42-7.4-32.3C1403.52,399.2,1409.31,392.18,1414.82,384.54Z"/><path class="cls-4" d="M1144.77,416.09c7.72,15,15.22,30,22.63,45.1-3.57-5.39-6.65-10.48-10.38-15.92s-8.16-11.31-12-16.73c3.15,5.09,7,12,9.93,16.7s5.13,7.25,7.9,11.57c-4.06,3-7.78,6.57-11.72,9.77-6.41-12.16-12.74-24.36-19.26-36.46,5.6,12.88,10.9,25.89,16.4,38.81l-4.62,3.8c-6.54-15-12.94-30.05-19.58-45C1131,423.85,1137.9,420,1144.77,416.09Z"/><path class="cls-3" d="M1661.44,490q13.63-11.86,27.39-23.58c13.49,13.77,26.93,27.59,40.13,41.65-12.29-14-24.81-27.77-37.39-41.49q33.86-25.42,67.77-50.75c5.84,3.77,11.63,7.61,17.44,11.42q-2.12,6.87-4.29,13.71c-5.69-3.16-11.38-6.34-17.1-9.46h-1.73c9.57,8,100.57,114.34,110,122.43-10.76,7-103-84.33-113.77-77.3-8.45-8.33-17-16.56-25.53-24.8l-2.54,0c12.17,14.44,24.39,28.82,36.21,43.55q-14.27-15.63-28.9-30.93L1714,460.64c66.36,70.24,87.13,96.58,63.34,70-19.23,3.27-38.49,6.4-57.73,9.67-14.55-14.44-29.4-28.59-44.36-42.61q13,14.2,25.77,28.61Q1681.35,508,1661.44,490Z"/><path class="cls-3" d="M1689,466.6c11.93,12.42,28.75,29.17,39.14,40.8s12.14,16,20.86,26.42c-3.5.09-6.41.7-9.67,1q-24.58-29.82-50.27-58.7l-3,2.17c12.88,14.19,25.65,28.48,38.12,43-6.16,1.78-12.32,3.6-18.47,5.41q-19.32-20.82-39-41.32C1674.19,479.15,1681.23,472.56,1689,466.6Z"/><path class="cls-3" d="M1759.34,415.86c5.84,3.77,11.63,7.61,17.44,11.42q-1.12,3.66-2.27,7.3-8.6-7.32-17.23-14.59l-.81,1.15q8.28,9.12,16.51,18.3c-.16.52-.32,1-.49,1.55-8.7-5.2-17.41-10.37-26.19-15.44Q1752.83,420.71,1759.34,415.86Z"/><path class="cls-3" d="M1744,427.34q14.82,16.89,29.37,34c-4.84,3.15-9.68,6.28-14.52,9.44Q1746,455.94,1733,441.31l-2.08,0c7.73,10.86,15.49,21.71,23.1,32.67l-4,2.64c-10.18-10.34-20.51-20.53-30.77-30.78Q1731.58,436.57,1744,427.34Z"/><path class="cls-5" d="M671.34,457.75l-4.13.35L607.6,482.71l-2.55-.45-75.89-88-1.52-.39-20.06-26.51-3.12,1.75L472,417.3h-2.49l-52.41,67.25-8.15-5.35-5.79-7.87-2.12.21-32.37-24.11-6.55,2.92-22.79,14.22-33.48-22.66-3.44-1.2-36.26-29.16L139.32,482.21l-3.68,0L90.87,498.72v82.39l649.74.16,2.27-70.89ZM368.65,481l-4.19-2.15L391,486.15Z"/><polygon class="cls-3" points="507.57 367.39 530.5 406.46 511.22 377.37 506.05 378.92 528.61 421.95 514.14 397.51 501.75 415.06 504.33 440.19 501.75 441.23 496.07 429.87 493.07 431.24 503 466.15 454.35 506.46 420.09 480.93 469.47 417.3 486.6 455.51 471.96 417.3 504.45 369.14 507.57 367.39"/><polygon class="cls-3" points="575.28 470.64 530.5 406.46 553.92 441.57 552.89 442.95 565.29 465.02 575.28 470.64"/><polygon class="cls-3" points="266.11 411.55 287.05 438.55 266.11 416.44 263.29 417.3 276.54 432.96 266.38 425.05 252.27 435.03 269.66 466.59 259.15 451.21 257.09 451.38 265.18 462.58 241.59 482.18 214.39 447.42 211.39 449.49 227.03 470.64 177.34 461.02 266.11 411.55"/><polygon class="cls-3" points="671.34 457.75 681.79 468.08 673.87 462.92 671.34 462.23 685.46 485.29 671.34 489.08 650.91 468.65 649.04 468.88 652.17 472.38 646.89 467.5 643.17 468.02 655.5 485.06 635.3 485.98 625.89 474.96 667.21 458.1 671.34 457.75"/><polygon class="cls-4" points="469.47 417.3 494.25 473.4 469.47 493.94 456.81 440.88 464.88 497.74 460.85 501.08 447.69 445.19 469.47 417.3"/><polygon class="cls-3" points="504.45 369.14 506.05 378.92 528.61 421.95 514.14 397.51 501.75 415.06 494.25 393.38 504.33 440.19 501.75 441.23 496.07 429.87 486.09 396.36 504.45 369.14"/><polygon class="cls-4" points="246.79 422.31 269.66 466.59 259.15 451.21 246.79 434.43 257.09 451.38 265.18 462.58 253.59 472.21 233.67 436.24 250.76 474.56 246.21 478.34 225.86 433.98 246.79 422.31"/><polygon class="cls-6" points="1727.21 441.7 1613.84 505.64 1609.62 505.73 1511.22 482.06 1507.72 482.12 1465.31 457.26 1413.38 486.31 1411.11 486.6 1383.58 505.29 1381.72 504.67 1322.71 439.72 1320.86 439.96 1276.11 387.07 1271.48 387.07 1232.55 441.79 1228.53 445.26 1199.03 487.44 1134.24 478.93 1132.48 476.88 1000.46 440.15 996.77 441.51 958.66 493.25 923.8 507.24 894.84 510.72 893.38 585.36 1920.42 571.87 1920.47 521.17 1903.13 521.36 1727.21 441.7"/><polygon class="cls-7" points="1322.71 439.72 1327.1 445.9 1345.51 489.25 1323.36 469.36 1317.22 466.56 1316.22 469.34 1319.05 478.82 1314.47 469.36 1320.86 439.96 1322.71 439.72"/><path class="cls-3" d="M1318.87,579.77l-48.82-99.07,7.2-52.93,7,10.89-8.31-27.42,3.51,14.81L1271,397.46l5.09-8,1.76.48-1.74-2.84h-4.63l-38.93,54.72,2.46,5.69-6.48-2.22L1199,487.44l5-.78,20.14-23.83-2.08,6.52-77.82,112.72Zm-48.1-83.62,1.71.72,4.24,3.47-3,.05Zm-26.2,16.12-6.13.13-2-17.51,2.16,1Zm24.48-89-1.94-28,2,1.33,6.19,28.8Zm9.71,76.13-4.38-2.44-11.48-15.86,5.94,1.8Z"/><polygon class="cls-3" points="1286.32 442.8 1290.01 445.78 1305.69 483.81 1287.86 447.88 1286.32 442.8"/><polygon class="cls-3" points="1418.86 578.46 1345.51 489.25 1365.28 512.85 1360.34 511.09 1383.58 579.94 1418.86 578.46"/><path class="cls-3" d="M1412.46,486.56l36.27,91.73,49.75-.65-45.64-77.83,21-12.62,4.27,6.38-7.46-9.43,5,0,16.26,11.32-30.5-29.7,3-8.29Zm52.63-13L1469,475l5.33,6.92-2.88.05Zm-12.74,31.59.8-1.66,2.31,3.26-1.57.76Zm-9.44-20,3.48,2.13,8.17,10-2.15,0Z"/><polygon class="cls-3" points="1411.11 486.6 1422.83 533.27 1436.6 579.93 1383.58 505.29 1395.58 497.14 1404.26 515.54 1398.81 494.95 1411.11 486.6"/><polygon class="cls-3" points="1507.72 482.12 1615.26 575.29 1623.39 575.44 1511.22 482.06 1507.72 482.12"/><path class="cls-3" d="M1613.84,505.64l43.68,67.87,29.46,1.42-49.71-75.48,4.3-.79,59.48,76.09,48,.44-57.34-110.86,10.74-4.72,71,115.17,6.37.37L1714.9,464l2.44-1.62,14.83,12.35-5-33Zm33.28-14.4,1.89-1.44,8.25,9.23,6,15.88Z"/><polygon class="cls-3" points="1134.24 478.93 1156.36 501.78 1141.92 483.26 1145.41 483.79 1173.86 508.28 1199.03 487.44 1134.24 478.93"/><polygon class="cls-3" points="1095.6 580.5 1013.55 472.28 1090.97 580.41 1081.43 580.24 987.3 460.3 984.21 462.4 983.98 462.55 1063.59 583.12 1056.69 577.21 1047.39 569.25 1022.05 547.54 1011.45 538.46 1002.57 530.86 958.66 493.25 966.82 482.18 969.59 478.41 971.88 475.31 996.77 441.51 1000.45 440.15 1051.97 454.48 1086.05 492.32 1051.8 465.07 1020.55 456.57 1129.42 581.46 1095.6 580.5"/><polygon class="cls-3" points="1178.55 583.12 1086.05 492.32 1154.42 581.93 1178.55 583.12"/><polygon class="cls-3" points="1081.43 471.32 1086.35 473.03 1103.08 494.57 1081.43 471.32"/><polygon class="cls-8" points="1799.49 575.13 1785.43 560.49 1747.19 566.48 1743.44 572.61 1739.18 572.2 1731.64 567.04 1713.02 571.31 1700.4 572.97 1680.07 570.65 1676.89 566.69 1670.05 564.95 1654.93 571.28 1650.51 569.6 1633.35 571.73 1799.49 575.13"/><polygon class="cls-8" points="1569.3 577.18 1564.1 574.35 1555.79 574.55 1529.36 576.67 1569.3 577.18"/><polygon class="cls-3" points="1267.11 395.31 1238.84 434.88 1260.21 404.86 1260.63 406.85 1246.43 432.35 1262.9 481.11 1268.84 482.91 1270.05 480.7 1273.46 459.98 1266.67 433.7 1273.95 447.76 1277.01 429.22 1268.31 422.62 1267.11 395.31"/><polygon class="cls-3" points="1228.53 445.26 1235.01 447.48 1248.44 493.78 1233.88 461.24 1232.19 461.51 1271.56 579.74 1262.67 579.93 1228.53 445.26"/><polygon class="cls-3" points="1323.36 469.36 1344.72 488.54 1332.47 465.69 1322.33 444.33 1327.1 445.9 1322.71 439.72 1320.86 439.96 1315.75 465.4 1317.22 466.56 1323.36 469.36"/><polygon class="cls-3" points="1222.13 469.35 1260.35 579.97 1246.73 579.9 1215.21 485.32 1213.27 484.85 1244.57 579.97 1213.71 581.15 1207.21 492.24 1222.13 469.35"/><polygon class="cls-3" points="1474.76 486.95 1466 473.31 1469.9 474.71 1476.55 483.93 1481.69 484.19 1483.81 484.76 1462.31 465.55 1465.31 457.25 1440.53 471.07 1447.31 487.04 1438.49 472.26 1432.06 475.86 1494.71 578.03 1504.09 578.08 1453.75 499.57 1468.83 490.51 1455.65 473.47 1469.82 489.92 1474.76 486.95"/><polygon class="cls-3" points="1433.37 484.5 1413.37 486.32 1466 577.18 1430.77 485.39 1431.08 488.82 1444.68 515.12 1482.76 577.18 1433.37 484.5"/><polygon class="cls-3" points="1649.16 485.72 1649.01 489.81 1657.26 499.03 1692.31 572.71 1699.55 572.94 1660.11 483.52 1701.78 572.88 1707.74 572.74 1663.38 481.22 1717.05 574.47 1726.58 574.24 1663.39 477.7 1649.16 485.72"/><polygon class="cls-3" points="1635.33 493.56 1637.27 499.45 1687.91 574.36 1668.96 574.37 1625.33 500.86 1668.13 574.37 1661.44 574.33 1613.84 505.64 1635.33 493.56"/><polygon class="cls-3" points="1129.42 581.46 1007.83 442.2 1000.46 440.15 996.77 441.51 985.36 457.01 1081.43 580.24 1085.03 580.54 999.83 460.77 1011.69 474.48 1087.36 580.35 1090.97 580.42 1015.1 472.26 1095.6 580.5 1121 581.64 1017.58 455.96 1125.87 580.58 1129.42 581.46"/><polygon class="cls-9" points="1360.37 579.92 1305.69 483.81 1364.05 579.94 1360.37 579.92"/><polygon class="cls-9" points="1522.77 549.85 1540.16 570.12 1507.51 515.51 1522.77 549.85"/><polygon class="cls-3" points="1507.68 487.67 1503.51 497.96 1510.45 512.01 1506.13 499.9 1511 508 1509.07 489.48 1507.68 487.67"/><polygon class="cls-3" points="1301.35 487.2 1294.35 502.51 1301.23 498.97 1301.35 487.2"/><polygon class="cls-3" points="1097 481.47 1163.17 578.91 1202.7 585.18 1165.57 578.1 1202.74 582.59 1151.39 502.87 1097 481.47"/><polygon class="cls-3" points="1746.26 503.18 1774.41 502.56 1835.94 575.35 1819.72 575.41 1762.09 505.03 1759.39 504.86 1804.72 574.88 1787.25 574.15 1746.26 503.18"/><polygon class="cls-3" points="1727.21 441.7 1732.17 474.73 1727.17 470.56 1715.56 448.27 1713.22 449.6 1717.34 462.38 1714.9 464 1779.84 575.15 1706.54 453.59 1727.21 441.7"/><polygon class="cls-3" points="981.75 468.85 980.94 469.95 1047.39 569.25 1022.05 547.54 971.88 475.31 982.88 460.38 984.21 462.4 983.98 462.55 1063.59 583.12 1056.69 577.21 981.75 468.85"/><polygon class="cls-3" points="1011.45 538.46 1002.57 530.86 966.82 482.18 969.59 478.41 1011.45 538.46"/><polygon class="cls-3" points="954.17 495.05 1032.41 583.54 1002.14 583.54 943.11 500.31 939.48 500.94 994.35 585.36 939.29 511.54 931.3 504.36 954.17 495.05"/><polygon class="cls-3" points="790.83 472.38 830.6 514.52 850.84 539.92 841.09 541.12 790.83 482.18 787.73 484.37 825.61 527.75 806.65 533.18 768.06 491.52 790.83 472.38"/><polygon class="cls-10" points="833.69 441.81 724.77 506.8 720.69 506.92 624.74 483.54 621.31 483.62 579.48 458.5 528.42 488.42 526.18 488.72 499.04 508.01 497.19 507.38 437.7 441.04 435.85 441.29 390.31 386.79 385.64 386.79 346.98 443.46 342.95 447.06 313.6 490.83 247.5 482.38 245.67 480.26 108.98 442.5 105.17 443.94 66.45 498.37 30.29 513.28 0 521.22 0 595.52 908.71 571.58 929.13 519.6 833.69 441.81"/><polygon class="cls-7" points="437.7 441.04 442.17 447.38 460.99 491.82 438.66 471.52 432.49 468.67 431.52 471.53 434.45 481.26 429.76 471.56 435.85 441.29 437.7 441.04"/><path class="cls-3" d="M426.14,597.62,385.28,483.46l6.64-54.62,7.16,11.22-8.68-28.29,3.69,15.29-8.81-29.53,5-8.3,1.79.49,10.76,9.55-12.55-12.49h-4.67L347,443.46l2.55,5.87L343,447.06,313.6,490.83l5.1-.84,20.1-24.74-2,6.74-30.32,48.6Zm-40-98.25,1.74.74,4.3,3.53-3,.08ZM360,516.16l-6.18.18-2.2-18.05,2.2,1Zm23.63-91.94-2.28-28.91,2,1.38,6.56,29.75Zm10.64,78.45-4.42-2.48-11.74-16.26,6,1.81Z"/><polygon class="cls-3" points="401.22 444.32 404.96 447.38 421.11 486.46 402.83 449.55 401.22 444.32"/><polygon class="cls-3" points="554.46 588.28 460.99 491.82 480.92 515.87 475.98 514.1 504.56 589.39 554.46 588.28"/><path class="cls-3" d="M528.42,488.42l56.43,92.85,26.57,0h44.25L589,488.71l4.24,6.47-7.4-9.56h4.9l16,11.42L576.59,467l2.89-8.47Zm51.86-13.56,3.85,1.42,5.29,7-2.83.07ZM568,507.13l.78-1.7,2.31,3.31-1.55.78Zm-9.45-20.32L562,489l8.12,10.19-2.12.06Z"/><polygon class="cls-3" points="526.18 488.72 556.66 560.87 523.41 559.81 499.04 508.01 510.88 499.59 519.64 518.33 514.06 497.33 526.18 488.72"/><polygon class="cls-3" points="621.31 483.62 728.36 575.36 751.75 575.36 624.74 483.54 621.31 483.62"/><path class="cls-3" d="M724.77,506.8l50.93,68.56H799l-51.6-75,4.15-.82,60.08,74.56,52.92-1.39-64.88-108,10.29-4.8,65,113.17,6.08.33L821.94,464.28l2.33-1.64L838.48,475l-4.79-33.18Zm32.1-14.74,1.82-1.46,8,9.25,5.84,15.95Z"/><polygon class="cls-3" points="247.5 482.38 270.4 505.95 255.41 486.83 258.98 487.36 288.31 512.55 313.6 490.83 247.5 482.38"/><polygon class="cls-3" points="162.59 457.31 198.31 496.58 162.59 468.37 130.12 459.62 247.85 603.38 212.96 602.63 123.14 476.09 208.18 602.58 198.31 602.47 95.67 463.67 92.25 466.05 161.57 595.52 66.45 498.37 105.17 443.94 108.98 442.5 162.59 457.31"/><polygon class="cls-3" points="288.31 600.5 198.31 496.58 282.13 600.43 288.31 600.5"/><polygon class="cls-3" points="193.23 474.75 198.31 476.5 215.82 498.81 193.23 474.75"/><polygon class="cls-3" points="381.33 395.31 353.25 436.29 374.48 405.2 374.93 407.26 360.89 433.65 378.09 483.93 384.09 485.74 385.28 483.46 388.48 462.09 381.33 435 388.83 449.49 391.7 430.34 382.86 423.54 381.33 395.31"/><polygon class="cls-3" points="342.95 447.06 340.76 450.33 338.3 453.99 348.56 463.56 346.86 463.85 426.14 600.5 426.14 600.5 342.95 447.06"/><polygon class="cls-3" points="438.66 471.52 460.2 491.1 447.74 467.71 437.37 445.78 442.17 447.38 437.7 441.04 435.85 441.29 431 467.48 432.49 468.67 438.66 471.52"/><polygon class="cls-3" points="336.77 471.99 426.14 597.62 364.46 557.92 329.97 488.55 328 488.06 351.52 551.07 323.54 531.59 321.96 495.74 336.77 471.99"/><polygon class="cls-3" points="653.82 581.24 580.28 474.86 584.13 476.28 590.74 485.63 595.79 485.86 597.87 486.43 576.59 466.97 579.48 458.5 555.15 472.7 561.96 488.96 553.15 473.93 546.82 477.64 597.87 566 606.78 581.24 617.29 579.26 639.57 578.67 570.08 475.07 643.49 579.85 653.82 581.24"/><polygon class="cls-3" points="548.18 486.45 528.42 488.42 560.97 564.62 580.38 566.14 545.62 487.38 545.95 490.88 559.59 517.6 589.33 565.86 548.18 486.45"/><polygon class="cls-3" points="758.82 486.49 758.69 490.6 766.66 499.85 818.7 572.8 825.67 572.97 769.36 484.2 827.82 572.9 833.53 572.72 772.5 481.87 845.16 573.26 860.14 572.97 772.5 478.32 758.82 486.49"/><polygon class="cls-3" points="745.5 494.47 747.39 500.4 798.99 575.36 790.73 575.36 735.86 501.9 784.77 575.36 775.7 575.36 724.77 506.8 745.5 494.47"/><polygon class="cls-3" points="255.09 611.16 116.67 444.63 108.98 442.5 105.17 443.94 93.58 460.23 205.55 610.26 209.28 610.54 108.7 464.11 121.25 478.4 211.69 610.33 215.42 610.37 124.75 476.06 220.21 610.42 246.42 611.41 127.03 459 251.42 610.27 255.09 611.16"/><polygon class="cls-9" points="441.23 518 421.11 486.46 444.91 517.99 441.23 518"/><polygon class="cls-9" points="606.78 497.05 623.95 517.53 621.31 517.53 606.78 497.05"/><polygon class="cls-3" points="621.31 489.26 617.29 499.74 624.18 513.97 619.87 501.7 624.69 509.89 622.68 491.09 621.31 489.26"/><polygon class="cls-3" points="416.81 489.98 409.95 505.76 416.81 502.07 416.81 489.98"/><polygon class="cls-3" points="209.39 485.23 290.3 591.4 330.78 597.62 292.75 590.55 330.78 594.94 265.36 507.11 209.39 485.23"/><polygon class="cls-3" points="833.69 441.81 878.77 502.65 973.5 585.36 946.66 584.66 867.05 505.2 864.48 505.05 920.75 585.36 901.08 585.36 833.69 441.81"/><polygon class="cls-3" points="833.69 441.81 838.48 474.99 833.69 470.82 822.54 448.46 820.3 449.8 824.27 462.64 821.94 464.28 853.16 518.19 813.91 453.85 833.69 441.81"/><polygon class="cls-3" points="91.06 463.77 169.77 610.84 167.69 610.84 90.04 472.66 89.22 473.82 160.25 593.06 160.25 593.06 79.89 479.48 91.06 463.77"/><polygon class="cls-3" points="77.56 482.75 90.47 507.43 89.06 506.89 74.74 486.71 77.56 482.75"/><polygon class="cls-3" points="61.8 500.29 133.1 585.06 63.91 517.88 50.35 505.88 46.58 506.57 101 575.86 46.58 517.68 38.08 510.21 61.8 500.29"/></g></g></svg>