<svg id="road" xmlns="http://www.w3.org/2000/svg" viewBox="0 0 1919.86 821.2"><defs><style>.cls-1{fill:#eb9d14;}.cls-2{fill:#c27f10;}.cls-3{fill:#1e3307;}.cls-4{fill:#3e7a0f;}.cls-5{fill:#ccc;}.cls-6{fill:#ebebeb;}</style></defs><path class="cls-1" d="M812.9,593.25a26.88,26.88,0,1,0,26.88,26.88A26.89,26.89,0,0,0,812.9,593.25Zm0,49.47a22.59,22.59,0,1,1,22.58-22.59A22.59,22.59,0,0,1,812.9,642.72Z"/><path class="cls-2" d="M835.44,618.85c0,.42,0,.85,0,1.28a22.59,22.59,0,1,1-45.17,0c0-.43,0-.86,0-1.28a26.54,26.54,0,0,1-3.14-6.68,26.89,26.89,0,1,0,51.37,0A26.54,26.54,0,0,1,835.44,618.85Z"/><path class="cls-3" d="M812.9,596.48a23.66,23.66,0,1,0,23.65,23.65A23.65,23.65,0,0,0,812.9,596.48Zm9.3,6.14h0l.07-.09c.6-.6,2.93.76,5.2,3s3.63,4.6,3,5.2l-.11.08h0l-16.09,7.89,7.88-16.06S822.19,602.64,822.2,602.62Zm-9.3-3.1c3.21,0,5.81.69,5.81,1.54a.3.3,0,0,1,0,.13h0l-5.79,16.95-5.79-16.92,0-.05h0a.41.41,0,0,1,0-.11C807.08,600.21,809.68,599.52,812.9,599.52Zm-14.58,6c2.27-2.27,4.6-3.63,5.2-3l.07.09h0s0,0,0,0l7.88,16.06-16.09-7.89h0l-.11-.08C794.7,610.16,796.05,607.83,798.32,605.56ZM793.82,626c-.85,0-1.53-2.6-1.53-5.82s.68-5.81,1.53-5.81h.11l.05,0,16.93,5.78-17,5.8h0Zm9.78,11.67a.31.31,0,0,1-.08.11c-.6.6-2.93-.75-5.2-3s-3.62-4.6-3-5.2l.09-.07h0l0,0,16.06-7.87-7.89,16.09Zm9.3,3.12c-3.22,0-5.82-.69-5.82-1.53a.37.37,0,0,1,0-.11h0s0,0,0-.05l5.79-16.92,5.79,17h0a.34.34,0,0,1,0,.14C818.71,640.05,816.11,640.74,812.9,640.74Zm14.57-6c-2.27,2.27-4.6,3.62-5.2,3a.31.31,0,0,1-.08-.11h0l-7.89-16.09,16.06,7.87,0,0h0l.09.07C831.1,630.11,829.74,632.43,827.47,634.71ZM832,626l-.13,0h0l-17-5.8,16.92-5.78.05,0H832c.85,0,1.53,2.6,1.53,5.81S832.82,626,832,626Z"/><path class="cls-4" d="M812.9,595.11a25,25,0,1,0,25,25A25,25,0,0,0,812.9,595.11Zm9.84,6.5h0a.86.86,0,0,1,.07-.1c.64-.63,3.1.8,5.5,3.21s3.84,4.86,3.21,5.5l-.12.08h0l-17,8.34,8.34-17A.08.08,0,0,1,822.74,601.61Zm-9.84-3.28c3.39,0,6.15.73,6.15,1.62a.59.59,0,0,1,0,.14h0L812.9,618l-6.12-17.9a.14.14,0,0,1,0-.06h0a.5.5,0,0,1,0-.12C806.74,599.06,809.5,598.33,812.9,598.33Zm-15.42,6.39c2.4-2.41,4.86-3.84,5.5-3.21a.36.36,0,0,1,.07.1h0l0,0,8.33,17-17-8.34h0l-.12-.08C793.64,609.58,795.08,607.12,797.48,604.72Zm-4.76,21.57c-.9,0-1.63-2.76-1.63-6.16s.73-6.15,1.63-6.15h.17l17.9,6.12-17.93,6.13h0Zm10.34,12.35a.44.44,0,0,1-.08.11c-.64.64-3.1-.8-5.5-3.2s-3.84-4.87-3.21-5.5l.1-.07h0l0,0,17-8.33-8.35,17Zm9.84,3.3c-3.4,0-6.16-.73-6.16-1.63a.5.5,0,0,1,0-.12h0s0,0,0-.05l6.12-17.9L819,640.17h0a.78.78,0,0,1,0,.14C819.05,641.21,816.29,641.94,812.9,641.94Zm15.41-6.39c-2.4,2.4-4.86,3.84-5.5,3.2a.44.44,0,0,1-.08-.11h0l-8.35-17,17,8.33,0,0h0l.1.07C832.15,630.68,830.72,633.15,828.31,635.55Zm4.77-9.26a.32.32,0,0,1-.14,0h0L815,620.13,832.9,614h.18c.89,0,1.62,2.75,1.62,6.15S834,626.29,833.08,626.29Z"/><circle class="cls-3" cx="812.9" cy="620.13" r="6.21" transform="translate(22.59 1268.81) rotate(-76.72)"/><circle class="cls-4" cx="812.9" cy="620.13" r="5.43"/><circle class="cls-5" cx="812.9" cy="620.13" r="4.12" transform="translate(22.59 1268.81) rotate(-76.72)"/><path class="cls-6" d="M812.9,619.28a4.13,4.13,0,0,1,3.78,2.49,4.08,4.08,0,0,0,.34-1.64,4.13,4.13,0,0,0-8.25,0,4.08,4.08,0,0,0,.34,1.64A4.13,4.13,0,0,1,812.9,619.28Z"/></svg>