<svg id="road" xmlns="http://www.w3.org/2000/svg" viewBox="0 0 1919.86 821.2"><defs><style>.cls-1{fill:#eb9d14;}.cls-2{fill:#c27f10;}.cls-3{fill:#1e3307;}.cls-4{fill:#3e7a0f;}.cls-5{fill:#ccc;}.cls-6{fill:#ebebeb;}</style></defs><path class="cls-1" d="M868.76,593.25a26.88,26.88,0,1,0,26.89,26.88A26.89,26.89,0,0,0,868.76,593.25Zm0,49.47a22.59,22.59,0,1,1,22.59-22.59A22.58,22.58,0,0,1,868.76,642.72Z"/><path class="cls-2" d="M891.31,618.85c0,.42,0,.85,0,1.28a22.59,22.59,0,1,1-45.17,0c0-.43,0-.86,0-1.28a26.54,26.54,0,0,1-3.14-6.68,26.89,26.89,0,1,0,51.37,0A26.54,26.54,0,0,1,891.31,618.85Z"/><path class="cls-3" d="M868.76,596.48a23.66,23.66,0,1,0,23.66,23.65A23.65,23.65,0,0,0,868.76,596.48Zm9.31,6.14h0l.07-.09c.6-.6,2.93.76,5.2,3s3.62,4.6,3,5.2l-.11.08h0l-16.09,7.89,7.88-16.06S878.06,602.64,878.07,602.62Zm-9.31-3.1c3.22,0,5.82.69,5.82,1.54a.59.59,0,0,1,0,.13h0l-5.8,16.95L863,601.22l0-.05h0a.41.41,0,0,1,0-.11C863,600.21,865.55,599.52,868.76,599.52Zm-14.57,6c2.27-2.27,4.6-3.63,5.2-3l.07.09h0s0,0,0,0l7.88,16.06-16.09-7.89h0l-.11-.08C850.56,610.16,851.92,607.83,854.19,605.56ZM849.69,626c-.85,0-1.54-2.6-1.54-5.82s.69-5.81,1.54-5.81h.11l.05,0,16.92,5.78-16.95,5.8h0Zm9.78,11.67a.31.31,0,0,1-.08.11c-.6.6-2.93-.75-5.2-3s-3.63-4.6-3-5.2l.09-.07h0l0,0,16.06-7.87-7.89,16.09Zm9.29,3.12c-3.21,0-5.81-.69-5.81-1.53a.37.37,0,0,1,0-.11h0s0,0,0-.05l5.78-16.92,5.8,17h0a.68.68,0,0,1,0,.14C874.58,640.05,872,640.74,868.76,640.74Zm14.58-6c-2.27,2.27-4.6,3.62-5.2,3a.31.31,0,0,1-.08-.11h0l-7.89-16.09,16.06,7.87,0,0h0l.09.07C887,630.11,885.61,632.43,883.34,634.71Zm4.5-8.76-.13,0h0l-17-5.8,16.93-5.78.05,0h.11c.85,0,1.53,2.6,1.53,5.81S888.69,626,887.84,626Z"/><path class="cls-4" d="M868.76,595.11a25,25,0,1,0,25,25A25,25,0,0,0,868.76,595.11Zm9.85,6.5h0a.36.36,0,0,1,.07-.1c.64-.63,3.1.8,5.5,3.21s3.84,4.86,3.21,5.5l-.12.08h0l-17,8.34,8.33-17Zm-9.85-3.28c3.4,0,6.16.73,6.16,1.62a.59.59,0,0,1,0,.14h0L868.76,618l-6.11-17.9a.14.14,0,0,1,0-.06h0a.5.5,0,0,1,0-.12C862.61,599.06,865.37,598.33,868.76,598.33Zm-15.41,6.39c2.4-2.41,4.86-3.84,5.5-3.21a.86.86,0,0,1,.07.1h0a.08.08,0,0,1,0,0l8.34,17-17-8.34h0l-.12-.08C849.51,609.58,850.94,607.12,853.35,604.72Zm-4.77,21.57c-.89,0-1.62-2.76-1.62-6.16s.73-6.15,1.62-6.15h.18l17.9,6.12-17.94,6.13h0A.32.32,0,0,1,848.58,626.29Zm10.35,12.35a.44.44,0,0,1-.08.11c-.64.64-3.1-.8-5.5-3.2s-3.84-4.87-3.21-5.5l.1-.07h0l0,0,17-8.33-8.35,17Zm9.83,3.3c-3.39,0-6.15-.73-6.15-1.63a.5.5,0,0,1,0-.12h0s0,0,0-.05l6.11-17.9,6.14,17.93h0a.78.78,0,0,1,0,.14C874.92,641.21,872.16,641.94,868.76,641.94Zm15.42-6.39c-2.4,2.4-4.86,3.84-5.5,3.2a.44.44,0,0,1-.08-.11h0l-8.35-17,17,8.33,0,0h0l.1.07C888,630.68,886.58,633.15,884.18,635.55Zm4.76-9.26-.14,0h0l-17.93-6.13,17.9-6.12h.17c.9,0,1.63,2.75,1.63,6.15S889.84,626.29,888.94,626.29Z"/><circle class="cls-3" cx="868.76" cy="620.13" r="6.21" transform="translate(117.48 1378.34) rotate(-80.78)"/><circle class="cls-4" cx="868.76" cy="620.13" r="5.43"/><circle class="cls-5" cx="868.76" cy="620.13" r="4.12" transform="translate(-171.18 379.67) rotate(-22.5)"/><path class="cls-6" d="M868.76,619.28a4.13,4.13,0,0,1,3.79,2.49,4.08,4.08,0,0,0,.34-1.64,4.13,4.13,0,0,0-8.25,0,4.08,4.08,0,0,0,.34,1.64A4.13,4.13,0,0,1,868.76,619.28Z"/></svg>