<svg id="road" xmlns="http://www.w3.org/2000/svg" viewBox="0 0 1919.86 821.2"><defs><style>.cls-1{fill:#eb9d14;}.cls-2{fill:#c27f10;}.cls-3{fill:#1e3307;}.cls-4{fill:#3e7a0f;}.cls-5{fill:#ccc;}.cls-6{fill:#ebebeb;}</style></defs><path class="cls-1" d="M925.46,593.25a26.88,26.88,0,1,0,26.88,26.88A26.88,26.88,0,0,0,925.46,593.25Zm0,49.47a22.59,22.59,0,1,1,22.59-22.59A22.58,22.58,0,0,1,925.46,642.72Z"/><path class="cls-2" d="M948,618.85c0,.42,0,.85,0,1.28a22.59,22.59,0,1,1-45.17,0c0-.43,0-.86,0-1.28a26.86,26.86,0,0,1-3.13-6.68,26.88,26.88,0,1,0,51.36,0A26.86,26.86,0,0,1,948,618.85Z"/><path class="cls-3" d="M925.46,596.48a23.66,23.66,0,1,0,23.65,23.65A23.65,23.65,0,0,0,925.46,596.48Zm9.31,6.14h0l.07-.09c.59-.6,2.92.76,5.19,3s3.63,4.6,3,5.2l-.11.08h0l-16.08,7.89,7.87-16.06Zm-9.31-3.1c3.21,0,5.82.69,5.82,1.54a.59.59,0,0,1,0,.13h0l-5.8,16.95-5.78-16.92s0,0,0-.05h0a.43.43,0,0,1,0-.11C919.64,600.21,922.25,599.52,925.46,599.52Zm-14.57,6c2.27-2.27,4.6-3.63,5.2-3a.47.47,0,0,1,.06.09h0s0,0,0,0l7.87,16.06L908,610.84h0l-.11-.08C907.26,610.16,908.62,607.83,910.89,605.56ZM906.39,626c-.85,0-1.54-2.6-1.54-5.82s.69-5.81,1.54-5.81h.11l0,0,16.92,5.78-17,5.8h0Zm9.77,11.67a.3.3,0,0,1-.07.11c-.6.6-2.93-.75-5.2-3s-3.63-4.6-3-5.2l.09-.07h0l0,0,16-7.87-7.89,16.09Zm9.3,3.12c-3.21,0-5.82-.69-5.82-1.53a.36.36,0,0,1,0-.11h0l0-.05,5.78-16.92,5.8,17h0a.68.68,0,0,1,0,.14C931.28,640.05,928.67,640.74,925.46,640.74Zm14.57-6c-2.27,2.27-4.6,3.62-5.19,3a.23.23,0,0,1-.08-.11h0l-7.89-16.09,16,7.87.05,0h0a.22.22,0,0,1,.09.07C943.66,630.11,942.31,632.43,940,634.71Zm4.51-8.76-.14,0h0l-16.95-5.8,16.92-5.78,0,0h.12c.84,0,1.53,2.6,1.53,5.81S945.38,626,944.54,626Z"/><path class="cls-4" d="M925.46,595.11a25,25,0,1,0,25,25A25,25,0,0,0,925.46,595.11Zm9.85,6.5h0a.36.36,0,0,1,.07-.1c.63-.63,3.09.8,5.5,3.21s3.84,4.86,3.2,5.5l-.11.08h0l-17,8.34,8.33-17Zm-9.85-3.28c3.4,0,6.15.73,6.15,1.62a.32.32,0,0,1,0,.14h0L925.46,618l-6.12-17.9,0-.06h0a.49.49,0,0,1,0-.12C919.31,599.06,922.06,598.33,925.46,598.33ZM910,604.72c2.41-2.41,4.87-3.84,5.5-3.21a.39.39,0,0,1,.08.1h0s0,0,0,0l8.33,17-17-8.34h0a.36.36,0,0,1-.12-.08C906.21,609.58,907.64,607.12,910,604.72Zm-4.76,21.57c-.9,0-1.62-2.76-1.62-6.16s.72-6.15,1.62-6.15h.17l17.91,6.12-17.94,6.13h0A.32.32,0,0,1,905.28,626.29Zm10.35,12.35a.48.48,0,0,1-.09.11c-.63.64-3.09-.8-5.5-3.2s-3.83-4.87-3.2-5.5l.09-.07h0l0,0,17-8.33-8.34,17Zm9.83,3.3c-3.4,0-6.15-.73-6.15-1.63a.49.49,0,0,1,0-.12h0l0-.05,6.12-17.9,6.13,17.93h0a.36.36,0,0,1,0,.14C931.61,641.21,928.86,641.94,925.46,641.94Zm15.42-6.39c-2.41,2.4-4.87,3.84-5.5,3.2a.28.28,0,0,1-.08-.11h0l-8.35-17,17,8.33.05,0h0l.09.07C944.72,630.68,943.28,633.15,940.88,635.55Zm4.76-9.26a.35.35,0,0,1-.14,0h0l-17.93-6.13,17.9-6.12h.17c.9,0,1.62,2.75,1.62,6.15S946.54,626.29,945.64,626.29Z"/><circle class="cls-3" cx="925.46" cy="620.13" r="6.21" transform="translate(165.09 1434.31) rotate(-80.78)"/><circle class="cls-4" cx="925.46" cy="620.13" r="5.43"/><circle class="cls-5" cx="925.46" cy="620.13" r="4.12" transform="translate(-166.87 401.36) rotate(-22.5)"/><path class="cls-6" d="M925.46,619.28a4.12,4.12,0,0,1,3.78,2.49,4.08,4.08,0,0,0,.34-1.64,4.12,4.12,0,1,0-8.24,0,4.08,4.08,0,0,0,.34,1.64A4.13,4.13,0,0,1,925.46,619.28Z"/></svg>