<svg id="road" xmlns="http://www.w3.org/2000/svg" viewBox="0 0 1919.86 821.2"><defs><style>.cls-1{fill:#eb9d14;}.cls-2{fill:#c27f10;}.cls-3{fill:#1e3307;}.cls-4{fill:#3e7a0f;}.cls-5{fill:#ccc;}.cls-6{fill:#ebebeb;}</style></defs><path class="cls-1" d="M1012.46,612.63a17,17,0,1,0,17,17A17,17,0,0,0,1012.46,612.63Zm0,31.22a14.26,14.26,0,1,1,14.25-14.26A14.26,14.26,0,0,1,1012.46,643.85Z"/><path class="cls-2" d="M1026.69,628.78c0,.27,0,.54,0,.81a14.25,14.25,0,1,1-28.5,0c0-.27,0-.54,0-.81a17.09,17.09,0,0,1-2-4.21,17,17,0,1,0,32.42,0A17.09,17.09,0,0,1,1026.69,628.78Z"/><path class="cls-3" d="M1012.46,614.67a14.93,14.93,0,1,0,14.93,14.92A14.92,14.92,0,0,0,1012.46,614.67Zm5.87,3.87h0l0,0c.38-.38,1.84.47,3.28,1.91s2.29,2.9,1.91,3.28l-.07.05h0l-10.15,5,5-10.14S1018.33,618.55,1018.33,618.54Zm-5.87-1.95c2,0,3.67.43,3.67,1a.25.25,0,0,1,0,.08h0l-3.66,10.7-3.65-10.68v0h0a.2.2,0,0,1,0-.07C1008.79,617,1010.43,616.59,1012.46,616.59Zm-9.19,3.81c1.43-1.44,2.9-2.29,3.28-1.91l0,0h0s0,0,0,0l5,10.14-10.15-5h0l-.07-.05C1001,623.3,1001.83,621.83,1003.27,620.4Zm-2.85,12.86c-.53,0-1-1.64-1-3.67s.43-3.67,1-3.67h.11l10.68,3.65-10.7,3.66h-.09Zm6.17,7.37a.16.16,0,0,1,0,.07c-.38.38-1.85-.48-3.28-1.91s-2.29-2.9-1.92-3.28l.06,0h0l0,0,10.13-5-5,10.15Zm5.87,2c-2,0-3.67-.43-3.67-1a.17.17,0,0,1,0-.07h0v0l3.65-10.68,3.66,10.7h0a.19.19,0,0,1,0,.08C1016.13,642.17,1014.49,642.6,1012.46,642.6Zm9.2-3.81c-1.44,1.43-2.9,2.29-3.28,1.91a.18.18,0,0,1,0-.07h0l-5-10.15,10.13,5,0,0h0l.06,0C1024,635.89,1023.09,637.36,1021.66,638.79Zm2.84-5.53h-.09l-10.69-3.66,10.68-3.65h.1c.53,0,1,1.65,1,3.67S1025,633.26,1024.5,633.26Z"/><path class="cls-4" d="M1012.46,613.8a15.79,15.79,0,1,0,15.79,15.79A15.79,15.79,0,0,0,1012.46,613.8Zm6.21,4.1h0l.05-.06c.4-.4,1.95.51,3.47,2s2.42,3.08,2,3.48l-.07,0h0l-10.74,5.26,5.26-10.71S1018.67,617.91,1018.67,617.9Zm-6.21-2.06c2.15,0,3.88.45,3.88,1a.28.28,0,0,1,0,.09h0l-3.87,11.32L1008.6,617v0h0a.17.17,0,0,1,0-.07C1008.58,616.29,1010.32,615.84,1012.46,615.84Zm-9.73,4c1.52-1.51,3.07-2.42,3.47-2l0,.06h0s0,0,0,0l5.26,10.71-10.74-5.26h0l-.07,0C1000.31,622.94,1001.22,621.38,1002.73,619.86Zm-3,13.62c-.57,0-1-1.74-1-3.89s.46-3.88,1-3.88h.11l11.29,3.86-11.31,3.87h0Zm6.53,7.79-.06.07c-.4.4-2-.5-3.47-2s-2.42-3.07-2-3.47l.06,0h0l0,0,10.72-5.26-5.26,10.74Zm6.2,2.08c-2.14,0-3.88-.46-3.88-1a.22.22,0,0,1,0-.08h0v0l3.86-11.3,3.87,11.32h0a.28.28,0,0,1,0,.09C1016.34,642.89,1014.61,643.35,1012.46,643.35Zm9.73-4c-1.52,1.52-3.07,2.42-3.47,2a.18.18,0,0,1-.05-.07h0l-5.27-10.74,10.72,5.26,0,0h0l.06,0C1024.61,636.25,1023.71,637.81,1022.19,639.32Zm3-5.84-.09,0h0l-11.32-3.87,11.3-3.86h.11c.56,0,1,1.74,1,3.88S1025.76,633.48,1025.2,633.48Z"/><circle class="cls-3" cx="1012.46" cy="629.59" r="7.06"/><circle class="cls-4" cx="1012.46" cy="629.59" r="6.17" transform="translate(228.82 1528.13) rotate(-80.78)"/><circle class="cls-5" cx="1012.46" cy="629.59" r="4.68"/><path class="cls-6" d="M1012.46,628.63a4.68,4.68,0,0,1,4.3,2.82,4.62,4.62,0,0,0,.38-1.86,4.68,4.68,0,1,0-9.36,0,4.79,4.79,0,0,0,.38,1.86A4.69,4.69,0,0,1,1012.46,628.63Z"/></svg>