<svg id="road" xmlns="http://www.w3.org/2000/svg" xmlns:xlink="http://www.w3.org/1999/xlink" viewBox="0 0 1919.86 821.2"><defs><style>.cls-1{fill:#acacac;}.cls-2{fill:#777;}.cls-3{fill:#3a3a3a;}.cls-4{fill:#686868;}.cls-14,.cls-5{fill:#fff;}.cls-5{opacity:0.36;}.cls-6{opacity:0.33;}.cls-7{fill:#707070;}.cls-8{fill:#424242;}.cls-9{fill:#f7c578;}.cls-10{fill:#eb9d14;}.cls-11{fill:#3e7a0f;}.cls-12{opacity:0.28;}.cls-13{fill:#5faf19;}.cls-14{opacity:0.18;}.cls-15{fill:#ba7b13;}.cls-16{fill:#8f5d10;}.cls-17{fill:#ffbd61;}.cls-18{fill:url(#linear-gradient);}.cls-19{opacity:0.1;}</style><linearGradient id="linear-gradient" x1="6275.58" y1="613.12" x2="6275.58" y2="617.45" gradientTransform="translate(-5285.7)" gradientUnits="userSpaceOnUse"><stop offset="0" stop-color="#8f5d10"/><stop offset="1" stop-color="#ffbd61"/></linearGradient></defs><rect class="cls-1" x="630.77" y="627.68" width="50.22" height="4.1" rx="2.05"/><rect class="cls-2" x="630.77" y="628" width="50.22" height="4.1" rx="2.05"/><path class="cls-3" d="M676.52,630.05a1.27,1.27,0,1,0,1.27-1.26A1.26,1.26,0,0,0,676.52,630.05Z"/><path class="cls-3" d="M632.83,630.05a1.27,1.27,0,1,0,1.27-1.26A1.26,1.26,0,0,0,632.83,630.05Z"/><rect class="cls-1" x="482.37" y="627.68" width="50.22" height="4.1" rx="2.05"/><rect class="cls-2" x="482.37" y="628" width="50.22" height="4.1" rx="2.05"/><path class="cls-3" d="M528.12,630.05a1.27,1.27,0,1,0,1.27-1.26A1.26,1.26,0,0,0,528.12,630.05Z"/><path class="cls-3" d="M484.43,630.05a1.27,1.27,0,1,0,1.27-1.26A1.26,1.26,0,0,0,484.43,630.05Z"/><path class="cls-4" d="M982.33,611.28v5.28H954.15a4.3,4.3,0,0,1-2.54-.77,2.35,2.35,0,0,1-1.05-1.87c0-1.46,1.61-2.64,3.59-2.64Z"/><path class="cls-5" d="M954.15,611.28c-2,0-3.59,1.18-3.59,2.64a2.22,2.22,0,0,0,0,.37c.25-1.28,1.75-2.27,3.56-2.27h28.18v-.74Z"/><path class="cls-6" d="M951.61,614.5a2.57,2.57,0,0,1-.94-1.22,2,2,0,0,0-.11.64,2.35,2.35,0,0,0,1.05,1.87,4.3,4.3,0,0,0,2.54.77h28.18v-1.29H954.15A4.3,4.3,0,0,1,951.61,614.5Z"/><path class="cls-4" d="M953.65,617.65a4.85,4.85,0,0,1-.63-.16A4.85,4.85,0,0,0,953.65,617.65Z"/><path class="cls-4" d="M929.73,607l5.24,1.87,18,6.42a2.39,2.39,0,1,0,3.39-3.1,3.41,3.41,0,0,0-1-.56L950.93,610l-13-4.65-6.94-2.47a3.53,3.53,0,0,0-1.2-.21H928v4.08h.56A3.54,3.54,0,0,1,929.73,607Z"/><path class="cls-4" d="M954.31,617.69l-.47,0Z"/><polygon class="cls-4" points="950.45 616.58 953.02 617.49 934.97 611.06 950.45 616.58"/><path class="cls-4" d="M955.69,617.38a4.76,4.76,0,0,1-.53.19A4.76,4.76,0,0,0,955.69,617.38Z"/><path class="cls-4" d="M956.84,616.56h0a3.47,3.47,0,0,1-.45.41A3.31,3.31,0,0,0,956.84,616.56Z"/><path class="cls-4" d="M956.25,617.06l-.39.23Z"/><path class="cls-4" d="M955.11,617.59a3.2,3.2,0,0,1-.62.09A3.2,3.2,0,0,0,955.11,617.59Z"/><path class="cls-4" d="M957.29,616l-.13.17Z"/><polygon class="cls-4" points="950.96 609.13 937.91 604.48 930.97 602.01 937.91 604.48 950.96 609.13"/><path class="cls-5" d="M957.77,614.66a3.53,3.53,0,0,0,.05-.56,3.41,3.41,0,0,1-.05.55Z"/><path class="cls-5" d="M956.44,611.28a3.8,3.8,0,0,0-1-.56L951,609.13l4.47,1.59A3.8,3.8,0,0,1,956.44,611.28Z"/><path class="cls-4" d="M957.69,613.19c0,.07,0,.13,0,.2S957.7,613.26,957.69,613.19Z"/><path class="cls-5" d="M957.69,613.19c0,.07,0,.13,0,.2S957.7,613.26,957.69,613.19Z"/><path class="cls-4" d="M930.94,602.88l6.94,2.47,13,4.65,4.47,1.59a3.41,3.41,0,0,1,1,.56,3.58,3.58,0,0,1,1,1.3c.06-.13.13-.24.18-.38a.43.43,0,0,0,0-.05,3.53,3.53,0,0,0-1.18-1.74,3.8,3.8,0,0,0-1-.56L951,609.13l-13.05-4.65L931,602a3.53,3.53,0,0,0-1.2-.21H928v.87h1.78A3.53,3.53,0,0,1,930.94,602.88Z"/><path class="cls-5" d="M930.94,602.88l6.94,2.47,13,4.65,4.47,1.59a3.41,3.41,0,0,1,1,.56,3.58,3.58,0,0,1,1,1.3c.06-.13.13-.24.18-.38a.43.43,0,0,0,0-.05,3.53,3.53,0,0,0-1.18-1.74,3.8,3.8,0,0,0-1-.56L951,609.13l-13.05-4.65L931,602a3.53,3.53,0,0,0-1.2-.21H928v.87h1.78A3.53,3.53,0,0,1,930.94,602.88Z"/><path class="cls-6" d="M954.49,617.68h0Z"/><path class="cls-6" d="M955.16,617.57l0,0Z"/><path class="cls-6" d="M957.82,614.1a3.37,3.37,0,0,0-.09-.71A3.37,3.37,0,0,1,957.82,614.1Z"/><path class="cls-6" d="M953.84,617.67l-.19,0Z"/><path class="cls-6" d="M955.86,617.29l-.17.09Z"/><path class="cls-6" d="M957.64,613l0,0c0,.06,0,.11.07.17S957.66,613.05,957.64,613Z"/><path class="cls-6" d="M957.61,615.31a4.6,4.6,0,0,1-.32.67A4.6,4.6,0,0,0,957.61,615.31Z"/><path class="cls-6" d="M956.4,617l-.15.1Z"/><path class="cls-6" d="M957.16,616.15a3,3,0,0,1-.31.4A3,3,0,0,0,957.16,616.15Z"/><path class="cls-4" d="M953,615.25l-18-6.42L929.73,607a3.54,3.54,0,0,0-1.21-.21H928V609h.56a3.54,3.54,0,0,1,1.21.21l5.24,1.86,18,6.43a4.85,4.85,0,0,0,.63.16l.19,0,.47,0h.18a3.2,3.2,0,0,0,.62-.09l0,0a4.76,4.76,0,0,0,.53-.19l.17-.09.39-.23.15-.1a3.47,3.47,0,0,0,.45-.41,3,3,0,0,0,.31-.4l.13-.17a4.6,4.6,0,0,0,.32-.67,4,4,0,0,0,.16-.66,3.52,3.52,0,0,0-.34-1.2A3.58,3.58,0,0,1,953,615.25Z"/><path class="cls-6" d="M953,615.25l-18-6.42L929.73,607a3.54,3.54,0,0,0-1.21-.21H928V609h.56a3.54,3.54,0,0,1,1.21.21l5.24,1.86,18,6.43a4.85,4.85,0,0,0,.63.16l.19,0,.47,0h.18a3.2,3.2,0,0,0,.62-.09l0,0a4.76,4.76,0,0,0,.53-.19l.17-.09.39-.23.15-.1a3.47,3.47,0,0,0,.45-.41,3,3,0,0,0,.31-.4l.13-.17a4.6,4.6,0,0,0,.32-.67,4,4,0,0,0,.16-.66,3.52,3.52,0,0,0-.34-1.2A3.58,3.58,0,0,1,953,615.25Z"/><path class="cls-4" d="M957.69,613.19c0-.06-.05-.11-.07-.17a.43.43,0,0,1,0,.05c-.05.14-.12.25-.18.38a3.52,3.52,0,0,1,.34,1.2,3.41,3.41,0,0,0,.05-.55,3.37,3.37,0,0,0-.09-.71C957.72,613.32,957.7,613.26,957.69,613.19Z"/><path class="cls-5" d="M957.69,613.19c0-.06-.05-.11-.07-.17a.43.43,0,0,1,0,.05c-.05.14-.12.25-.18.38a3.52,3.52,0,0,1,.34,1.2,3.41,3.41,0,0,0,.05-.55,3.37,3.37,0,0,0-.09-.71C957.72,613.32,957.7,613.26,957.69,613.19Z"/><path class="cls-6" d="M957.69,613.19c0-.06-.05-.11-.07-.17a.43.43,0,0,1,0,.05c-.05.14-.12.25-.18.38a3.52,3.52,0,0,1,.34,1.2,3.41,3.41,0,0,0,.05-.55,3.37,3.37,0,0,0-.09-.71C957.72,613.32,957.7,613.26,957.69,613.19Z"/><circle class="cls-7" cx="954.49" cy="614.1" r="4.28"/><circle class="cls-8" cx="954.49" cy="614.1" r="3.14"/><circle class="cls-7" cx="954.49" cy="614.1" r="3.01" transform="translate(-162.35 412.01) rotate(-22.5)"/><circle class="cls-8" cx="954.49" cy="614.1" r="1.58"/><path class="cls-5" d="M954.49,614.1a4.29,4.29,0,0,1,3.71,2.14,4.28,4.28,0,1,0-8-2.14,4.2,4.2,0,0,0,.57,2.14A4.29,4.29,0,0,1,954.49,614.1Z"/><path class="cls-4" d="M929.23,609.06a3.34,3.34,0,0,0-.7-.08h-120a3.64,3.64,0,0,1-2.55-1,3.74,3.74,0,0,1-1-2.23c0-.1,0-.21,0-.31a3,3,0,0,1,0-.52,2,2,0,0,1,.14-.58v0a3.57,3.57,0,0,1,3.41-2.48H929.76C930.18,601.8,929.23,609.06,929.23,609.06Z"/><path class="cls-5" d="M929.73,602.68H808.5a3.57,3.57,0,0,0-3.22,2,3.52,3.52,0,0,0-.33,1c0-.1,0-.21,0-.31a3,3,0,0,1,0-.52,2,2,0,0,1,.14-.58v0a3.57,3.57,0,0,1,3.41-2.48H929.76Z"/><path class="cls-6" d="M929.75,607l-.52,2.1a3.34,3.34,0,0,0-.7-.08h-120a3.64,3.64,0,0,1-2.55-1,3.74,3.74,0,0,1-1-2.23c0-.1,0-.21,0-.31a3,3,0,0,1,0-.52,2,2,0,0,1,.14-.58c.06.13.1.28.16.4a3.91,3.91,0,0,0,.7,1,3.61,3.61,0,0,0,2.55,1h120a3.79,3.79,0,0,1,1.2.21Z"/><path class="cls-6" d="M826,605.28a7,7,0,0,1-1,3.71h-12a7.09,7.09,0,0,1-.14-7.19h12.32A7,7,0,0,1,826,605.28Z"/><circle class="cls-7" cx="818.96" cy="605.28" r="6.07" transform="translate(135.93 1360.61) rotate(-84.34)"/><circle class="cls-8" cx="818.96" cy="605.28" r="4.45" transform="translate(-169.29 359.48) rotate(-22.5)"/><circle class="cls-7" cx="818.96" cy="605.28" r="4.27" transform="translate(135.93 1360.61) rotate(-84.34)"/><circle class="cls-8" cx="818.96" cy="605.28" r="2.24"/><path class="cls-5" d="M819,605.28a6.06,6.06,0,0,1,5.25,3,6,6,0,0,0,.82-3,6.07,6.07,0,1,0-12.13,0,6,6,0,0,0,.81,3A6.07,6.07,0,0,1,819,605.28Z"/><path class="cls-6" d="M882.05,605.28A7,7,0,0,1,881,609H869a7.06,7.06,0,0,1-.15-7.19h12.33A7,7,0,0,1,882.05,605.28Z"/><circle class="cls-7" cx="874.97" cy="605.28" r="6.07" transform="matrix(0.16, -0.99, 0.99, 0.16, 137.36, 1372)"/><circle class="cls-8" cx="874.97" cy="605.28" r="4.45" transform="translate(-165.03 380.91) rotate(-22.5)"/><circle class="cls-7" cx="874.97" cy="605.28" r="4.27" transform="translate(137.36 1372) rotate(-80.78)"/><circle class="cls-8" cx="874.97" cy="605.28" r="2.24"/><path class="cls-5" d="M875,605.28a6.07,6.07,0,0,1,5.26,3,6.07,6.07,0,1,0-10.51,0A6.07,6.07,0,0,1,875,605.28Z"/><circle class="cls-7" cx="930.84" cy="605.28" r="6.07" transform="translate(184.28 1427.15) rotate(-80.78)"/><circle class="cls-8" cx="930.84" cy="605.28" r="4.45" transform="translate(127.89 1372.15) rotate(-76.72)"/><circle class="cls-7" cx="930.84" cy="605.28" r="4.27" transform="translate(184.28 1427.15) rotate(-80.78)"/><circle class="cls-8" cx="930.84" cy="605.28" r="2.24"/><path class="cls-5" d="M930.84,605.28a6.07,6.07,0,0,1,5.26,3,6.07,6.07,0,1,0-10.51,0A6.07,6.07,0,0,1,930.84,605.28Z"/><path class="cls-9" d="M963.37,599.19v-4.53a3.27,3.27,0,0,0-3.27-3.27h-2.27l.25,11.81h9.5v-4Z"/><path class="cls-10" d="M963.12,599.46v-4.53a3.27,3.27,0,0,0-3.27-3.27h-2v11.81h9.49v-4Z"/><path class="cls-11" d="M1017,605.88v5.85a4.93,4.93,0,0,1-4.75,4.9h-3.88v-2.69h2.23a3.62,3.62,0,0,0,1.6-.37,2.87,2.87,0,0,0,.48-.28,3.71,3.71,0,0,0,1.63-3.07v-2.55a3.71,3.71,0,0,0-3.71-3.71H993.7v-2.7h18.71A4.62,4.62,0,0,1,1017,605.88Z"/><path class="cls-12" d="M1012.36,615.28a11.67,11.67,0,0,1-.08,1.35h-3.88v-2.69h2.23a3.62,3.62,0,0,0,1.6-.37A11.64,11.64,0,0,1,1012.36,615.28Z"/><path class="cls-12" d="M995.89,602.34a6.73,6.73,0,0,1-.19,1.62h-2v-2.7h2.11A7.51,7.51,0,0,1,995.89,602.34Z"/><path class="cls-10" d="M995.4,602.34a5,5,0,0,1-.84,3,1.47,1.47,0,0,1-.43.37,1,1,0,0,1-.43.11,1.08,1.08,0,0,1-.8-.42,1.57,1.57,0,0,1-.24-.32,6.12,6.12,0,0,1,0-5.53,1.54,1.54,0,0,1,.21-.29,1.1,1.1,0,0,1,.83-.45,1,1,0,0,1,.43.11,1.45,1.45,0,0,1,.39.32A4.86,4.86,0,0,1,995.4,602.34Z"/><path class="cls-12" d="M994.63,602.61c0,1,0,1.92-.07,2.76a1.47,1.47,0,0,1-.43.37,1,1,0,0,1-.43.11,1.08,1.08,0,0,1-.8-.42c.05-.85.07-1.81.07-2.82,0-1.21,0-2.35-.1-3.32a1.1,1.1,0,0,1,.83-.45,1,1,0,0,1,.43.11,1.45,1.45,0,0,1,.39.32C994.59,600.25,994.63,601.39,994.63,602.61Z"/><path class="cls-10" d="M1011.83,615.28c0,2.48-.82,4.56-1.93,5.15a1.28,1.28,0,0,1-.65.18,2,2,0,0,1-1.59-1.13,9.38,9.38,0,0,1,0-8.39,2,2,0,0,1,1.59-1.13,1.37,1.37,0,0,1,.65.17C1011,610.73,1011.83,612.81,1011.83,615.28Z"/><path class="cls-12" d="M1010.09,615.28c0,1.91-.07,3.69-.19,5.15a1.28,1.28,0,0,1-.65.18,2,2,0,0,1-1.59-1.13c.08-1.26.12-2.69.12-4.2s0-2.94-.12-4.19a2,2,0,0,1,1.59-1.13,1.37,1.37,0,0,1,.65.17C1010,611.6,1010.09,613.37,1010.09,615.28Z"/><path class="cls-13" d="M974.57,615.28a42.55,42.55,0,0,1-.61,8.33c-.13.51-.27.79-.42.81h0c-.54,0-1-3.6-1-8.2v-1.87c0-1.22.06-2.37.12-3.4s.12-1.7.21-2.38c.18-1.5.43-2.42.7-2.42h0c.15,0,.29.3.42.8a20.82,20.82,0,0,1,.42,3.16l.06.84C974.52,612.24,974.57,613.71,974.57,615.28Z"/><path class="cls-11" d="M973.54,624.42h-2.29c-.59,0-1.06-4.09-1.06-9.14,0-1.57,0-3,.13-4.33.06-1,.13-1.79.23-2.5v-.29a.5.5,0,0,0,0-.12h0l0-.18v0l0-.18v0a.5.5,0,0,0,0-.12v0c0-.09,0-.17,0-.25l0-.1,0-.14h0c0-.06,0-.11.05-.16a.19.19,0,0,1,0-.08v-.07l0-.06,0,0v-.09l0-.05h0a.08.08,0,0,1,0,0h0l0-.06v0l0-.06h0l0,0h2.3l0,0h0l-.05.06v0l0,0,0,.06h0l0,0h0s0,0,0,.05v0l0,0v.07a.14.14,0,0,0,0,.06v0l0,0a.31.31,0,0,1,0,.08c0,.05,0,.1,0,.16h0s0,.09,0,.14a.44.44,0,0,1,0,.1c0,.08,0,.16,0,.25v0a.5.5,0,0,0,0,.12v0l0,.18v0l0,.18h0s0,.08,0,.12l0,.14v.27c-.09.68-.16,1.49-.22,2.38s-.1,2.18-.12,3.4v1.87C972.55,620.79,973,624.37,973.54,624.42Z"/><path class="cls-13" d="M1005.22,615.28c0,5.05.46,9.14,1,9.14s1-4.09,1-9.14-.47-9.13-1-9.13S1005.22,610.24,1005.22,615.28Z"/><path class="cls-11" d="M1007.29,615.28c0-5-.48-9.13-1.06-9.13h2.3c.59,0,1.06,4.09,1.06,9.13s-.47,9.14-1.06,9.14h-2.3C1006.81,624.42,1007.29,620.33,1007.29,615.28Z"/><path class="cls-14" d="M973.55,606.15h0l0,0h0l-.05.06v0l0,0,0,.06h0l0,0h0l0,.05v0l0,0v.07l0,.06v0l0,0a.31.31,0,0,1,0,.08c0,.05,0,.1,0,.16h0s0,.09,0,.14a.44.44,0,0,1,0,.1c0,.08,0,.16,0,.25v0a.5.5,0,0,0,0,.12v0l0,.18v0l0,.18h0s0,.08,0,.12l0,.14v.27h-2.31l0-.12v-.29a.5.5,0,0,0,0-.12h0l0-.18v0l0-.18v0a.5.5,0,0,0,0-.12v0c0-.09,0-.17,0-.25l0-.1,0-.14h0c0-.06,0-.11.05-.16a.19.19,0,0,1,0-.08v-.07l0-.06,0,0v-.09l0-.05h0a.08.08,0,0,1,0,0h0l0-.06v0l0-.06h0l0,0h2.34Z"/><path class="cls-14" d="M1008.53,606.15h-2.3c.27,0,.53.92.72,2.42h2.3C1009.06,607.07,1008.81,606.15,1008.53,606.15Z"/><path class="cls-10" d="M1006.87,615.28a55.25,55.25,0,0,1-.28,5.89c-.18,1.51-.42,2.44-.68,2.44H973.84c-.53,0-1-3.73-1-8.33,0-1.59,0-3.07.14-4.33,0-.3,0-.58.07-.84V610c0-.09,0-.18,0-.26h0l0-.14v-.15a.59.59,0,0,0,0-.14c0-.11,0-.23,0-.34v0a.77.77,0,0,1,0-.15h0l0-.18v-.09a.59.59,0,0,0,0-.13.51.51,0,0,0,0-.13l0-.1V608q0-.15.06-.27v-.05l0,0s0-.06,0-.09a1.42,1.42,0,0,1,.22-.49v0h0l0,0H1006l0,0h0l0,0a1.67,1.67,0,0,1,.21.49.29.29,0,0,1,0,.09l0,0v.05q0,.12.06.27v.16c0,.11.05.23.07.35v.06a1.1,1.1,0,0,0,0,.18l0,.13V609c0,.08,0,.16,0,.24a1.23,1.23,0,0,0,0,.19s0,.08,0,.12v.09h0a.53.53,0,0,1,0,.13,1,1,0,0,1,0,.17.57.57,0,0,1,0,.13C1006.79,611.53,1006.87,613.33,1006.87,615.28Z"/><path class="cls-14" d="M1006.66,610.11H973.09V610c0-.09,0-.18,0-.26h0l0-.14v-.15a.59.59,0,0,0,0-.14c0-.11,0-.23,0-.34v0a.77.77,0,0,1,0-.15h0l0-.18v-.09l0-.13a.51.51,0,0,0,0-.13l0-.1V608q0-.15.06-.27v-.05l0,0s0-.06,0-.09a1.42,1.42,0,0,1,.22-.49v0h0l0,0H1006l0,0h0l0,0a1.67,1.67,0,0,1,.21.49.29.29,0,0,1,0,.09l0,0v.05q0,.12.06.27v.16c0,.11.05.23.07.35v.06a1.1,1.1,0,0,0,0,.18l0,.13V609c0,.08,0,.16,0,.24a1.23,1.23,0,0,0,0,.19s0,.08,0,.12v.09h0a.53.53,0,0,1,0,.13,1,1,0,0,1,0,.17A.57.57,0,0,1,1006.66,610.11Z"/><rect class="cls-15" x="975.32" y="607.67" width="29.11" height="2.75" rx="0.92"/><path class="cls-16" d="M1003.43,607.67H976.34a1,1,0,0,0-1,1v.44a1,1,0,0,1,1-1h27.09a1,1,0,0,1,1,1v-.44A1,1,0,0,0,1003.43,607.67Z"/><rect class="cls-15" x="975.32" y="620.15" width="29.11" height="2.75" rx="0.92"/><path class="cls-17" d="M1003.43,622.9H976.34a1,1,0,0,1-1-1v-.45a1,1,0,0,0,1,1h27.09a1,1,0,0,0,1-1v.45A1,1,0,0,1,1003.43,622.9Z"/><rect class="cls-18" x="975.32" y="613.12" width="29.11" height="4.33" rx="1.45"/><rect class="cls-15" x="975.81" y="613.61" width="28.22" height="3.36" rx="1.13"/><path class="cls-12" d="M995.52,607q0,.38,0,.72l0,.44c-.05.77-.11,1.45-.19,2,0,.11,0,.21,0,.31-.12.7-.27,1.11-.43,1.11h-1.64c-.11,0-.21-.22-.3-.58H970.32c.06-1,.13-1.79.23-2.5v-.29a.5.5,0,0,0,0-.12h0l0-.18v0l0-.18v0a.5.5,0,0,0,0-.12v0c0-.09,0-.17,0-.25l0-.1,0-.14h0c0-.06,0-.11.05-.16a.19.19,0,0,1,0-.08v-.07l0-.06,0,0v-.09l0-.05h0a.08.08,0,0,1,0,0h0l0-.06v0l0-.06h0l0,0h2.33c.15,0,.29.3.42.8Z"/><ellipse class="cls-13" cx="968.39" cy="602.61" rx="0.74" ry="6.57"/><path class="cls-11" d="M967.65,602.61c0-3.63.34-6.57.76-6.57h-1.66c-.42,0-.76,2.94-.76,6.57s.34,6.57.76,6.57h1.66C968,609.18,967.65,606.24,967.65,602.61Z"/><ellipse class="cls-13" cx="991.91" cy="602.61" rx="0.74" ry="6.57"/><path class="cls-11" d="M992.66,602.61c0-3.63-.34-6.57-.76-6.57h1.66c.42,0,.76,2.94.76,6.57s-.34,6.57-.76,6.57H991.9C992.32,609.18,992.66,606.24,992.66,602.61Z"/><path class="cls-14" d="M968.41,596h-1.66c-.2,0-.38.67-.51,1.75h1.66C968,596.71,968.21,596,968.41,596Z"/><path class="cls-14" d="M993.56,596H991.9c.2,0,.38.67.51,1.75h1.66C993.94,596.71,993.75,596,993.56,596Z"/><path class="cls-10" d="M992.36,602.61a40.35,40.35,0,0,1-.2,4.23c-.13,1.09-.3,1.76-.49,1.76h-23c-.24,0-.45-1-.57-2.6-.08-1-.12-2.13-.12-3.39s.05-2.7.15-3.72v0l0-.16h0v-.11a.34.34,0,0,1,0-.1c0-.07,0-.14,0-.2v-.1l0-.19v-.09c0-.16,0-.31.08-.45v-.07l.06-.25v0c0-.06,0-.11,0-.16v-.16l0,0h0l0-.06h0l.05,0H991.7l0,0h0l0,.06h0a.05.05,0,0,0,0,0v.16s0,.1.05.16v0l.06.25v.07c0,.14.05.29.08.45a.28.28,0,0,0,0,.09,1.23,1.23,0,0,1,0,.19l0,.1a1.5,1.5,0,0,0,0,.2s0,.07,0,.1v.11h0l0,.16v0C992.31,599.91,992.36,601.2,992.36,602.61Z"/><path class="cls-14" d="M992.21,598.89H968.08v0l0-.16h0a1.49,1.49,0,0,1,0-.21c0-.07,0-.14,0-.2v-.1l0-.19v-.09c0-.16,0-.31.08-.45v-.07l.06-.25v0c0-.06,0-.11,0-.16v-.16l0,0h0l0-.06h0l.05,0H991.7l0,0h0l0,.06h0a.05.05,0,0,0,0,0v.16s0,.1.05.16v0l.06.25v.07c0,.14.05.29.08.45a.28.28,0,0,0,0,.09,1.23,1.23,0,0,1,0,.19l0,.1a1.5,1.5,0,0,0,0,.2c0,.07,0,.14,0,.21h0l0,.16Z"/><path class="cls-19" d="M992.36,602.61a40.35,40.35,0,0,1-.2,4.23c-.13,1.09-.3,1.76-.49,1.76h-23c-.24,0-.45-1-.57-2.6,5.22.39,17.27.2,19.93-9.38h3.72l0,0h0l0,.06h0a.05.05,0,0,0,0,0v.16s0,.1.05.16v0l.06.25v.07c0,.14.05.29.08.45a.28.28,0,0,0,0,.09,1.23,1.23,0,0,1,0,.19l0,.1a1.5,1.5,0,0,0,0,.2s0,.07,0,.1v.11h0l0,.16v0C992.31,599.91,992.36,601.2,992.36,602.61Z"/></svg>