<svg xmlns="http://www.w3.org/2000/svg" viewBox="0 0 1919.86 821.2"><defs><style>.cls-1{isolation:isolate;}.cls-2{fill:#a0aa00;}.cls-3{fill:#2e3c00;}.cls-4{fill:#253433;}.cls-10,.cls-11,.cls-12,.cls-13,.cls-14,.cls-15,.cls-16,.cls-17,.cls-18,.cls-19,.cls-20,.cls-21,.cls-22,.cls-23,.cls-24,.cls-25,.cls-4,.cls-5,.cls-6,.cls-7,.cls-8,.cls-9{fill-rule:evenodd;}.cls-5{fill:#243433;}.cls-6{fill:#403146;}.cls-7{fill:#756873;}.cls-8{fill:#33233a;}.cls-9{fill:#35253b;}.cls-10{fill:#89592b;}.cls-11{fill:#694433;}.cls-12{fill:#4b3d54;}.cls-13{fill:#8bb733;}.cls-14{fill:#938988;}.cls-15{fill:#b8b600;}.cls-16{fill:#e7d36a;}.cls-17{fill:#d3d262;}.cls-18{fill:#3e8143;}.cls-19{fill:#395b33;}.cls-20{fill:#284342;}.cls-21,.cls-22{fill:#6a6500;mix-blend-mode:multiply;}.cls-22{opacity:0.8;}.cls-23{fill:#896873;}.cls-24{fill:#594c61;}.cls-25{fill:#7b5e6c;}</style></defs><g class="cls-1"><g id="road"><polygon class="cls-2" points="1198.44 697.74 1202.66 666.43 1201.89 666.16 1197.67 697.46 1198.44 697.74"/><polygon class="cls-2" points="1195.21 698.93 1195.99 698.81 1194.89 679.85 1194.1 679.97 1195.21 698.93"/><polygon class="cls-2" points="1193.25 697.62 1193.82 669.44 1193.03 669.4 1192.46 697.58 1193.25 697.62"/><polygon class="cls-2" points="1188.16 704.87 1188.94 704.67 1185.87 672.53 1185.09 672.73 1188.16 704.87"/><polygon class="cls-2" points="1182.91 710.28 1183.69 710.03 1179.2 673.02 1178.42 673.27 1182.91 710.28"/><polygon class="cls-2" points="1179.65 710.25 1182.63 676.61 1181.85 676.42 1178.87 710.07 1179.65 710.25"/><polygon class="cls-2" points="1165.48 717.36 1166.12 716.61 1161.78 706.68 1161.14 707.42 1165.48 717.36"/><polygon class="cls-2" points="1159.15 717.52 1159.58 716.45 1154.93 711.48 1154.5 712.55 1159.15 717.52"/><polygon class="cls-2" points="1155.13 720.03 1155.31 718.78 1112.04 702.43 1111.86 703.69 1155.13 720.03"/><polygon class="cls-2" points="1130.71 724.34 1131.17 723.29 1124.47 715.43 1124.01 716.47 1130.71 724.34"/><polygon class="cls-2" points="1127.08 726.96 1127.63 726.03 1115.37 706.61 1114.82 707.53 1127.08 726.96"/><polygon class="cls-2" points="1221.27 695.69 1236.71 661.75 1236.08 660.99 1220.64 694.92 1221.27 695.69"/><polygon class="cls-3" points="1090.8 687.12 1092.6 668.18 1091.82 667.98 1090.02 686.92 1090.8 687.12"/><polygon class="cls-3" points="1088.3 690.85 1089.08 690.57 1085.12 661.42 1084.35 661.69 1088.3 690.85"/><rect class="cls-3" x="1083.5" y="669.69" width="0.79" height="17.33"/><polygon class="cls-3" points="1052.65 689.46 1054.11 668.44 1053.32 668.3 1051.87 689.32 1052.65 689.46"/><polygon class="cls-3" points="1044.35 687.63 1045.13 687.41 1042.21 660.25 1041.43 660.48 1044.35 687.63"/><polygon class="cls-3" points="1041.43 691.78 1042.21 691.52 1033.36 622.68 1032.59 622.94 1041.43 691.78"/><polygon class="cls-3" points="1034.99 687.18 1035.75 686.86 1033.36 671.45 1032.59 671.77 1034.99 687.18"/><rect class="cls-3" x="1028.59" y="671.28" width="0.79" height="18.11"/><path class="cls-4" d="M1853.37,708.17v.09c.25-2.62,1.11-11.86,2.19-24.91l-2,22.24Z"/><path class="cls-5" d="M1860.56,700.22l0,.41c0-.13,0-.3,0-.52Z"/><polygon class="cls-6" points="842.22 715.7 840.98 725 840.28 726.46 876.87 728.07 989.56 725.81 997.28 722.12 997.28 715.08 971.41 706.69 967.72 707.75 931.49 699.61 890.56 716.86 842.22 715.7"/><polygon class="cls-7" points="842.22 715.7 853.29 723.07 895.62 719.1 890.56 716.86 842.22 715.7"/><polygon class="cls-7" points="931.49 699.61 950.5 705.62 954.74 711.37 937.15 725.23 901.21 723.07 894.03 716.87 890.56 716.86 931.49 699.61"/><polygon class="cls-7" points="967.72 707.75 980.98 712.42 971.41 706.69 967.72 707.75"/><polygon class="cls-7" points="950.84 716.11 966.12 710.6 967.72 710.1 988.66 715.7 987.93 718.5 971.41 722.12 950.39 717.96 950.84 716.11"/><polygon class="cls-8" points="950.39 717.96 950.5 726.6 937.33 726.86 937.15 725.23 956.35 710.1 957.15 707.73 931.49 699.61 967.72 707.75 970.83 710.93 967.72 710.1 950.39 717.96"/><polygon class="cls-9" points="901.21 723.07 901.21 727.58 895.62 727.69 895.62 719.1 890.56 716.86 894.03 716.87 901.21 723.07"/><polygon class="cls-8" points="971.41 722.12 973.65 726.13 989.56 725.81 997.28 722.12 997.28 715.08 980.98 712.42 982.88 714.19 988.66 715.7 988.07 717.96 971.41 722.12"/><polygon class="cls-9" points="853.29 723.07 854.86 727.1 867.89 727.69 868.46 721.65 853.29 723.07"/><polygon class="cls-9" points="875.28 721.01 874.52 728.07 875.9 728.07 875.9 720.95 875.28 721.01"/><polygon class="cls-10" points="841.73 719.38 838.99 726.46 853.29 727.03 851.2 725.23 850.7 725.98 845.22 726.38 844.57 724.67 842.67 724.67 841.73 719.38"/><polygon class="cls-10" points="863.57 727.44 871.04 726.54 886.2 727.44 890.19 726.99 890.56 727.03 895.88 723.07 897.27 724.51 899.95 725.25 901.21 727.03 937.65 726.85 947.73 723.86 950.39 720.04 950.84 725.1 973.8 725.23 987.26 724.59 991.55 720.77 996.69 719.27 996.69 715.08 984.5 710.93 998.38 715.08 1016.49 723.65 1031.69 724.51 991.75 727.69 874.83 728.07 863.57 727.44"/><polygon class="cls-11" points="998.38 715.08 1008.43 722.12 1006.71 723.07 996.69 719.27 991.55 720.77 1012.91 725.23 996.54 726.46 987.93 727.69 991.75 727.69 1031.69 724.51 1015.36 723.48 998.38 715.08"/><polygon class="cls-11" points="950.84 725.1 943.29 727.69 937.15 727.87 947.73 723.86 950.39 720.04 950.84 725.1"/><polygon class="cls-11" points="895.88 723.07 895.6 724.76 894.3 727.36 897.27 724.51 895.88 723.07"/><polygon class="cls-11" points="899.95 725.25 897.27 726.1 894.68 728.07 902.9 727.98 901.03 727.11 899.95 725.25"/><polygon class="cls-12" points="899.56 721.65 916.15 723.96 901.21 723.96 899.56 721.65"/><polygon class="cls-12" points="922.14 724.33 923.43 723.21 925.64 724.67 924.84 725.25 922.14 724.33"/><polygon class="cls-7" points="931.49 699.61 950.84 705.73 956.91 707.65 966.22 707.41 931.49 699.61"/><path class="cls-13" d="M963.9,711.84s.1-17.35,4.89-27c0,0-4.6,19.63-4.62,26.82Z"/><path class="cls-13" d="M964.93,711.37s2.36-22.39,8-33.19c0,0-6.77,20.54-7.55,33Z"/><path class="cls-13" d="M963.62,712l-5.41-11.62S963.08,707.55,963.62,712Z"/><path class="cls-13" d="M966.63,710.6l1.41-7S967.47,709.26,966.63,710.6Z"/><path class="cls-13" d="M962.15,712.63s-2.55-2-4.48-1.48a24.33,24.33,0,0,1,3.36,1.09s-2.25-.87-3.77-.27-2.8,4.14-2.8,4.14l.28-2.27a10.36,10.36,0,0,0-1.09,2.64Z"/><polygon class="cls-14" points="910.34 716.75 909.01 715.75 910.61 714.7 913.43 717.29 910.34 716.75"/><polygon class="cls-14" points="941.69 717.05 942.31 716.5 944.37 716.13 945.09 717.05 942.31 717.49 941.69 717.05"/><polygon class="cls-14" points="913.96 717.53 914.89 717.27 916.36 717.53 915.16 717.82 913.96 717.53"/><polygon class="cls-14" points="970.09 711.64 970.83 710.93 972 711.64 971.04 712.43 970.09 711.64"/><polygon class="cls-14" points="916.36 715.29 916.36 714.62 917.85 715.29 916.36 715.65 916.36 715.29"/><polygon class="cls-14" points="922.28 705.43 922.28 704.76 923.77 705.43 922.28 705.79 922.28 705.43"/><path class="cls-5" d="M35.69,699.51v.09c-.25-2.63-1.11-11.87-2.19-24.92l2,22.24Z"/><path class="cls-5" d="M35.71,699.7l0,.41c0-.13,0-.29-.05-.51Z"/><path class="cls-15" d="M1600.89,685.58a7.43,7.43,0,0,1-1.24.07c-.28,0-.44,0-.52-.16s.15-.12.33-.17a3.3,3.3,0,0,1,.82-.08c.28,0,.91,0,1.08.14s-.62.17-.67.18S1601,685.58,1600.89,685.58Z"/><path class="cls-15" d="M1594.73,685.87a3.53,3.53,0,0,1-1.16,0c-.28,0,.06-.11.19-.14a4.26,4.26,0,0,1,.73,0,2.42,2.42,0,0,1,.43,0c.1,0-.06,0-.07.05S1594.76,685.86,1594.73,685.87Z"/><path class="cls-15" d="M1532.18,677.29a5.54,5.54,0,0,0,1-.17c-1.07,0-4.07-.32-4.61.35-.18.22,1.08.07,1.48,0s1.8-.12,2.34-.22C1532.42,677.3,1532.12,677.3,1532.18,677.29Z"/><path class="cls-15" d="M1530.58,675.73c-.27,0-.8,0-1.1,0a9.55,9.55,0,0,1,1.84-.17c.57,0,.56.06,0,.11Z"/><path class="cls-15" d="M1537.45,677.4a5.84,5.84,0,0,1-1,.14l-.87.09a5.7,5.7,0,0,1-1.16,0c-.28,0,0,0-.09-.09a.64.64,0,0,1-.16-.11c-.05-.06-.31-.05,0-.1a21.7,21.7,0,0,1,2.7-.21,6.66,6.66,0,0,1,1,0c.27,0-.32.12-.35.14A.39.39,0,0,1,1537.45,677.4Z"/><path class="cls-15" d="M1546.65,677.47c-.75.08-1.91.2-2.86.26s-2.32.14-3.31.14a8.81,8.81,0,0,1-1.08,0c-.3,0-.19-.07-.05-.15s.3-.07.42-.2-.53.09-.12-.16a7.56,7.56,0,0,1,2.41-.3c.67,0,1.37-.09,2.08-.11s1.8,0,2.47,0a6,6,0,0,1,2.25.16c.36.24.14.1-.28.21S1547.39,677.38,1546.65,677.47Z"/><path class="cls-15" d="M1550,675.91a.81.81,0,0,0-.45-.1,6.67,6.67,0,0,0-.67.06c-.13,0-.34,0-.24.12s.38,0,.56.07.87.05.93-.08S1550.08,676,1550,675.91Z"/><path class="cls-15" d="M1472.56,683.27a11,11,0,0,1-1.67.11c-.45,0-1.2,0-.61-.44a6.12,6.12,0,0,1,2.84-.52c.24,0,1,0,1.24,0s.64,0,.78.17.18.13-.16.27a7.28,7.28,0,0,1-1.67.36C1473.13,683.27,1472.73,683.26,1472.56,683.27Z"/><path class="cls-15" d="M1465,683.72c.13,0,1.43-.17.69-.33a3.85,3.85,0,0,0-1.36,0c-.71.15-.34.42.31.38Z"/><path class="cls-15" d="M1458.59,678.92a7.56,7.56,0,0,1-2,0c-.49-.12-.72-.14-.42-.45a3.31,3.31,0,0,1,1.65-.45,19.73,19.73,0,0,1,2.53-.15,6.79,6.79,0,0,1,1.57.14c.38.11.28.13.28.31s0,.14-.33.22c-1,.18-2.33.28-3.42.36Z"/><path class="cls-15" d="M1817,670.39a5.54,5.54,0,0,0,1-.17c-1.06,0-4.06-.32-4.6.35-.17.22,1.08.06,1.48,0s1.79-.11,2.33-.21C1817.28,670.39,1817,670.4,1817,670.39Z"/><path class="cls-15" d="M1815.45,668.83c-.26,0-.8,0-1.1,0a9.56,9.56,0,0,1,1.84-.18c.56,0,.56.07,0,.12Z"/><path class="cls-15" d="M1822.29,670.5a5.71,5.71,0,0,1-1,.14l-.86.09a5.63,5.63,0,0,1-1.15,0c-.28,0,0,0-.1-.09s-.1,0-.15-.11-.32-.05,0-.1a21.39,21.39,0,0,1,2.69-.21,6.53,6.53,0,0,1,1,0c.27.05-.32.12-.34.14Z"/><path class="cls-15" d="M1831.47,670.57c-.75.09-1.9.2-2.85.26s-2.32.14-3.3.14a8.61,8.61,0,0,1-1.08-.05c-.31,0-.19-.07,0-.15s.29-.06.42-.2-.53.09-.12-.16a7.5,7.5,0,0,1,2.4-.3c.67,0,1.37-.09,2.08-.11s1.79,0,2.46,0a6,6,0,0,1,2.24.16c.36.25.14.1-.28.21A17.68,17.68,0,0,1,1831.47,670.57Z"/><path class="cls-15" d="M1834.8,669a.79.79,0,0,0-.44-.11,6.62,6.62,0,0,0-.68.06c-.13,0-.34,0-.23.12s.37,0,.55.07.87.06.93-.08S1834.89,669.08,1834.8,669Z"/><path class="cls-15" d="M1757.62,676.36a10.75,10.75,0,0,1-1.66.11c-.45-.05-1.19,0-.6-.44a6,6,0,0,1,2.82-.52,10.37,10.37,0,0,1,1.24,0c.27.05.64,0,.78.16s.17.14-.17.28a7.07,7.07,0,0,1-1.66.36C1758.19,676.35,1757.79,676.34,1757.62,676.36Z"/><path class="cls-15" d="M1750.13,676.8c.13,0,1.43-.17.69-.32a3.8,3.8,0,0,0-1.35,0c-.71.14-.35.42.3.38Z"/><path class="cls-15" d="M1743.71,672a7.48,7.48,0,0,1-2,0c-.48-.11-.72-.14-.41-.45s1-.35,1.64-.44a19.49,19.49,0,0,1,2.52-.16,6.79,6.79,0,0,1,1.57.14c.38.12.27.13.27.31s.06.15-.33.22a32.7,32.7,0,0,1-3.41.36Z"/><path class="cls-16" d="M1316.68,686.78a7.08,7.08,0,0,0,1-.17c-1.07,0-4.08-.32-4.62.35-.18.22,1.08.06,1.48,0s1.8-.11,2.34-.21C1316.91,686.78,1316.62,686.79,1316.68,686.78Z"/><path class="cls-16" d="M1315.07,685.22c-.27,0-.8,0-1.1,0a10.34,10.34,0,0,1,1.84-.18c.57,0,.56.07,0,.12Z"/><path class="cls-16" d="M1322,686.89a6,6,0,0,1-1,.14l-.87.09a5.61,5.61,0,0,1-1.15,0c-.28,0,0,0-.1-.09s-.09-.05-.15-.11-.32-.05,0-.1a21.7,21.7,0,0,1,2.7-.21,6.66,6.66,0,0,1,1,0c.26,0-.32.12-.35.14A.39.39,0,0,1,1322,686.89Z"/><path class="cls-16" d="M1331.16,687c-.75.08-1.91.2-2.86.26s-2.33.14-3.31.14a8.88,8.88,0,0,1-1.09-.05c-.3,0-.19-.07-.05-.15s.3-.07.42-.2-.52.09-.12-.16a7.59,7.59,0,0,1,2.42-.3c.67,0,1.37-.09,2.08-.11s1.8,0,2.47,0a6.08,6.08,0,0,1,2.26.16c.35.25.13.1-.29.21S1331.91,686.87,1331.16,687Z"/><path class="cls-16" d="M1334.5,685.41a.79.79,0,0,0-.44-.11,6.62,6.62,0,0,0-.68.06c-.13,0-.34,0-.23.12s.37,0,.55.07.87.06.94-.08S1334.59,685.47,1334.5,685.41Z"/><path class="cls-16" d="M1316.62,690.15a10.94,10.94,0,0,1-1.67.12c-.44-.06-1.2,0-.61-.44a6,6,0,0,1,2.84-.52,10.37,10.37,0,0,1,1.24,0c.27,0,.65,0,.78.16s.18.14-.16.28a7.85,7.85,0,0,1-1.67.36Z"/><path class="cls-16" d="M1281.43,692.92c.13,0,1.44-.17.7-.33a3.86,3.86,0,0,0-1.36,0c-.72.15-.35.42.31.38Z"/><path class="cls-16" d="M1274.16,684.9a7.54,7.54,0,0,1-2,0c-.48-.11-.72-.14-.41-.45s1-.35,1.64-.44a21.79,21.79,0,0,1,2.54-.16,7.45,7.45,0,0,1,1.57.15c.38.11.27.13.27.3s.06.15-.33.22a30.63,30.63,0,0,1-3.42.36Z"/><path class="cls-15" d="M1604.42,686.32a18.6,18.6,0,0,1-2,.18c-.58,0-.84.15-1.3-.16s.37-.6.95-.64a9.44,9.44,0,0,1,2.19,0c.31.07.43,0,.59.21s-.59.23-.64.27S1604.43,686.28,1604.42,686.32Z"/><path class="cls-15" d="M1288.84,698.93a10.39,10.39,0,0,1-1.25,0c-.27,0-.43-.06-.49-.19s.17-.12.35-.16a3.65,3.65,0,0,1,.83,0c.27,0,.91,0,1.06.21s-.64.13-.69.13S1288.9,698.92,1288.84,698.93Z"/><path class="cls-15" d="M1282.65,698.84a3.74,3.74,0,0,1-1.16,0c-.27-.07.08-.1.21-.13a4.45,4.45,0,0,1,.73,0,2.11,2.11,0,0,1,.43.06c.1,0-.07,0-.08,0S1282.69,698.83,1282.65,698.84Z"/><path class="cls-15" d="M1221.41,686.57a7.08,7.08,0,0,0,1-.11c-1.06-.09-4-.57-4.65.07-.2.21,1.07.13,1.47.13s1.81,0,2.36-.07C1221.64,686.58,1221.35,686.57,1221.41,686.57Z"/><path class="cls-15" d="M1220,684.92c-.26,0-.79,0-1.09,0a8.91,8.91,0,0,1,1.86-.06c.56,0,.55.1,0,.11Z"/><path class="cls-15" d="M1226.64,687a5.88,5.88,0,0,1-1,.08l-.87,0a5.57,5.57,0,0,1-1.16,0c-.27-.07,0,0-.08-.1s-.09-.05-.14-.11-.31-.08.05-.11a20.5,20.5,0,0,1,2.72,0,6,6,0,0,1,1,.1c.26.06-.33.09-.36.12Z"/><path class="cls-15" d="M1235.81,687.61c-.75,0-1.93.08-2.88.09s-2.34,0-3.32-.06c-.41,0-.78-.06-1.08-.11s-.18-.09,0-.16.31,0,.45-.17-.54,0-.1-.17a7.87,7.87,0,0,1,2.44-.15c.68,0,1.38,0,2.1,0l2.46.1a5.73,5.73,0,0,1,2.23.3c.32.26.12.1-.32.19S1236.56,687.56,1235.81,687.61Z"/><path class="cls-15" d="M1239.35,686.26a.84.84,0,0,0-.43-.13,5,5,0,0,0-.68,0c-.14,0-.35,0-.25.1s.36.07.54.11.86.1.94,0S1239.43,686.33,1239.35,686.26Z"/><path class="cls-15" d="M1187.3,697.43a8.28,8.28,0,0,1-1.22,0c-.31-.06-.89-.08-.4-.35a4.64,4.64,0,0,1,2.14-.26c.18,0,.71,0,.91.08s.46,0,.56.15.1.11-.15.2a6,6,0,0,1-1.24.19C1187.6,697.46,1187.59,697.43,1187.3,697.43Z"/><path class="cls-15" d="M1181.74,697.43c.09,0,1-.1.59-.19a2.72,2.72,0,0,0-1.08-.08c-.47.05-.26.3.22.29Z"/><path class="cls-15" d="M1177.46,693.62a6,6,0,0,1-1.48-.07c-.35-.11-.51-.14-.26-.35a2.58,2.58,0,0,1,1.25-.26,14.59,14.59,0,0,1,1.87,0,4.7,4.7,0,0,1,1.15.18c.28.09.2.1.18.23s0,.11-.26.15a23.68,23.68,0,0,1-2.55.12Z"/><path class="cls-15" d="M1292.27,699.86a14.64,14.64,0,0,1-2,.07c-.58-.06-.86.1-1.28-.24s.45-.57,1-.57a8.75,8.75,0,0,1,2.17.15c.3.09.43.07.56.24s-.61.2-.67.23S1292.28,699.82,1292.27,699.86Z"/><path class="cls-16" d="M1365.88,694.46a8.64,8.64,0,0,1-1.25,0c-.28,0-.43-.06-.5-.19s.17-.11.35-.15a3.21,3.21,0,0,1,.84,0c.27,0,.9,0,1,.21s-.64.12-.69.13S1365.94,694.45,1365.88,694.46Z"/><path class="cls-16" d="M1359.69,694.37a3.44,3.44,0,0,1-1.16,0c-.28-.07.07-.1.2-.13a4.57,4.57,0,0,1,.74,0,2,2,0,0,1,.42.07c.1,0-.07,0-.08,0S1359.72,694.36,1359.69,694.37Z"/><path class="cls-16" d="M1298.43,682.11a7.08,7.08,0,0,0,1-.11c-1.06-.09-4-.57-4.65.07-.2.21,1.07.13,1.47.13s1.81,0,2.36-.07Z"/><path class="cls-16" d="M1297,680.46c-.27,0-.8,0-1.1-.05a9.7,9.7,0,0,1,1.86-.06c.56,0,.55.1,0,.11Z"/><path class="cls-16" d="M1303.67,682.53a6,6,0,0,1-1,.08l-.88,0a5,5,0,0,1-1.16,0c-.27-.06,0,0-.08-.1s-.09,0-.14-.11-.31-.07,0-.11a22.39,22.39,0,0,1,2.72,0,5.87,5.87,0,0,1,1,.1c.26.06-.33.1-.36.12A.34.34,0,0,1,1303.67,682.53Z"/><path class="cls-16" d="M1312.83,683.15c-.75,0-1.92.08-2.88.09s-2.34,0-3.32-.06c-.4,0-.77-.06-1.07-.11s-.18-.08,0-.16.3,0,.44-.17-.53,0-.09-.16a7.55,7.55,0,0,1,2.44-.16c.67,0,1.38,0,2.09,0l2.47.1a5.89,5.89,0,0,1,2.22.29c.32.27.13.11-.31.2S1313.59,683.1,1312.83,683.15Z"/><path class="cls-16" d="M1316.38,681.8a.85.85,0,0,0-.44-.13,5,5,0,0,0-.68,0c-.13,0-.34,0-.25.1s.37.07.55.11.85.1.94,0S1316.45,681.87,1316.38,681.8Z"/><path class="cls-16" d="M1369.3,695.4a16.39,16.39,0,0,1-2,.06c-.57-.06-.86.1-1.28-.24s.45-.57,1-.57a9.38,9.38,0,0,1,2.18.15c.29.09.42.07.56.24s-.62.2-.68.23S1369.31,695.36,1369.3,695.4Z"/><path class="cls-15" d="M1721.84,684.8c-.57,0-1.73.19-1.94-.18s.16-.41.69-.59a24.34,24.34,0,0,1,4.05-.4c1.11,0,3.19-.34,2.93.56s-3.45.84-4.62.72C1722.77,684.89,1722,684.8,1721.84,684.8Z"/><path class="cls-15" d="M1837.36,645.72a11,11,0,0,1-1.67.11c-.44-.05-1.19,0-.6-.44a6,6,0,0,1,2.83-.52,10.2,10.2,0,0,1,1.23,0c.27.05.64,0,.78.16s.18.14-.16.28a7.28,7.28,0,0,1-1.67.36C1837.93,645.72,1837.53,645.7,1837.36,645.72Z"/><path class="cls-17" d="M1829.87,646.17c.13,0,1.42-.17.69-.33a3.86,3.86,0,0,0-1.36,0c-.71.14-.35.42.31.38Z"/><path class="cls-17" d="M1823.45,641.36a7.48,7.48,0,0,1-2,0c-.48-.11-.71-.14-.41-.45s1-.35,1.63-.44a19.76,19.76,0,0,1,2.53-.16,6.75,6.75,0,0,1,1.56.14c.38.12.28.13.28.31s0,.15-.33.22a33,33,0,0,1-3.41.36Z"/><path class="cls-17" d="M1801.59,654.16c-.56,0-1.73.19-1.93-.17s.16-.41.69-.59a22.28,22.28,0,0,1,4-.4c1.12,0,3.19-.34,2.93.56s-3.45.84-4.61.72C1802.52,654.26,1801.72,654.16,1801.59,654.16Z"/><path class="cls-15" d="M1697.69,683.45c.12,0,1-.05.94-.18s0,0-.24-.12a5.91,5.91,0,0,0-1.05,0c-.27,0-.6,0-.58.22s.37.14.53.17.29-.06.4,0Z"/><path class="cls-18" d="M877.82,719.72v-.1l0-.17s0-.06,0-.08l.15-1.09c.39-3,1.37-10.33,2.46-18.95,0,0,0-.07,0-.1,1.69-13.22,3.65-29.44,4.28-37.79,1.07-14.16-3.95-29.6-4.84-32.23l-.14-.39s0,.11,0,.33,0,.46,0,.8h0c.08,6.63.42,40.29-.81,49.24C877.63,689.14,877.82,719.72,877.82,719.72Z"/><path class="cls-19" d="M884.59,719.72s3.33-18.6,10.94-28.42l-4.42,22.08L885.76,720Z"/><path class="cls-18" d="M880.47,719.72h1.85v0c.16-1,5.41-33.41,9.89-48.88,1.41-4.87,2.16-11.65,2.52-18.68h-3.09L892.5,639l2.5-4,0-1.47-2.47,3.29.65-7.46,1.68-1.13c-.17-5.21-.4-8.65-.4-8.65l2-3.47-4.44,3.73s-.58,4.11-1.4,10.08h0a26.16,26.16,0,0,1,1.34,2.71c-.13,0-.6,9.33-.6,9.33l-1.77-4.47c-1.29,9.65-2.78,21.17-3.57,28.84C884.35,681.78,880.47,719.72,880.47,719.72Z"/><path class="cls-20" d="M881.56,719.72h.76v0c.16-1,5.41-33.41,9.89-48.88,1.41-4.87,2.16-11.65,2.52-18.68h-3.09L892.5,639l2.5-4,0-1.47-2.47,3.29.65-7.46,1.68-1.13c-.17-5.21-.4-8.65-.4-8.65l2-3.47-3.44,3.68s-.16,14.14-2.82,39.64S881.56,719.72,881.56,719.72Z"/><path class="cls-20" d="M883.2,656.52c.44,11.83-1.15,29.18-2.71,42.71,1.69-13.22,3.65-29.44,4.28-37.79,1.07-14.16-3.95-29.6-4.84-32.23C879.93,629.21,882.59,639.49,883.2,656.52Z"/><path class="cls-19" d="M1207.51,687.74s.63-11.55-1.24-18.79-3.81-10.16-3.81-10.16,4.75,19.47,4.29,28.71c0,0-2-11.08-6.09-19.73,0,0,4.09,13.66,5.16,19.44a87.64,87.64,0,0,0-4.39-14.09,22.25,22.25,0,0,0-8.86-9.7s11.14,10.82,12.54,23.57Z"/><polygon class="cls-21" points="1219.35 692.04 1210.83 694.56 1185.95 692.99 1195.27 688.67 1219.35 692.04"/><polygon class="cls-22" points="1709.24 720.29 1575.44 727.64 1520.21 727.64 1709.85 716.35 1709.24 720.29"/><polygon class="cls-6" points="1709.24 720.29 1715.97 676.81 1715.97 670.68 1691.16 676.81 1664.51 701.35 1662.27 720.93 1709.24 720.29"/><polygon class="cls-23" points="1715.97 670.68 1714.78 677.86 1696.9 696.33 1668.72 700.78 1664.51 701.35 1691.16 676.81 1715.97 670.68"/><polygon class="cls-6" points="1694.35 720.29 1689.31 704.63 1655.46 700.78 1618.26 718.17 1617.3 721.83 1694.35 720.29"/><polygon class="cls-6" points="1615.69 723.71 1611.98 714.72 1597.75 708.05 1582.6 723.71 1615.69 723.71"/><polygon class="cls-6" points="1527.78 693.82 1525.91 700.43 1518.28 702.5 1513.4 694.94 1527.78 693.82"/><polygon class="cls-6" points="1488.48 713.14 1483.86 704.63 1475.19 702.38 1459.72 713.14 1488.48 713.14"/><polygon class="cls-6" points="1197.44 680.25 1203.3 678.02 1219.2 690.08 1219.35 692.04 1194.77 690.6 1197.44 680.25"/><polygon class="cls-23" points="1197.44 680.25 1201.21 687.02 1214.07 691.26 1219.2 690.08 1203.3 678.02 1197.44 680.25"/><polygon class="cls-23" points="1611.98 714.72 1611.07 718.99 1587.09 720.29 1585.95 720.24 1597.75 708.05 1611.98 714.72"/><polygon class="cls-23" points="1689.31 704.63 1646.3 716.23 1622.33 720.29 1618.26 718.17 1655.46 700.78 1689.31 704.63"/><polygon class="cls-24" points="1515.59 696.73 1520.98 697.57 1527.78 693.82 1513.4 694.94 1515.59 696.73"/><polygon class="cls-24" points="1483.86 704.63 1482.31 706.34 1465.41 709.18 1475.19 702.38 1483.86 704.63"/><polygon class="cls-8" points="1696.9 696.33 1694.35 720.29 1689.31 704.63 1664.51 701.35 1696.9 696.33"/><polygon class="cls-8" points="1647.82 716.23 1651.56 720.93 1617.3 721.83 1618.26 718.17 1622.33 720.29 1647.82 716.23"/><polygon class="cls-8" points="1611.07 718.99 1611.07 723.71 1587.09 723.71 1585.95 720.24 1611.07 718.99"/><polygon class="cls-8" points="1482.31 706.34 1480.44 713.14 1459.72 713.14 1465.41 709.18 1482.31 706.34"/><polygon class="cls-8" points="1520.98 697.57 1518.28 702.5 1513.4 694.94 1515.59 696.73 1520.98 697.57"/><polygon class="cls-8" points="1201.21 687.02 1200.62 690.94 1194.77 690.6 1197.44 680.25 1201.21 687.02"/><polygon class="cls-12" points="1701.83 691.24 1691.38 697.21 1696.25 702.5 1701.83 691.24"/><polygon class="cls-12" points="1651.49 714.83 1649.51 718.35 1644.15 716.59 1651.49 714.83"/><polygon class="cls-25" points="1681.76 715.88 1682.23 714.17 1680.19 714.83 1681.76 715.88"/><polygon class="cls-25" points="1670.88 711.31 1669.34 713.14 1660.26 712.46 1663.37 711.31 1670.88 711.31"/><polygon class="cls-25" points="1701.61 680.21 1698.98 682.45 1697.49 681.33 1700.61 679.87 1701.61 680.21"/><polygon class="cls-25" points="1709.52 697.69 1709.83 700.25 1709.22 700.25 1708.44 698.44 1709.52 697.69"/><polygon class="cls-25" points="1207.89 687.23 1206.39 685.17 1203.3 683.58 1207.89 687.23"/><polygon class="cls-25" points="1208.32 689.21 1207.06 687.96 1204.69 687.52 1208.32 689.21"/><polygon class="cls-25" points="1203.3 678.02 1204.69 679.83 1203.66 680.25 1201.21 678.82 1203.3 678.02"/><polygon class="cls-22" points="1488.48 713.14 1468.48 716.23 1440.2 716.35 1459.72 713.14 1488.48 713.14"/><polygon class="cls-2" points="1219.53 692.2 1223.52 679.88 1223.16 679.57 1219.17 691.88 1219.53 692.2"/><polygon class="cls-2" points="1219.08 692.82 1221.25 680.34 1220.86 680.16 1218.68 692.64 1219.08 692.82"/><polygon class="cls-2" points="1446.23 716.65 1446.93 716.04 1435.21 680.48 1434.52 681.09 1446.23 716.65"/><polygon class="cls-2" points="1444.12 716.69 1444.66 715.76 1435.14 700.9 1434.6 701.83 1444.12 716.69"/><polygon class="cls-2" points="1668.5 722.57 1669.12 691.26 1668.33 691.22 1667.71 722.53 1668.5 722.57"/><polygon class="cls-2" points="1664.12 722.11 1664.9 721.88 1663.11 705.54 1662.33 705.77 1664.12 722.11"/><polygon class="cls-2" points="1658.53 724.21 1659.01 723.2 1649.49 711.2 1649.01 712.22 1658.53 724.21"/><path class="cls-19" d="M1563,725.69a214.9,214.9,0,0,1,5.59-30.62c4.57-18.47,17.69-53.84,19.41-70.65,0,0-9.43,23.61-16,38.92s-9.2,47.72-9.2,47.72Z"/><path class="cls-19" d="M1572.35,613.23v.13l0,.2c-.13,1.23-.59,5.82-1.25,12.56l-3.11,3.55-1.92,9.5,3.87-.9c-2.28,24.11-5.48,60.15-6.54,82.66-.11,2.33-.32,2.54-.38,4.55,0,0-1.69,0-1.69,0-.25-1.61-5.24-34.77-1.22-65.55q.9-6.9,2-12.76l1.65,2.61-.79-6.93c4.08-19.46,9.13-29.14,9.38-29.6Z"/><path class="cls-4" d="M1562.82,725.48s1.28-16.34,8.09-25.38c0,0-3,19-6.8,25.38Z"/><path class="cls-4" d="M1572.35,613.23v.13l-1,12.51-.22.25-3.11,3.55-1.92,9.5,3.87-.9.36-.09-6.9,82.75-.38,4.55s-1.69,0-1.69,0a305.36,305.36,0,0,1,2.45-75.7c3.48-22.83,8.36-35.91,8.59-36.53Z"/><path class="cls-4" d="M1588,624.42s-6.78,24.07-14.84,41.44-9.18,52.35-9.18,52.35,3.27-27.54,12.78-50.7A162.89,162.89,0,0,0,1588,624.42Z"/><path class="cls-4" d="M1565.47,725.48s11.38-46,22.54-59.62l-20.84,59.62Z"/><path class="cls-4" d="M1561.28,725.67s1.18-47.27-2.51-71.43Z"/><path class="cls-4" d="M1561.06,725.58l-12.54-37.86S1555.55,719,1561.06,725.58Z"/><path class="cls-19" d="M667.52,692.43s-1.22-22.36,2.41-36.36,7.37-19.68,7.37-19.68S668.12,674.08,669,692c0,0,3.79-21.45,11.78-38.2,0,0-7.91,26.46-10,37.65,0,0,3.19-14.94,8.51-27.29s17.15-18.77,17.15-18.77S674.88,666.31,672.18,691Z"/><polygon class="cls-21" points="644.61 700.76 661.1 705.64 709.26 702.6 691.23 694.23 644.61 700.76"/><polygon class="cls-22" points="171.03 721.49 304.83 728.84 360.06 728.84 170.42 717.55 171.03 721.49"/><polygon class="cls-6" points="171.03 721.49 164.29 678.02 164.29 671.89 189.11 678.02 215.75 702.55 218 722.14 171.03 721.49"/><polygon class="cls-23" points="164.29 671.89 165.49 679.07 183.36 697.54 211.55 701.99 215.75 702.55 189.11 678.02 164.29 671.89"/><polygon class="cls-6" points="185.92 721.49 190.96 705.84 224.8 701.99 262.01 719.38 262.97 723.04 185.92 721.49"/><polygon class="cls-6" points="264.58 724.91 268.29 715.93 282.52 709.25 297.67 724.91 264.58 724.91"/><polygon class="cls-6" points="324.6 695.02 326.47 701.63 334.09 703.7 338.98 696.14 324.6 695.02"/><polygon class="cls-6" points="363.89 714.34 368.52 705.84 377.19 703.58 392.65 714.34 363.89 714.34"/><polygon class="cls-6" points="687.03 677.93 675.68 673.63 644.9 696.96 644.61 700.76 692.19 697.97 687.03 677.93"/><polygon class="cls-23" points="687.03 677.93 679.72 691.05 654.84 699.26 644.9 696.96 675.68 673.63 687.03 677.93"/><polygon class="cls-23" points="268.29 715.93 269.2 720.19 293.17 721.49 294.32 721.45 282.52 709.25 268.29 715.93"/><polygon class="cls-23" points="190.96 705.84 233.97 717.43 257.94 721.49 262.01 719.38 224.8 701.99 190.96 705.84"/><polygon class="cls-24" points="336.79 697.93 331.4 698.77 324.6 695.02 338.98 696.14 336.79 697.93"/><polygon class="cls-24" points="368.52 705.84 370.07 707.54 386.96 710.38 377.19 703.58 368.52 705.84"/><polygon class="cls-8" points="183.36 697.54 185.92 721.49 190.96 705.84 215.75 702.55 183.36 697.54"/><polygon class="cls-8" points="232.45 717.43 228.7 722.14 262.97 723.04 262.01 719.38 257.94 721.49 232.45 717.43"/><polygon class="cls-8" points="269.2 720.19 269.2 724.91 293.17 724.91 294.32 721.45 269.2 720.19"/><polygon class="cls-8" points="370.07 707.54 371.94 714.34 392.65 714.34 386.96 710.38 370.07 707.54"/><polygon class="cls-8" points="331.4 698.77 334.09 703.7 338.98 696.14 336.79 697.93 331.4 698.77"/><polygon class="cls-8" points="679.72 691.05 680.86 698.63 692.19 697.97 687.03 677.93 679.72 691.05"/><polygon class="cls-12" points="178.43 692.44 188.89 698.41 184.02 703.7 178.43 692.44"/><polygon class="cls-12" points="228.78 716.03 230.76 719.56 236.11 717.79 228.78 716.03"/><polygon class="cls-25" points="198.5 717.08 198.04 715.37 200.07 716.03 198.5 717.08"/><polygon class="cls-25" points="209.38 712.51 210.93 714.34 220 713.67 216.9 712.51 209.38 712.51"/><polygon class="cls-25" points="178.66 681.42 181.28 683.66 182.78 682.54 179.66 681.08 178.66 681.42"/><polygon class="cls-25" points="170.75 698.9 170.44 701.46 171.04 701.46 171.83 699.65 170.75 698.9"/><polygon class="cls-25" points="666.78 691.44 669.7 687.46 675.68 684.38 666.78 691.44"/><polygon class="cls-25" points="665.96 695.28 668.4 692.87 672.99 692.02 665.96 695.28"/><polygon class="cls-25" points="675.68 673.63 672.99 677.13 674.98 677.93 679.72 675.16 675.68 673.63"/><polygon class="cls-22" points="363.89 714.34 383.89 717.43 412.17 717.55 392.65 714.34 363.89 714.34"/><polygon class="cls-2" points="644.26 701.06 636.54 677.21 637.24 676.61 644.96 700.46 644.26 701.06"/><polygon class="cls-2" points="645.14 702.28 640.93 678.11 641.69 677.76 645.9 701.92 645.14 702.28"/><polygon class="cls-2" points="406.14 717.86 405.45 717.25 417.16 681.68 417.86 682.29 406.14 717.86"/><polygon class="cls-2" points="408.26 717.89 407.71 716.97 417.24 702.11 417.78 703.04 408.26 717.89"/><polygon class="cls-2" points="211.77 723.77 211.15 692.46 211.94 692.42 212.56 723.73 211.77 723.77"/><polygon class="cls-2" points="216.14 723.31 215.37 723.08 217.16 706.75 217.94 706.98 216.14 723.31"/><polygon class="cls-2" points="221.74 725.42 221.26 724.4 230.77 712.41 231.25 713.43 221.74 725.42"/><polygon class="cls-2" points="1628.57 683.18 1624.34 651.87 1625.11 651.59 1629.34 682.9 1628.57 683.18"/><polygon class="cls-2" points="1631.79 684.37 1631.01 684.25 1632.11 665.29 1632.9 665.41 1631.79 684.37"/><polygon class="cls-2" points="1633.75 683.06 1633.19 654.88 1633.98 654.83 1634.54 683.02 1633.75 683.06"/><polygon class="cls-2" points="1638.84 690.31 1638.06 690.11 1641.13 657.97 1641.91 658.17 1638.84 690.31"/><polygon class="cls-2" points="1644.09 695.72 1643.31 695.47 1647.81 658.46 1648.58 658.71 1644.09 695.72"/><polygon class="cls-2" points="1647.35 695.69 1644.37 662.04 1645.15 661.86 1648.13 695.5 1647.35 695.69"/><polygon class="cls-2" points="1661.53 702.8 1660.88 702.05 1665.22 692.11 1665.86 692.86 1661.53 702.8"/><polygon class="cls-2" points="1667.85 702.96 1667.42 701.88 1672.07 696.92 1672.5 697.99 1667.85 702.96"/><polygon class="cls-2" points="1671.87 705.47 1671.69 704.21 1714.96 687.87 1715.14 689.12 1671.87 705.47"/><polygon class="cls-2" points="1696.3 709.77 1695.83 708.73 1702.54 700.86 1703 701.91 1696.3 709.77"/><polygon class="cls-2" points="1699.92 712.39 1699.37 711.47 1711.63 692.05 1712.19 692.97 1699.92 712.39"/><polygon class="cls-2" points="1605.73 681.12 1590.29 647.19 1590.92 646.43 1606.36 680.36 1605.73 681.12"/><polygon class="cls-3" points="1736.2 672.56 1734.4 653.61 1735.18 653.42 1736.98 672.36 1736.2 672.56"/><polygon class="cls-3" points="1738.7 676.29 1737.93 676.01 1741.88 646.86 1742.65 647.13 1738.7 676.29"/><rect class="cls-3" x="1742.71" y="655.13" width="0.79" height="17.33"/><polygon class="cls-3" points="1774.35 674.9 1772.89 653.88 1773.68 653.74 1775.13 674.76 1774.35 674.9"/><polygon class="cls-3" points="1782.65 673.07 1781.87 672.84 1784.79 645.69 1785.57 645.91 1782.65 673.07"/><polygon class="cls-3" points="1785.57 677.22 1784.79 676.96 1793.64 608.11 1794.41 608.38 1785.57 677.22"/><polygon class="cls-3" points="1792.02 672.62 1791.25 672.3 1793.64 656.89 1794.41 657.21 1792.02 672.62"/><rect class="cls-3" x="1797.62" y="656.72" width="0.79" height="18.11"/></g></g></svg>