<svg id="road" xmlns="http://www.w3.org/2000/svg" xmlns:xlink="http://www.w3.org/1999/xlink" viewBox="0 0 1919 821"><defs><style>.cls-1{fill:none;}.cls-2{clip-path:url(#clip-path);}.cls-3{fill:#697930;}.cls-3,.cls-4,.cls-5,.cls-6,.cls-7,.cls-8{fill-rule:evenodd;}.cls-4{fill:#865a35;}.cls-5{fill:#664028;}.cls-6{fill:#784f30;}.cls-7{fill:#8f9b3d;}.cls-8{fill:#a09d3f;}</style><clipPath id="clip-path"><rect class="cls-1" y="-0.03" width="1920.47" height="821.2"/></clipPath></defs><g class="cls-2"><path class="cls-3" d="M-28.26,544.47c127.71-3.46,209,13.68,345,25.47,192.1,16.67,434.58,21,636,13,14.57,20.94,4.37,35.61,7.37,57C638,641.71,316,647.8-8.52,647.86-44.55,647.86-5.64,577.56-28.26,544.47Z"/><path class="cls-4" d="M-9.41,609.19c213.81,8.64,427.93,7.09,641.65,18.85-136.08.87-272.21.18-408.09,8.9a296.32,296.32,0,0,1,46.47,5.5c-93-11.16-186.91,3.21-280.17-4.43C-9.58,629.47-9.5,617.73-9.41,609.19Z"/><path class="cls-4" d="M662.35,627.43c50.34-5.09,198-29.42,237.35-3.69Q781,625.42,662.35,627.43Z"/><path class="cls-4" d="M270.62,642.44c-2.86-7.84-5.69-15.7-8.56-23.53-34-2.39-68.08-.07-102.08-2.27q3.33,13.18,6.46,26.42C201.22,643.55,235.91,638.63,270.62,642.44Z"/><path class="cls-5" d="M268.93,637.82q-3.24-8.9-6.46-17.79c3.61.29,7.2.71,10.8,1,3.79,6.16,7.49,12.37,11.29,18.52Q276.75,638.76,268.93,637.82Z"/><path class="cls-6" d="M287.13,621c15,5.07,30.34,8.15,45.75,11.55,1.15-.16,2.31-.3,3.47-.41-15-3.53-30.11-6.5-44.79-11.37Z"/><path class="cls-7" d="M-10.89,609.09c93,4.78,188.3,3.78,280.89,15.47l-4.49-4.37c104.28,11.24,209.49,1.49,314.08,5-139.39-13.87-279-24.77-418.94-30.8q198.18,7.22,395.64,25.5C367.59,603.07,179,576.93-10.9,585-10,594.11-11,599.91-10.89,609.09Z"/><path class="cls-7" d="M-31.24,583c84.79.49,60.29,6.31,169,7.83S461.46,602,594,622.59c-192-22.81-405.05-37.26-594.63-48.73C-23.77,572.47,19.89,580.8-31.24,583Z"/><path class="cls-7" d="M794.63,610.78c-48.83.51-83.49,13-129.47,15.87,68.33-2.45,135-6.64,202.81-9.5-5.35.73-10.47,1.63-15.72,2.46l18.59-2.24c12.44,1.48,17.74,5.22,31.85,6s37.35.17,52.19-.68C904.12,620.52,843.46,610.27,794.63,610.78Z"/><path class="cls-7" d="M432.94,634.53c65.32-2.4,139.37-3.62,223.18-4.52s207.75-.32,297.32-.44c9.15.26,4.33.46,6.48,1.39-67.49-.18-135.86.87-202.87.45,61.92,4,132.49,9.14,192.11,3.45s-21.76,5.62,13,4.89c-224.67.52-444.76-29.49-669.57,4C349.75,637,367.61,636.93,432.94,634.53Z"/><path class="cls-6" d="M160.12,622q.21,10.41.3,20.83c13.51.37,27,.29,40.48-.25-.74-6.24-1.5-12.47-2.32-18.7Q179.3,623.56,160.12,622Z"/><path class="cls-6" d="M200.29,620.76c4,7.15,7.79,14.38,11.63,21.6,3.16-.25,6.32-.49,9.47-.76-6.52-7-13-14-19.57-20.91Z"/><path class="cls-6" d="M88.2,612.13q1,13.62,1.93,27.23l6.76-.26q-2-13.47-4-27Z"/><path class="cls-5" d="M486.64,629.26c.68-2,1.32-4.11,1.94-6.17-51.82-2.31-103.82-7.12-155.64-4.26,50.28-3.14,101.88,1.06,151.78,3s98.11,4.09,147.67,6.2C583.7,628.37,535.26,628.8,486.64,629.26Z"/><path class="cls-5" d="M263.93,623.77l1,2.94C174.05,614.57,83.73,615.46-7.59,610.19c0-.18,0-.36,0-.54C83.44,614.35,173.21,614,263.93,623.77Z"/><path class="cls-6" d="M871.34,617.3l-2.13,6.87,19-.27.57-2.63Z"/><path class="cls-6" d="M817.4,619.53c-.53,1.81-1,3.62-1.58,5.43l-5.39,0c0-1.71,0-3.42.05-5.12Z"/><path class="cls-6" d="M822.77,624.86l3-5.74,11.34-.55-5.57,6.16Z"/><path class="cls-5" d="M852.24,619.61c-.24,1.61-.49,3.21-.73,4.82l-10.32.05q1.08-2.41,2.18-4.83-90.51,3.84-181,7.78,102.71-5.28,205.41-10.34Z"/><path class="cls-7" d="M438.22,576c91.56,4.68,197.79,19.32,285.45,21.4s155.45-9.16,239-9.54C786.75,593.07,611.6,593,438.22,576Z"/><path class="cls-8" d="M-4.51,564.77c110.79,7,160.4,17.47,275.88,21.75s275.2,2.74,399.57,8.34c-220.42-24.64-462.52-54.7-686.29-60.34C-24.57,534.28-4.51,564.77-4.51,564.77Z"/><path class="cls-3" d="M2053,538.82s-295.33,4.35-450,24.32c-218.45,28.22-429.64,25.62-647.41,20.42-7.26,18.59-4,37-5.58,56.79,335.19-.64,682.9-4.72,1015.34,7.44C2035.85,650.37,2053,538.82,2053,538.82Z"/><path class="cls-4" d="M1970.38,613.06c-219.35-22.54-470.79,1.14-692.29,14,136.69.62,273.37,1.92,410.05,2.53q-23.81,2.14-47.62,4.22c108.9,0,215.63-.62,324.46,7A72.56,72.56,0,0,1,1970.38,613.06Z"/><path class="cls-4" d="M1248,626.53c-50.93-5.07-197-28.79-237.14-2.74Q1129.47,624.83,1248,626.53Z"/><path class="cls-4" d="M1640.52,633.82l8.76-23c34.94-1.23,69.87-2.46,104.8-4-2.82,8.78-4.82,17.85-7.1,26.79Q1693.75,633.77,1640.52,633.82Z"/><path class="cls-5" d="M1642.23,629.33l6.63-17.36-11.14.25-11.5,17Z"/><path class="cls-6" d="M1623.54,611.81,1577,629l-3.53,0L1619,611.79Z"/><path class="cls-7" d="M1970.38,613.06c-110.86-10.28-218.57-2.14-329.29,2.83l4.63-4q-157.47,6.15-314.93,12.23c140.7-14.22,281.79-26.37,422.23-43-132.67,14.76-265.92,25.19-398.82,37.63,200.55-17.61,447.56-62.61,643.84-35.56C1987,592.27,1977.24,600.26,1970.38,613.06Z"/><path class="cls-7" d="M1986.68,589s-125.74-15.25-189-14.66c-123.77,12.19-338.19,33.16-481.39,46.28,205.43-20.59,477.49-68.34,681.8-39.09Z"/><path class="cls-7" d="M1116.25,610.31c48.81.29,83.12,12.66,129,15.44-68.22-2.3-134.73-6.25-202.47-8.73,5.34.7,10.43,1.57,15.65,2.37l-18.51-2.13c-12.47,1.54-17.88,5.31-32,6.16s-37.31.36-52.12-.42C1006.58,620.64,1067.45,610,1116.25,610.31Z"/><path class="cls-7" d="M1476.36,633c-65.1-2-138.68-3.15-222.29-3.86s-207.57.52-297,.79c-9.16.28-4.41.51-6.57,1.41,67.43-.45,135.77.23,202.73-.5-61.84,4.28-132.51,9.81-192.06,4.36s21.66,5.54-13.21,5c225.23.07,445,1.27,671.74,2.65C1562.24,640.37,1541.47,635,1476.36,633Z"/><path class="cls-6" d="M1753.69,612.69c-.23,7-.4,14-.58,21l-41.35.07c.79-6.31,1.63-12.62,2.46-18.92Z"/><path class="cls-6" d="M1712.45,611.64l-11.92,22.52-9.63,0q10-11.25,20-22.49Z"/><path class="cls-6" d="M1833.93,608.68a227.29,227.29,0,0,1-2.66,25.09c-3.12,0-6.23-.09-9.35-.12a235.39,235.39,0,0,0,5.53-24.73Z"/><path class="cls-5" d="M1423.38,628c-.62-2.05-1.22-4.1-1.77-6.17,51.83-2.38,103.82-4.73,155.57-7.17-50.2,2-101.65,3.85-151.54,5.92s-98.17,4.32-147.73,6.54C1326.51,627.29,1374.86,627.64,1423.38,628Z"/><path class="cls-5" d="M1647.36,615.61c-.32.95-.65,1.9-1,2.85,108.92-5.7,214.52-14.26,323.72-4.82l.28-.58C1861.49,603,1756.09,610.74,1647.36,615.61Z"/><path class="cls-6" d="M1039.42,617.19q1,3.43,1.94,6.86l-19-.16c-.17-.88-.34-1.76-.5-2.63Z"/><path class="cls-6" d="M1093.3,619.15l1.44,5.43h5.38l.09-5.13Z"/><path class="cls-6" d="M1087.78,624.51l-2.82-5.73-11.34-.5c1.8,2.05,3.61,4.09,5.41,6.13Z"/><path class="cls-5" d="M1058.44,619.39l.6,4.82h10.33c-.68-1.61-1.37-3.21-2-4.82q90.36,3.39,180.71,7.14-102.51-5.07-205-9.57Z"/><path class="cls-7" d="M1473.08,574.46c-91.52,5.16-197.88,19.8-285.49,22.2s-155.21-8.5-238.68-8.4C1124.73,592.38,1299.92,592.34,1473.08,574.46Z"/><path class="cls-8" d="M2007.09,574.79c-133.52-23-228.94-3.75-361.73,3.86S1373.2,587.72,1239.07,594c217.11-22.53,484.27-70.44,709.7-57.75,17.38,1,41.5.83,61.42.83,26.15,0,42.82.16,42.82.16Z"/></g></svg>