<svg id="road" xmlns="http://www.w3.org/2000/svg" viewBox="0 0 1919 821"><defs><style>.cls-1{fill:#633823;}.cls-2{fill:#7c4729;}.cls-3{fill:#383838;}.cls-4{fill:#595959;}.cls-5{opacity:0.38;isolation:isolate;}.cls-6{fill:#8b8a8a;}</style></defs><g id="Layer_12" data-name="Layer 12"><rect class="cls-1" x="401.17" y="647" width="17.57" height="6.75"/><rect class="cls-2" x="401.17" y="645.68" width="17.57" height="6.75"/><rect class="cls-1" x="433.48" y="647" width="17.57" height="6.75"/><rect class="cls-2" x="433.48" y="645.68" width="17.57" height="6.75"/><rect class="cls-1" x="465.79" y="647" width="17.57" height="6.75"/><rect class="cls-2" x="465.79" y="645.68" width="17.57" height="6.75"/><rect class="cls-1" x="207.32" y="647" width="17.57" height="6.75"/><rect class="cls-2" x="207.32" y="645.68" width="17.57" height="6.75"/><rect class="cls-1" x="239.63" y="647" width="17.57" height="6.75"/><rect class="cls-2" x="239.63" y="645.68" width="17.57" height="6.75"/><rect class="cls-1" x="271.94" y="647" width="17.57" height="6.75"/><rect class="cls-2" x="271.94" y="645.68" width="17.57" height="6.75"/><rect class="cls-1" x="304.25" y="647" width="17.57" height="6.75"/><rect class="cls-2" x="304.25" y="645.68" width="17.57" height="6.75"/><rect class="cls-1" x="336.56" y="647" width="17.57" height="6.75"/><rect class="cls-2" x="336.56" y="645.68" width="17.57" height="6.75"/><rect class="cls-1" x="368.87" y="647" width="17.57" height="6.75"/><rect class="cls-2" x="368.87" y="645.68" width="17.57" height="6.75"/><rect class="cls-1" x="45.77" y="647" width="17.57" height="6.75"/><rect class="cls-2" x="45.77" y="645.68" width="17.57" height="6.75"/><rect class="cls-1" x="78.08" y="647" width="17.57" height="6.75"/><rect class="cls-2" x="78.08" y="645.68" width="17.57" height="6.75"/><rect class="cls-1" x="110.39" y="647" width="17.57" height="6.75"/><rect class="cls-2" x="110.39" y="645.68" width="17.57" height="6.75"/><rect class="cls-1" x="142.7" y="647" width="17.57" height="6.75"/><rect class="cls-2" x="142.7" y="645.68" width="17.57" height="6.75"/><rect class="cls-1" x="175.01" y="647" width="17.57" height="6.75"/><rect class="cls-2" x="175.01" y="645.68" width="17.57" height="6.75"/><rect class="cls-1" x="13.46" y="647" width="17.57" height="6.75"/><rect class="cls-2" x="13.46" y="645.68" width="17.57" height="6.75"/><rect class="cls-3" x="0.61" y="642.32" width="496.11" height="5.47"/><rect class="cls-4" x="0.61" y="639.73" width="496.11" height="2.96"/><circle class="cls-5" cx="22.24" cy="647.8" r="3"/><circle class="cls-6" cx="22.24" cy="647.8" r="2.3"/><circle class="cls-5" cx="54.55" cy="647.8" r="3"/><circle class="cls-6" cx="54.55" cy="647.8" r="2.3"/><circle class="cls-5" cx="86.86" cy="647.8" r="3"/><circle class="cls-6" cx="86.86" cy="647.8" r="2.3"/><circle class="cls-5" cx="119.17" cy="647.8" r="3"/><circle class="cls-6" cx="119.17" cy="647.8" r="2.3"/><circle class="cls-5" cx="151.48" cy="647.8" r="3"/><circle class="cls-6" cx="151.48" cy="647.8" r="2.3"/><circle class="cls-5" cx="183.79" cy="647.8" r="3"/><circle class="cls-6" cx="183.79" cy="647.8" r="2.3"/><circle class="cls-5" cx="216.1" cy="647.8" r="3"/><circle class="cls-6" cx="216.1" cy="647.8" r="2.3"/><circle class="cls-5" cx="248.41" cy="647.8" r="3"/><circle class="cls-6" cx="248.41" cy="647.8" r="2.3"/><circle class="cls-5" cx="280.72" cy="647.8" r="3"/><circle class="cls-6" cx="280.72" cy="647.8" r="2.3"/><circle class="cls-5" cx="313.03" cy="647.8" r="3"/><circle class="cls-6" cx="313.03" cy="647.8" r="2.3"/><circle class="cls-5" cx="345.34" cy="647.8" r="3"/><circle class="cls-6" cx="345.34" cy="647.8" r="2.3"/><circle class="cls-5" cx="377.65" cy="647.8" r="3"/><circle class="cls-6" cx="377.65" cy="647.8" r="2.3"/><circle class="cls-5" cx="409.96" cy="647.8" r="3"/><circle class="cls-6" cx="409.96" cy="647.8" r="2.3"/><circle class="cls-5" cx="442.27" cy="647.8" r="3"/><circle class="cls-6" cx="442.27" cy="647.8" r="2.3"/><circle class="cls-5" cx="474.58" cy="647.8" r="3"/><circle class="cls-6" cx="474.58" cy="647.8" r="2.3"/><rect class="cls-1" x="886.07" y="647" width="17.57" height="6.75"/><rect class="cls-2" x="886.07" y="645.68" width="17.57" height="6.75"/><rect class="cls-1" x="918.38" y="647" width="17.57" height="6.75"/><rect class="cls-2" x="918.38" y="645.68" width="17.57" height="6.75"/><rect class="cls-1" x="950.69" y="647" width="17.57" height="6.75"/><rect class="cls-2" x="950.69" y="645.68" width="17.57" height="6.75"/><rect class="cls-1" x="692.21" y="647" width="17.57" height="6.75"/><rect class="cls-2" x="692.21" y="645.68" width="17.57" height="6.75"/><rect class="cls-1" x="724.52" y="647" width="17.57" height="6.75"/><rect class="cls-2" x="724.52" y="645.68" width="17.57" height="6.75"/><rect class="cls-1" x="756.83" y="647" width="17.57" height="6.75"/><rect class="cls-2" x="756.83" y="645.68" width="17.57" height="6.75"/><rect class="cls-1" x="789.14" y="647" width="17.57" height="6.75"/><rect class="cls-2" x="789.14" y="645.68" width="17.57" height="6.75"/><rect class="cls-1" x="821.45" y="647" width="17.57" height="6.75"/><rect class="cls-2" x="821.45" y="645.68" width="17.57" height="6.75"/><rect class="cls-1" x="853.76" y="647" width="17.57" height="6.75"/><rect class="cls-2" x="853.76" y="645.68" width="17.57" height="6.75"/><rect class="cls-1" x="530.66" y="647" width="17.57" height="6.75"/><rect class="cls-2" x="530.66" y="645.68" width="17.57" height="6.75"/><rect class="cls-1" x="562.97" y="647" width="17.57" height="6.75"/><rect class="cls-2" x="562.97" y="645.68" width="17.57" height="6.75"/><rect class="cls-1" x="595.28" y="647" width="17.57" height="6.75"/><rect class="cls-2" x="595.28" y="645.68" width="17.57" height="6.75"/><rect class="cls-1" x="627.59" y="647" width="17.57" height="6.75"/><rect class="cls-2" x="627.59" y="645.68" width="17.57" height="6.75"/><rect class="cls-1" x="659.9" y="647" width="17.57" height="6.75"/><rect class="cls-2" x="659.9" y="645.68" width="17.57" height="6.75"/><rect class="cls-1" x="498.35" y="647" width="17.57" height="6.75"/><rect class="cls-2" x="498.35" y="645.68" width="17.57" height="6.75"/><rect class="cls-3" x="485.5" y="642.32" width="482.75" height="5.47"/><rect class="cls-4" x="485.5" y="639.73" width="482.75" height="2.96"/><circle class="cls-5" cx="507.13" cy="647.79" r="3"/><circle class="cls-6" cx="507.13" cy="647.79" r="2.3"/><circle class="cls-5" cx="539.44" cy="647.79" r="3"/><circle class="cls-6" cx="539.44" cy="647.79" r="2.3"/><circle class="cls-5" cx="571.75" cy="647.79" r="3"/><circle class="cls-6" cx="571.75" cy="647.79" r="2.3"/><circle class="cls-5" cx="604.06" cy="647.79" r="3"/><circle class="cls-6" cx="604.06" cy="647.79" r="2.3"/><circle class="cls-5" cx="636.37" cy="647.79" r="3"/><circle class="cls-6" cx="636.37" cy="647.79" r="2.3"/><circle class="cls-5" cx="668.68" cy="647.79" r="3"/><circle class="cls-6" cx="668.68" cy="647.79" r="2.3"/><circle class="cls-5" cx="700.99" cy="647.79" r="3"/><circle class="cls-6" cx="700.99" cy="647.79" r="2.3"/><circle class="cls-5" cx="733.3" cy="647.79" r="3"/><circle class="cls-6" cx="733.3" cy="647.79" r="2.3"/><circle class="cls-5" cx="765.61" cy="647.79" r="3"/><circle class="cls-6" cx="765.61" cy="647.79" r="2.3"/><circle class="cls-5" cx="797.92" cy="647.79" r="3"/><circle class="cls-6" cx="797.92" cy="647.79" r="2.3"/><circle class="cls-5" cx="830.23" cy="647.79" r="3"/><circle class="cls-6" cx="830.23" cy="647.79" r="2.3"/><circle class="cls-5" cx="862.54" cy="647.79" r="3"/><circle class="cls-6" cx="862.54" cy="647.79" r="2.3"/><circle class="cls-5" cx="894.85" cy="647.79" r="3"/><circle class="cls-6" cx="894.85" cy="647.79" r="2.3"/><circle class="cls-5" cx="927.16" cy="647.79" r="3"/><circle class="cls-6" cx="927.16" cy="647.79" r="2.3"/><circle class="cls-5" cx="959.47" cy="647.79" r="3"/><circle class="cls-6" cx="959.47" cy="647.79" r="2.3"/></g><g id="Layer_12-2" data-name="Layer 12"><rect class="cls-1" x="1351.91" y="647" width="17.57" height="6.75"/><rect class="cls-2" x="1351.91" y="645.68" width="17.57" height="6.75"/><rect class="cls-1" x="1384.22" y="647" width="17.57" height="6.75"/><rect class="cls-2" x="1384.22" y="645.68" width="17.57" height="6.75"/><rect class="cls-1" x="1416.53" y="647" width="17.57" height="6.75"/><rect class="cls-2" x="1416.53" y="645.68" width="17.57" height="6.75"/><rect class="cls-1" x="1158.06" y="647" width="17.57" height="6.75"/><rect class="cls-2" x="1158.06" y="645.68" width="17.57" height="6.75"/><rect class="cls-1" x="1190.37" y="647" width="17.57" height="6.75"/><rect class="cls-2" x="1190.37" y="645.68" width="17.57" height="6.75"/><rect class="cls-1" x="1222.68" y="647" width="17.57" height="6.75"/><rect class="cls-2" x="1222.68" y="645.68" width="17.57" height="6.75"/><rect class="cls-1" x="1254.99" y="647" width="17.57" height="6.75"/><rect class="cls-2" x="1254.99" y="645.68" width="17.57" height="6.75"/><rect class="cls-1" x="1287.3" y="647" width="17.57" height="6.75"/><rect class="cls-2" x="1287.3" y="645.68" width="17.57" height="6.75"/><rect class="cls-1" x="1319.61" y="647" width="17.57" height="6.75"/><rect class="cls-2" x="1319.61" y="645.68" width="17.57" height="6.75"/><rect class="cls-1" x="996.51" y="647" width="17.57" height="6.75"/><rect class="cls-2" x="996.51" y="645.68" width="17.57" height="6.75"/><rect class="cls-1" x="1028.82" y="647" width="17.57" height="6.75"/><rect class="cls-2" x="1028.82" y="645.68" width="17.57" height="6.75"/><rect class="cls-1" x="1061.13" y="647" width="17.57" height="6.75"/><rect class="cls-2" x="1061.13" y="645.68" width="17.57" height="6.75"/><rect class="cls-1" x="1093.44" y="647" width="17.57" height="6.75"/><rect class="cls-2" x="1093.44" y="645.68" width="17.57" height="6.75"/><rect class="cls-1" x="1125.75" y="647" width="17.57" height="6.75"/><rect class="cls-2" x="1125.75" y="645.68" width="17.57" height="6.75"/><rect class="cls-1" x="964.2" y="647" width="17.57" height="6.75"/><rect class="cls-2" x="964.2" y="645.68" width="17.57" height="6.75"/><rect class="cls-3" x="951.35" y="642.32" width="496.11" height="5.47"/><rect class="cls-4" x="951.35" y="639.73" width="496.11" height="2.96"/><circle class="cls-5" cx="972.98" cy="647.8" r="3"/><circle class="cls-6" cx="972.98" cy="647.8" r="2.3"/><circle class="cls-5" cx="1005.29" cy="647.8" r="3"/><circle class="cls-6" cx="1005.29" cy="647.8" r="2.3"/><circle class="cls-5" cx="1037.6" cy="647.8" r="3"/><circle class="cls-6" cx="1037.6" cy="647.8" r="2.3"/><circle class="cls-5" cx="1069.91" cy="647.8" r="3"/><circle class="cls-6" cx="1069.91" cy="647.8" r="2.3"/><circle class="cls-5" cx="1102.22" cy="647.8" r="3"/><circle class="cls-6" cx="1102.22" cy="647.8" r="2.3"/><circle class="cls-5" cx="1134.53" cy="647.8" r="3"/><circle class="cls-6" cx="1134.53" cy="647.8" r="2.3"/><circle class="cls-5" cx="1166.84" cy="647.8" r="3"/><circle class="cls-6" cx="1166.84" cy="647.8" r="2.3"/><circle class="cls-5" cx="1199.15" cy="647.8" r="3"/><circle class="cls-6" cx="1199.15" cy="647.8" r="2.3"/><circle class="cls-5" cx="1231.46" cy="647.8" r="3"/><circle class="cls-6" cx="1231.46" cy="647.8" r="2.3"/><circle class="cls-5" cx="1263.77" cy="647.8" r="3"/><circle class="cls-6" cx="1263.77" cy="647.8" r="2.3"/><circle class="cls-5" cx="1296.08" cy="647.8" r="3"/><circle class="cls-6" cx="1296.08" cy="647.8" r="2.3"/><circle class="cls-5" cx="1328.39" cy="647.8" r="3"/><circle class="cls-6" cx="1328.39" cy="647.8" r="2.3"/><circle class="cls-5" cx="1360.7" cy="647.8" r="3"/><circle class="cls-6" cx="1360.7" cy="647.8" r="2.3"/><circle class="cls-5" cx="1393.01" cy="647.8" r="3"/><circle class="cls-6" cx="1393.01" cy="647.8" r="2.3"/><circle class="cls-5" cx="1425.32" cy="647.8" r="3"/><circle class="cls-6" cx="1425.32" cy="647.8" r="2.3"/><rect class="cls-1" x="1836.81" y="647" width="17.57" height="6.75"/><rect class="cls-2" x="1836.81" y="645.68" width="17.57" height="6.75"/><rect class="cls-1" x="1869.12" y="647" width="17.57" height="6.75"/><rect class="cls-2" x="1869.12" y="645.68" width="17.57" height="6.75"/><rect class="cls-1" x="1901.43" y="647" width="17.57" height="6.75"/><rect class="cls-2" x="1901.43" y="645.68" width="17.57" height="6.75"/><rect class="cls-1" x="1642.95" y="647" width="17.57" height="6.75"/><rect class="cls-2" x="1642.95" y="645.68" width="17.57" height="6.75"/><rect class="cls-1" x="1675.26" y="647" width="17.57" height="6.75"/><rect class="cls-2" x="1675.26" y="645.68" width="17.57" height="6.75"/><rect class="cls-1" x="1707.57" y="647" width="17.57" height="6.75"/><rect class="cls-2" x="1707.57" y="645.68" width="17.57" height="6.75"/><rect class="cls-1" x="1739.88" y="647" width="17.57" height="6.75"/><rect class="cls-2" x="1739.88" y="645.68" width="17.57" height="6.75"/><rect class="cls-1" x="1772.19" y="647" width="17.57" height="6.75"/><rect class="cls-2" x="1772.19" y="645.68" width="17.57" height="6.75"/><rect class="cls-1" x="1804.5" y="647" width="17.57" height="6.75"/><rect class="cls-2" x="1804.5" y="645.68" width="17.57" height="6.75"/><rect class="cls-1" x="1481.4" y="647" width="17.57" height="6.75"/><rect class="cls-2" x="1481.4" y="645.68" width="17.57" height="6.75"/><rect class="cls-1" x="1513.71" y="647" width="17.57" height="6.75"/><rect class="cls-2" x="1513.71" y="645.68" width="17.57" height="6.75"/><rect class="cls-1" x="1546.02" y="647" width="17.57" height="6.75"/><rect class="cls-2" x="1546.02" y="645.68" width="17.57" height="6.75"/><rect class="cls-1" x="1578.33" y="647" width="17.57" height="6.75"/><rect class="cls-2" x="1578.33" y="645.68" width="17.57" height="6.75"/><rect class="cls-1" x="1610.64" y="647" width="17.57" height="6.75"/><rect class="cls-2" x="1610.64" y="645.68" width="17.57" height="6.75"/><rect class="cls-1" x="1449.09" y="647" width="17.57" height="6.75"/><rect class="cls-2" x="1449.09" y="645.68" width="17.57" height="6.75"/><rect class="cls-3" x="1436.24" y="642.32" width="482.75" height="5.47"/><rect class="cls-4" x="1436.24" y="639.73" width="482.75" height="2.96"/><circle class="cls-5" cx="1457.87" cy="647.79" r="3"/><circle class="cls-6" cx="1457.87" cy="647.79" r="2.3"/><circle class="cls-5" cx="1490.18" cy="647.79" r="3"/><circle class="cls-6" cx="1490.18" cy="647.79" r="2.3"/><circle class="cls-5" cx="1522.49" cy="647.79" r="3"/><circle class="cls-6" cx="1522.49" cy="647.79" r="2.3"/><circle class="cls-5" cx="1554.8" cy="647.79" r="3"/><circle class="cls-6" cx="1554.8" cy="647.79" r="2.3"/><circle class="cls-5" cx="1587.11" cy="647.79" r="3"/><circle class="cls-6" cx="1587.11" cy="647.79" r="2.3"/><circle class="cls-5" cx="1619.42" cy="647.79" r="3"/><circle class="cls-6" cx="1619.42" cy="647.79" r="2.3"/><circle class="cls-5" cx="1651.73" cy="647.79" r="3"/><circle class="cls-6" cx="1651.73" cy="647.79" r="2.3"/><circle class="cls-5" cx="1684.04" cy="647.79" r="3"/><circle class="cls-6" cx="1684.04" cy="647.79" r="2.3"/><circle class="cls-5" cx="1716.35" cy="647.79" r="3"/><circle class="cls-6" cx="1716.35" cy="647.79" r="2.3"/><circle class="cls-5" cx="1748.66" cy="647.79" r="3"/><circle class="cls-6" cx="1748.66" cy="647.79" r="2.3"/><circle class="cls-5" cx="1780.97" cy="647.79" r="3"/><circle class="cls-6" cx="1780.97" cy="647.79" r="2.3"/><circle class="cls-5" cx="1813.28" cy="647.79" r="3"/><circle class="cls-6" cx="1813.28" cy="647.79" r="2.3"/><circle class="cls-5" cx="1845.59" cy="647.79" r="3"/><circle class="cls-6" cx="1845.59" cy="647.79" r="2.3"/><circle class="cls-5" cx="1877.9" cy="647.79" r="3"/><circle class="cls-6" cx="1877.9" cy="647.79" r="2.3"/><circle class="cls-5" cx="1910.21" cy="647.79" r="3"/><circle class="cls-6" cx="1910.21" cy="647.79" r="2.3"/></g></svg>