<svg xmlns="http://www.w3.org/2000/svg" xmlns:xlink="http://www.w3.org/1999/xlink" viewBox="0 0 1919.86 821.2"><defs><style>.cls-1{isolation:isolate;}.cls-2{fill:#191919;}.cls-3,.cls-40{opacity:0.5;}.cls-4{fill:#282828;}.cls-5{fill:#3a3a3a;}.cls-6{fill:#1e1e1e;}.cls-7{fill:#eb9d14;}.cls-8{fill:#3e7a0f;}.cls-9{opacity:0.29;}.cls-10,.cls-19,.cls-22,.cls-39,.cls-40,.cls-45,.cls-48,.cls-49,.cls-53,.cls-58,.cls-61,.cls-64{fill:#fff;}.cls-10{opacity:0.25;}.cls-11{fill:#7a7a7a;}.cls-12{fill:#545454;}.cls-13{opacity:0.42;}.cls-14{opacity:0.16;}.cls-15{fill:#2a4c0a;}.cls-16,.cls-19{opacity:0.23;}.cls-17{fill:#ffbf5c;}.cls-18{fill:#424242;}.cls-20{fill:#a7d0d9;}.cls-21{opacity:0.47;}.cls-22,.cls-51{opacity:0.4;}.cls-23{opacity:0.27;}.cls-24,.cls-61{opacity:0.28;}.cls-25{fill:#5faf19;}.cls-26{fill:#ba7b13;}.cls-27{fill:#8f5d10;}.cls-28{fill:#ffbd61;}.cls-29{fill:url(#linear-gradient);}.cls-30{fill:#c88111;}.cls-31{fill:#111;}.cls-32{fill:#686868;}.cls-33{fill:#0c0c0c;}.cls-34{fill:#4f4f4f;}.cls-35{opacity:0.32;}.cls-36{fill:#79cdcf;}.cls-37{fill:#c67f0e;}.cls-38{fill:#262626;}.cls-39{opacity:0.17;}.cls-41{fill:#707070;}.cls-42,.cls-46{fill:#ad6e08;}.cls-43{fill:#35630d;}.cls-44{fill:#ffb248;}.cls-45{opacity:0.26;}.cls-46{opacity:0.65;}.cls-47{fill:#db9740;}.cls-48{opacity:0.22;}.cls-49{opacity:0.18;}.cls-50{opacity:0.35;}.cls-52{fill:#3d3d3d;}.cls-53{opacity:0.21;}.cls-54{opacity:0.54;}.cls-55{opacity:0.46;}.cls-56{fill:#2d560a;}.cls-57{fill:#1e3307;}.cls-58{opacity:0.31;}.cls-59{opacity:0.33;}.cls-60{fill:#233f07;}.cls-62{fill:#19a5a5;}.cls-63{mix-blend-mode:overlay;}</style><linearGradient id="linear-gradient" x1="5867.78" y1="623.88" x2="5867.78" y2="630.12" gradientTransform="translate(-5285.7)" gradientUnits="userSpaceOnUse"><stop offset="0" stop-color="#8f5d10"/><stop offset="1" stop-color="#ffbd61"/></linearGradient></defs><g class="cls-1"><g id="road"><rect class="cls-2" x="468.73" y="605.86" width="223.51" height="8.25" transform="translate(1160.98 1219.97) rotate(-180)"/><rect class="cls-3" x="495.43" y="605.98" width="24.1" height="7.39" transform="translate(1014.97 1219.35) rotate(-180)"/><rect x="524.83" y="608.79" width="9.12" height="23.92" transform="translate(1058.78 1241.51) rotate(-180)"/><rect class="cls-4" x="523.27" y="607.86" width="12.23" height="1.87" rx="0.63" transform="translate(1058.78 1217.59) rotate(-180)"/><rect class="cls-4" x="523.27" y="610.25" width="12.23" height="1.87" rx="0.63" transform="translate(1058.78 1222.37) rotate(-180)"/><rect class="cls-4" x="523.27" y="612.65" width="12.23" height="1.87" rx="0.63" transform="translate(1058.78 1227.16) rotate(-180)"/><rect class="cls-4" x="523.27" y="615.04" width="12.23" height="1.87" rx="0.63" transform="translate(1058.78 1231.94) rotate(180)"/><rect class="cls-4" x="523.27" y="617.43" width="12.23" height="1.87" rx="0.63" transform="translate(1058.78 1236.73) rotate(180)"/><rect class="cls-4" x="523.27" y="619.82" width="12.23" height="1.87" rx="0.63" transform="translate(1058.78 1241.51) rotate(-180)"/><rect class="cls-4" x="523.27" y="622.21" width="12.23" height="1.87" rx="0.63" transform="translate(1058.78 1246.3) rotate(-180)"/><rect class="cls-4" x="523.27" y="624.61" width="12.23" height="1.87" rx="0.63" transform="translate(1058.78 1251.08) rotate(-180)"/><rect class="cls-4" x="523.27" y="627" width="12.23" height="1.87" rx="0.63" transform="translate(1058.78 1255.86) rotate(180)"/><rect class="cls-4" x="523.27" y="629.39" width="12.23" height="1.87" rx="0.63" transform="translate(1058.78 1260.65) rotate(-180)"/><rect class="cls-4" x="523.27" y="631.78" width="12.23" height="1.87" rx="0.63" transform="translate(1058.78 1265.43) rotate(180)"/><rect x="481.14" y="608.79" width="9.12" height="23.92" transform="translate(971.39 1241.51) rotate(-180)"/><rect class="cls-4" x="479.58" y="607.86" width="12.23" height="1.87" rx="0.63" transform="translate(971.39 1217.59) rotate(-180)"/><rect class="cls-4" x="479.58" y="610.25" width="12.23" height="1.87" rx="0.63" transform="translate(971.39 1222.37) rotate(180)"/><rect class="cls-4" x="479.58" y="612.65" width="12.23" height="1.87" rx="0.63" transform="translate(971.39 1227.16) rotate(180)"/><rect class="cls-4" x="479.58" y="615.04" width="12.23" height="1.87" rx="0.63" transform="translate(971.39 1231.94) rotate(180)"/><rect class="cls-4" x="479.58" y="617.43" width="12.23" height="1.87" rx="0.63" transform="translate(971.39 1236.73) rotate(-180)"/><rect class="cls-4" x="479.58" y="619.82" width="12.23" height="1.87" rx="0.63" transform="translate(971.39 1241.51) rotate(-180)"/><rect class="cls-4" x="479.58" y="622.21" width="12.23" height="1.87" rx="0.63" transform="translate(971.39 1246.3) rotate(180)"/><rect class="cls-4" x="479.58" y="624.61" width="12.23" height="1.87" rx="0.63" transform="translate(971.39 1251.08) rotate(-180)"/><rect class="cls-4" x="479.58" y="627" width="12.23" height="1.87" rx="0.63" transform="translate(971.39 1255.86) rotate(180)"/><rect class="cls-4" x="479.58" y="629.39" width="12.23" height="1.87" rx="0.63" transform="translate(971.39 1260.65) rotate(-180)"/><rect class="cls-4" x="479.58" y="631.78" width="12.23" height="1.87" rx="0.63" transform="translate(971.39 1265.43) rotate(-180)"/><rect class="cls-5" x="482.08" y="627" width="49.22" height="8.09" transform="translate(1013.37 1262.1) rotate(-180)"/><rect class="cls-2" x="636.9" y="605.98" width="37.97" height="22.44" transform="translate(1311.76 1234.4) rotate(-180)"/><rect class="cls-3" x="643.83" y="605.98" width="24.1" height="7.39" transform="translate(1311.76 1219.35) rotate(-180)"/><rect x="673.23" y="608.79" width="9.12" height="23.92" transform="translate(1355.58 1241.51) rotate(-180)"/><rect class="cls-4" x="671.67" y="607.86" width="12.23" height="1.87" rx="0.63" transform="translate(1355.58 1217.59) rotate(180)"/><rect class="cls-4" x="671.67" y="610.25" width="12.23" height="1.87" rx="0.63" transform="translate(1355.58 1222.37) rotate(180)"/><rect class="cls-4" x="671.67" y="612.65" width="12.23" height="1.87" rx="0.63" transform="translate(1355.58 1227.16) rotate(-180)"/><rect class="cls-4" x="671.67" y="615.04" width="12.23" height="1.87" rx="0.63" transform="translate(1355.58 1231.94) rotate(-180)"/><rect class="cls-4" x="671.67" y="617.43" width="12.23" height="1.87" rx="0.63" transform="translate(1355.58 1236.73) rotate(180)"/><rect class="cls-4" x="671.67" y="619.82" width="12.23" height="1.87" rx="0.63" transform="translate(1355.58 1241.51) rotate(-180)"/><rect class="cls-4" x="671.67" y="622.21" width="12.23" height="1.87" rx="0.63" transform="translate(1355.58 1246.3) rotate(180)"/><rect class="cls-4" x="671.67" y="624.61" width="12.23" height="1.87" rx="0.63" transform="translate(1355.58 1251.08) rotate(180)"/><rect class="cls-4" x="671.67" y="627" width="12.23" height="1.87" rx="0.63" transform="translate(1355.58 1255.86) rotate(180)"/><rect class="cls-4" x="671.67" y="629.39" width="12.23" height="1.87" rx="0.63" transform="translate(1355.58 1260.65) rotate(180)"/><rect class="cls-4" x="671.67" y="631.78" width="12.23" height="1.87" rx="0.63" transform="translate(1355.58 1265.43) rotate(-180)"/><rect x="629.54" y="608.79" width="9.12" height="23.92" transform="translate(1268.19 1241.51) rotate(-180)"/><rect class="cls-4" x="627.98" y="607.86" width="12.23" height="1.87" rx="0.63" transform="translate(1268.19 1217.59) rotate(-180)"/><rect class="cls-4" x="627.98" y="610.25" width="12.23" height="1.87" rx="0.63" transform="translate(1268.19 1222.37) rotate(-180)"/><rect class="cls-4" x="627.98" y="612.65" width="12.23" height="1.87" rx="0.63" transform="translate(1268.19 1227.16) rotate(-180)"/><rect class="cls-4" x="627.98" y="615.04" width="12.23" height="1.87" rx="0.63" transform="translate(1268.19 1231.94) rotate(-180)"/><rect class="cls-4" x="627.98" y="617.43" width="12.23" height="1.87" rx="0.63" transform="translate(1268.19 1236.73) rotate(180)"/><rect class="cls-4" x="627.98" y="619.82" width="12.23" height="1.87" rx="0.63" transform="translate(1268.19 1241.51) rotate(-180)"/><rect class="cls-4" x="627.98" y="622.21" width="12.23" height="1.87" rx="0.63" transform="translate(1268.19 1246.3) rotate(-180)"/><rect class="cls-4" x="627.98" y="624.61" width="12.23" height="1.87" rx="0.63" transform="translate(1268.19 1251.08) rotate(-180)"/><rect class="cls-4" x="627.98" y="627" width="12.23" height="1.87" rx="0.63" transform="translate(1268.19 1255.86) rotate(180)"/><rect class="cls-4" x="627.98" y="629.39" width="12.23" height="1.87" rx="0.63" transform="translate(1268.19 1260.65) rotate(-180)"/><rect class="cls-4" x="627.98" y="631.78" width="12.23" height="1.87" rx="0.63" transform="translate(1268.19 1265.43) rotate(180)"/><rect class="cls-5" x="630.48" y="627" width="49.22" height="8.09" transform="translate(1310.17 1262.1) rotate(-180)"/><rect class="cls-2" x="488.5" y="605.98" width="37.97" height="22.44" transform="translate(1014.97 1234.4) rotate(-180)"/><rect class="cls-6" x="743.06" y="598.51" width="7.15" height="15.02"/><path class="cls-7" d="M679.19,482.9c0,.06,0,.12,0,.19H665.5a1.37,1.37,0,0,1,0-.19,1.44,1.44,0,0,1,.13-.58,1.84,1.84,0,0,1,.31-.51h12.84a2.49,2.49,0,0,1,.31.51A1.43,1.43,0,0,1,679.19,482.9Z"/><rect class="cls-8" x="665.48" y="482.9" width="13.7" height="11.59"/><path class="cls-9" d="M679.19,482.9v1.52H665.48V482.9a1.44,1.44,0,0,1,.13-.58,1.84,1.84,0,0,1,.31-.51h12.84a2.49,2.49,0,0,1,.31.51A1.43,1.43,0,0,1,679.19,482.9Z"/><path class="cls-7" d="M681.64,482.06a2.26,2.26,0,0,1,0,.26H663a2.26,2.26,0,0,1,0-.26c0-1.42,1.55-2.67,3.92-3.44a18.19,18.19,0,0,1,5.39-.77C677.48,477.85,681.64,479.73,681.64,482.06Z"/><path class="cls-7" d="M680.62,492.8a1.64,1.64,0,0,1,0,.23H664.07a1.69,1.69,0,0,1,0-.23,1.88,1.88,0,0,1,.3-1,3.31,3.31,0,0,1,.79-.86h14.37a3.55,3.55,0,0,1,.8.86A2,2,0,0,1,680.62,492.8Z"/><path class="cls-10" d="M681.64,482.06a2.26,2.26,0,0,1,0,.26h-5.75c-.18-.18-.36-.35-.55-.51a14.79,14.79,0,0,0-8.38-3.19,18.19,18.19,0,0,1,5.39-.77C677.48,477.85,681.64,479.73,681.64,482.06Z"/><path class="cls-7" d="M497.05,482.9a1.28,1.28,0,0,1,0,.19H483.36a1.28,1.28,0,0,1,0-.19,1.43,1.43,0,0,1,.12-.58,2.11,2.11,0,0,1,.31-.51h12.84a2.11,2.11,0,0,1,.31.51A1.43,1.43,0,0,1,497.05,482.9Z"/><rect class="cls-8" x="483.35" y="482.9" width="13.7" height="11.59"/><path class="cls-9" d="M497.05,482.9v1.52h-13.7V482.9a1.43,1.43,0,0,1,.12-.58,2.11,2.11,0,0,1,.31-.51h12.84a2.11,2.11,0,0,1,.31.51A1.43,1.43,0,0,1,497.05,482.9Z"/><path class="cls-7" d="M499.51,482.06a2.28,2.28,0,0,1,0,.26H480.91a2.28,2.28,0,0,1,0-.26c0-1.42,1.55-2.67,3.93-3.44a18.12,18.12,0,0,1,5.38-.77C495.34,477.85,499.51,479.73,499.51,482.06Z"/><path class="cls-7" d="M498.48,492.8c0,.08,0,.16,0,.23H481.93a1.69,1.69,0,0,1,0-.23,1.88,1.88,0,0,1,.3-1,3.49,3.49,0,0,1,.79-.86h14.38a3.49,3.49,0,0,1,.79.86A1.88,1.88,0,0,1,498.48,492.8Z"/><path class="cls-10" d="M499.51,482.06a2.28,2.28,0,0,1,0,.26h-5.75l-.54-.51a14.84,14.84,0,0,0-8.38-3.19,18.12,18.12,0,0,1,5.38-.77C495.34,477.85,499.51,479.73,499.51,482.06Z"/><rect class="cls-11" x="436.57" y="606.91" width="1.99" height="13.36" transform="translate(1051.15 176.03) rotate(90)"/><rect class="cls-11" x="436.57" y="614.46" width="1.99" height="13.36" transform="translate(1058.7 183.58) rotate(90)"/><rect class="cls-11" x="436.57" y="622.01" width="1.99" height="13.36" transform="translate(1066.25 191.13) rotate(90)"/><rect class="cls-11" x="436.57" y="629.56" width="1.99" height="13.36" transform="translate(1073.81 198.68) rotate(90)"/><rect class="cls-12" x="430.14" y="606.84" width="1.99" height="34.15"/><rect class="cls-12" x="443.05" y="606.84" width="1.99" height="34.15"/><rect class="cls-12" x="436.57" y="607.69" width="1.99" height="13.36" transform="translate(1051.93 176.81) rotate(90)"/><rect class="cls-12" x="436.57" y="615.24" width="1.99" height="13.36" transform="translate(1059.49 184.36) rotate(90)"/><rect class="cls-12" x="436.57" y="622.8" width="1.99" height="13.36" transform="translate(1067.04 191.92) rotate(90)"/><rect class="cls-12" x="436.57" y="630.35" width="1.99" height="13.36" transform="translate(1074.59 199.47) rotate(90)"/><rect class="cls-13" x="430.14" y="606.84" width="1.99" height="4.17"/><rect class="cls-13" x="443.05" y="606.84" width="1.99" height="4.17"/><rect class="cls-7" x="696.6" y="578.35" width="38.25" height="3.68"/><path class="cls-14" d="M734.84,580.28V582H696.6v-1.75Z"/><rect class="cls-7" x="731.69" y="580.28" width="3.16" height="22.03"/><rect class="cls-7" x="721.56" y="580.28" width="3.16" height="22.03"/><rect class="cls-7" x="711.44" y="580.28" width="3.16" height="22.03"/><rect class="cls-7" x="701.32" y="580.28" width="3.16" height="22.03"/><rect class="cls-7" x="425.88" y="578.35" width="38.25" height="3.68"/><path class="cls-14" d="M425.88,580.28V582h38.25v-1.75Z"/><rect class="cls-7" x="425.88" y="580.28" width="3.16" height="22.03"/><rect class="cls-7" x="436.01" y="580.28" width="3.16" height="22.03"/><rect class="cls-7" x="446.13" y="580.28" width="3.16" height="22.03"/><rect class="cls-7" x="456.26" y="580.28" width="3.16" height="22.03"/><path class="cls-15" d="M614.41,607.86v16.77c0,3-2.82,5.42-6.3,5.42H556c-3.48,0-6.31-2.43-6.31-5.42V607.86Z"/><rect class="cls-16" x="549.73" y="607.86" width="64.68" height="5.44"/><rect class="cls-8" x="464.13" y="506.54" width="232.71" height="97.46" transform="translate(1160.98 1110.54) rotate(-180)"/><rect class="cls-17" x="464.13" y="554.27" width="232.71" height="4.78" transform="translate(1160.98 1113.32) rotate(-180)"/><rect class="cls-18" x="418.29" y="601.73" width="323.71" height="8.16" transform="translate(1160.29 1211.63) rotate(-180)"/><rect class="cls-19" x="418.29" y="601.73" width="323.71" height="2.17" transform="translate(1160.29 1205.64) rotate(-180)"/><path class="cls-7" d="M466.61,492.4H694.37a14.14,14.14,0,0,1,14.14,14.14h-256A14.14,14.14,0,0,1,466.61,492.4Z"/><path class="cls-19" d="M452.46,506.54a14.14,14.14,0,0,1,14.15-14.14H694.37a14.14,14.14,0,0,1,14.14,14.14h-.45A14.16,14.16,0,0,0,694.37,496H466.61a14.16,14.16,0,0,0-13.69,10.58Z"/><path class="cls-12" d="M745,595.66h0v20.75h0a4.08,4.08,0,0,1-4.08-4.08V599.74A4.08,4.08,0,0,1,745,595.66Z"/><path class="cls-12" d="M415.12,595.65h0V616.4h0a4.08,4.08,0,0,0,4.08-4.08v-12.6A4.08,4.08,0,0,0,415.12,595.65Z"/><rect class="cls-20" x="652.37" y="511.49" width="21.8" height="40.17" rx="1.92"/><path class="cls-21" d="M672.25,511h-18a2.43,2.43,0,0,0-2.42,2.42v36.33a2.43,2.43,0,0,0,2.42,2.42h18a2.42,2.42,0,0,0,2.42-2.42V513.41A2.42,2.42,0,0,0,672.25,511Zm1.92,38.75a1.92,1.92,0,0,1-1.92,1.92h-18a1.92,1.92,0,0,1-1.92-1.92V513.41a1.92,1.92,0,0,1,1.92-1.92h18a1.92,1.92,0,0,1,1.92,1.92Z"/><polygon class="cls-22" points="659.41 511.49 652.37 518.53 652.37 522.06 662.94 511.49 659.41 511.49"/><path class="cls-22" d="M674.17,513.41a1.92,1.92,0,0,0-1.92-1.92h-.09l-19.79,19.79v17.78l21.8-21.8Z"/><path class="cls-23" d="M672.25,510.11h-18a3.3,3.3,0,0,0-3.3,3.3v36.33a3.3,3.3,0,0,0,3.3,3.3h18a3.31,3.31,0,0,0,3.31-3.3V513.41A3.31,3.31,0,0,0,672.25,510.11Zm2.42,39.63a2.42,2.42,0,0,1-2.42,2.42h-18a2.43,2.43,0,0,1-2.42-2.42V513.41a2.43,2.43,0,0,1,2.42-2.42h18a2.42,2.42,0,0,1,2.42,2.42Z"/><rect class="cls-20" x="612.39" y="511.49" width="21.8" height="40.17" rx="1.92"/><path class="cls-21" d="M632.26,511h-18a2.42,2.42,0,0,0-2.42,2.42v36.33a2.42,2.42,0,0,0,2.42,2.42h18a2.43,2.43,0,0,0,2.43-2.42V513.41A2.43,2.43,0,0,0,632.26,511Zm1.93,38.75a1.92,1.92,0,0,1-1.93,1.92h-18a1.92,1.92,0,0,1-1.92-1.92V513.41a1.92,1.92,0,0,1,1.92-1.92h18a1.92,1.92,0,0,1,1.93,1.92Z"/><polygon class="cls-22" points="619.42 511.49 612.39 518.53 612.39 522.06 622.96 511.49 619.42 511.49"/><path class="cls-22" d="M634.19,513.41a1.92,1.92,0,0,0-1.93-1.92h-.09l-19.78,19.79v17.78l21.8-21.8Z"/><path class="cls-23" d="M632.26,510.11h-18a3.31,3.31,0,0,0-3.31,3.3v36.33a3.31,3.31,0,0,0,3.31,3.3h18a3.31,3.31,0,0,0,3.31-3.3V513.41A3.31,3.31,0,0,0,632.26,510.11Zm2.43,39.63a2.43,2.43,0,0,1-2.43,2.42h-18a2.42,2.42,0,0,1-2.42-2.42V513.41a2.42,2.42,0,0,1,2.42-2.42h18a2.43,2.43,0,0,1,2.43,2.42Z"/><rect class="cls-20" x="572.4" y="511.49" width="21.8" height="40.17" rx="1.92"/><path class="cls-21" d="M592.28,511h-18a2.43,2.43,0,0,0-2.42,2.42v36.33a2.43,2.43,0,0,0,2.42,2.42h18a2.43,2.43,0,0,0,2.42-2.42V513.41A2.43,2.43,0,0,0,592.28,511Zm1.92,38.75a1.92,1.92,0,0,1-1.92,1.92h-18a1.92,1.92,0,0,1-1.92-1.92V513.41a1.92,1.92,0,0,1,1.92-1.92h18a1.92,1.92,0,0,1,1.92,1.92Z"/><polygon class="cls-22" points="579.43 511.49 572.4 518.53 572.4 522.06 582.97 511.49 579.43 511.49"/><path class="cls-22" d="M594.2,513.41a1.92,1.92,0,0,0-1.92-1.92h-.1L572.4,531.28v17.78l21.8-21.8Z"/><path class="cls-23" d="M592.28,510.11h-18a3.3,3.3,0,0,0-3.3,3.3v36.33a3.3,3.3,0,0,0,3.3,3.3h18a3.3,3.3,0,0,0,3.3-3.3V513.41A3.3,3.3,0,0,0,592.28,510.11Zm2.42,39.63a2.43,2.43,0,0,1-2.42,2.42h-18a2.43,2.43,0,0,1-2.42-2.42V513.41a2.43,2.43,0,0,1,2.42-2.42h18a2.43,2.43,0,0,1,2.42,2.42Z"/><rect class="cls-20" x="532.41" y="511.49" width="21.8" height="40.17" rx="1.92"/><path class="cls-21" d="M552.29,511h-18a2.43,2.43,0,0,0-2.42,2.42v36.33a2.43,2.43,0,0,0,2.42,2.42h18a2.42,2.42,0,0,0,2.42-2.42V513.41A2.42,2.42,0,0,0,552.29,511Zm1.92,38.75a1.92,1.92,0,0,1-1.92,1.92h-18a1.92,1.92,0,0,1-1.92-1.92V513.41a1.92,1.92,0,0,1,1.92-1.92h18a1.92,1.92,0,0,1,1.92,1.92Z"/><polygon class="cls-22" points="539.45 511.49 532.41 518.53 532.41 522.06 542.98 511.49 539.45 511.49"/><path class="cls-22" d="M554.21,513.41a1.92,1.92,0,0,0-1.92-1.92h-.09l-19.79,19.79v17.78l21.8-21.8Z"/><path class="cls-23" d="M552.29,510.11h-18a3.3,3.3,0,0,0-3.3,3.3v36.33a3.3,3.3,0,0,0,3.3,3.3h18a3.3,3.3,0,0,0,3.3-3.3V513.41A3.3,3.3,0,0,0,552.29,510.11Zm2.42,39.63a2.42,2.42,0,0,1-2.42,2.42h-18a2.43,2.43,0,0,1-2.42-2.42V513.41a2.43,2.43,0,0,1,2.42-2.42h18a2.42,2.42,0,0,1,2.42,2.42Z"/><rect class="cls-20" x="492.43" y="511.49" width="21.8" height="40.17" rx="1.92"/><path class="cls-21" d="M512.3,511H494.35a2.42,2.42,0,0,0-2.42,2.42v36.33a2.42,2.42,0,0,0,2.42,2.42H512.3a2.42,2.42,0,0,0,2.42-2.42V513.41A2.42,2.42,0,0,0,512.3,511Zm1.93,38.75a1.92,1.92,0,0,1-1.93,1.92H494.35a1.92,1.92,0,0,1-1.93-1.92V513.41a1.92,1.92,0,0,1,1.93-1.92H512.3a1.92,1.92,0,0,1,1.93,1.92Z"/><polygon class="cls-22" points="499.46 511.49 492.43 518.53 492.43 522.06 503 511.49 499.46 511.49"/><path class="cls-22" d="M514.23,513.41a1.92,1.92,0,0,0-1.93-1.92h-.09l-19.78,19.79v17.78l21.8-21.8Z"/><path class="cls-23" d="M512.3,510.11H494.35a3.31,3.31,0,0,0-3.31,3.3v36.33a3.31,3.31,0,0,0,3.31,3.3H512.3a3.31,3.31,0,0,0,3.31-3.3V513.41A3.31,3.31,0,0,0,512.3,510.11Zm2.42,39.63a2.42,2.42,0,0,1-2.42,2.42H494.35a2.42,2.42,0,0,1-2.42-2.42V513.41a2.42,2.42,0,0,1,2.42-2.42H512.3a2.42,2.42,0,0,1,2.42,2.42Z"/><rect class="cls-16" x="464.13" y="506.54" width="232.71" height="9.08"/><path class="cls-7" d="M613.73,627c0,3.57-1.18,6.58-2.78,7.43a2,2,0,0,1-.94.25,2.88,2.88,0,0,1-2.29-1.63,13.49,13.49,0,0,1,0-12.09,2.88,2.88,0,0,1,2.29-1.63,2,2,0,0,1,.94.24C612.55,620.43,613.73,623.43,613.73,627Z"/><path class="cls-24" d="M611.22,627c0,2.76-.1,5.32-.27,7.43a2,2,0,0,1-.94.25,2.88,2.88,0,0,1-2.29-1.63c.11-1.81.17-3.87.17-6s-.06-4.23-.17-6a2.88,2.88,0,0,1,2.29-1.63,2,2,0,0,1,.94.24C611.12,621.69,611.22,624.25,611.22,627Z"/><path class="cls-7" d="M550.45,627c0,3.57,1.18,6.58,2.78,7.43a2,2,0,0,0,.94.25,2.87,2.87,0,0,0,2.29-1.63,13.49,13.49,0,0,0,0-12.09,2.87,2.87,0,0,0-2.29-1.63,2,2,0,0,0-.94.24C551.63,620.43,550.45,623.43,550.45,627Z"/><path class="cls-24" d="M553,627c0,2.76.1,5.32.26,7.43a2,2,0,0,0,.94.25,2.87,2.87,0,0,0,2.29-1.63c-.11-1.81-.17-3.87-.17-6s.06-4.23.17-6a2.87,2.87,0,0,0-2.29-1.63,2,2,0,0,0-.94.24C553.07,621.69,553,624.25,553,627Z"/><path class="cls-25" d="M560,627a61.44,61.44,0,0,1-.88,12c-.18.72-.38,1.14-.59,1.16h0c-.77,0-1.41-5.19-1.49-11.83v-2.69c0-1.76.08-3.42.18-4.91.07-1.28.18-2.44.3-3.42.26-2.17.62-3.5,1-3.5h0c.21,0,.41.43.59,1.16a29.87,29.87,0,0,1,.62,4.55c0,.39.06.79.08,1.21C559.93,622.61,560,624.74,560,627Z"/><path class="cls-8" d="M558.52,640.18h-3.31c-.85,0-1.53-5.9-1.53-13.18,0-2.26.07-4.39.18-6.25.09-1.36.2-2.58.34-3.6v-.22l0-.19,0-.19h0c0-.09,0-.17,0-.26v0c0-.09,0-.18,0-.27v0l0-.17v-.08c0-.12.05-.24.08-.36l0-.14c0-.07,0-.13.05-.2h0l.06-.23a.76.76,0,0,1,0-.11v0l0-.05,0-.08,0-.06,0,0v0l0,0,0-.08h0l0-.07h0a.41.41,0,0,0,0-.09l0,0,0,0,.07-.08,0,0h.05l0,0h3.32l0,0h0v0l-.08.08v0l0,0a.41.41,0,0,0,0,.09h0l0,.07h0l0,.08a.08.08,0,0,0,0,0l0,0,0,0,0,.06,0,.08s0,0,0,.05l0,0,0,.11a2,2,0,0,1-.07.23h0a1.46,1.46,0,0,1,0,.2l0,.14c0,.12-.05.24-.07.36l0,.08,0,.17v0c0,.09,0,.18,0,.27v0a2.34,2.34,0,0,0,0,.26h0c0,.06,0,.13,0,.19l0,.19a.31.31,0,0,0,0,.1s0,.06,0,.09v0l0,.18c-.13,1-.23,2.14-.31,3.42-.09,1.49-.15,3.15-.18,4.91v2.69C557.09,634.94,557.73,640.1,558.52,640.18Z"/><ellipse class="cls-25" cx="605.69" cy="627" rx="1.49" ry="13.17"/><path class="cls-8" d="M607.18,627c0-7.27-.69-13.17-1.53-13.17H609c.84,0,1.52,5.9,1.52,13.17s-.68,13.18-1.52,13.18h-3.33C606.49,640.18,607.18,634.28,607.18,627Z"/><path class="cls-16" d="M558.53,613.83h-.06l0,0h0v0l-.08.08v0l0,0a.41.41,0,0,0,0,.09h0l0,.07h0l0,.08,0,0,0,0,0,0,0,.06,0,.08v.05l0,0,0,.11a2,2,0,0,1-.07.23h0a1.46,1.46,0,0,1,0,.2l0,.14c0,.12-.05.24-.07.36l0,.08,0,.17v0c0,.09,0,.18,0,.27v0a2.34,2.34,0,0,0,0,.26h0c0,.06,0,.13,0,.19l0,.19v.1l0,.09v0c0,.06,0,.12,0,.18h-3.33l0-.18v-.22l0-.19,0-.19h0c0-.09,0-.17,0-.26v0c0-.09,0-.18,0-.27v0l0-.17v-.08c0-.12.05-.24.08-.36l0-.14c0-.07,0-.13.05-.2h0l.06-.23a.76.76,0,0,1,0-.11v0l0-.05,0-.08,0-.06,0,0v0l0,0,0-.08h0l0-.07h0a.41.41,0,0,0,0-.09l0,0,0,0,.07-.08,0,0h.05l0,0h3.38Z"/><path class="cls-16" d="M609,613.83h-3.33c.4,0,.76,1.33,1,3.5H610C609.74,615.16,609.38,613.83,609,613.83Z"/><path class="cls-7" d="M606.58,627a76,76,0,0,1-.41,8.5c-.25,2.17-.6,3.52-1,3.52H559c-.77,0-1.39-5.38-1.39-12,0-2.29.08-4.43.2-6.25,0-.42.07-.83.1-1.21v-.13c0-.13,0-.25,0-.38h0l0-.21v0a1.1,1.1,0,0,1,0-.18,1.23,1.23,0,0,1,0-.2l.06-.49v0l0-.21v0c0-.08,0-.17,0-.25s0-.09,0-.13l0-.19,0-.19,0-.15v-.11s0,0,0-.08v-.07q0-.21.09-.39s0-.05,0-.07l0-.06,0-.13a2.57,2.57,0,0,1,.31-.71l0,0h0l0,0h0l0,0h46.44l0,0h0l0,0h0l0,0a2.3,2.3,0,0,1,.31.71l0,.13a.14.14,0,0,1,0,.06s0,0,0,.07.06.25.09.39,0,0,0,.07,0,.05,0,.08,0,.06,0,.09.06.32.08.5l0,.08c0,.09,0,.18,0,.27a.88.88,0,0,1,0,.17l0,.1a.77.77,0,0,0,0,.15c0,.12,0,.23,0,.35a2.36,2.36,0,0,0,0,.28c0,.06,0,.12,0,.18s0,.08,0,.12v0c0,.06,0,.12,0,.18s0,.17,0,.25,0,.12,0,.18C606.47,621.59,606.58,624.18,606.58,627Z"/><path class="cls-16" d="M606.28,619.54H557.86v-.13c0-.13,0-.25,0-.38h0l0-.21v0a1.1,1.1,0,0,1,0-.18,1.23,1.23,0,0,1,0-.2l.06-.49v0l0-.21v0c0-.08,0-.17,0-.25s0-.09,0-.13l0-.19,0-.19,0-.15v-.11s0,0,0-.08v-.07q0-.21.09-.39s0-.05,0-.07l0-.06,0-.13a2.57,2.57,0,0,1,.31-.71l0,0h0l0,0h0l0,0h46.44l0,0h0l0,0h0l0,0a2.3,2.3,0,0,1,.31.71l0,.13a.14.14,0,0,1,0,.06s0,0,0,.07.06.25.09.39,0,0,0,.07,0,.05,0,.08,0,.06,0,.09.06.32.08.5l0,.08c0,.09,0,.18,0,.27a.88.88,0,0,1,0,.17l0,.1a.77.77,0,0,0,0,.15c0,.12,0,.23,0,.35a2.36,2.36,0,0,0,0,.28c0,.06,0,.12,0,.18s0,.08,0,.12v0c0,.06,0,.12,0,.18s0,.17,0,.25S606.27,619.48,606.28,619.54Z"/><rect class="cls-26" x="561.09" y="616.02" width="41.98" height="3.96" rx="1.33"/><path class="cls-27" d="M601.61,616H562.54a1.46,1.46,0,0,0-1.45,1.46v.64a1.46,1.46,0,0,1,1.45-1.46h39.07a1.47,1.47,0,0,1,1.46,1.46v-.64A1.47,1.47,0,0,0,601.61,616Z"/><rect class="cls-26" x="561.09" y="634.02" width="41.98" height="3.96" rx="1.33"/><path class="cls-28" d="M601.61,638H562.54a1.46,1.46,0,0,1-1.45-1.46v-.64a1.45,1.45,0,0,0,1.45,1.45h39.07a1.46,1.46,0,0,0,1.46-1.45v.64A1.47,1.47,0,0,1,601.61,638Z"/><rect class="cls-29" x="561.09" y="623.88" width="41.98" height="6.24" rx="2.1"/><rect class="cls-26" x="561.79" y="624.58" width="40.69" height="4.84" rx="1.63"/><rect class="cls-17" x="686.69" y="557.66" width="2.45" height="44.08" transform="translate(1375.83 1159.39) rotate(-180)"/><rect class="cls-30" x="685.63" y="557.66" width="2.45" height="44.08" transform="translate(1373.71 1159.39) rotate(-180)"/><rect class="cls-7" x="686.19" y="557.66" width="2.45" height="44.08" transform="translate(1374.83 1159.39) rotate(-180)"/><rect class="cls-17" x="676.04" y="557.66" width="2.45" height="44.08" transform="translate(1354.52 1159.39) rotate(-180)"/><rect class="cls-30" x="674.98" y="557.66" width="2.45" height="44.08" transform="translate(1352.41 1159.39) rotate(-180)"/><rect class="cls-7" x="675.54" y="557.66" width="2.45" height="44.08" transform="translate(1353.53 1159.39) rotate(-180)"/><rect class="cls-17" x="665.39" y="557.66" width="2.45" height="44.08" transform="translate(1333.22 1159.39) rotate(-180)"/><rect class="cls-30" x="664.33" y="557.66" width="2.45" height="44.08" transform="translate(1331.11 1159.39) rotate(-180)"/><rect class="cls-7" x="664.89" y="557.66" width="2.45" height="44.08" transform="translate(1332.22 1159.39) rotate(-180)"/><rect class="cls-17" x="654.73" y="557.66" width="2.45" height="44.08" transform="translate(1311.92 1159.39) rotate(-180)"/><rect class="cls-30" x="653.68" y="557.66" width="2.45" height="44.08" transform="translate(1309.8 1159.39) rotate(-180)"/><rect class="cls-7" x="654.24" y="557.66" width="2.45" height="44.08" transform="translate(1310.92 1159.39) rotate(-180)"/><rect class="cls-17" x="644.08" y="557.66" width="2.45" height="44.08" transform="translate(1290.61 1159.39) rotate(-180)"/><rect class="cls-30" x="643.03" y="557.66" width="2.45" height="44.08" transform="translate(1288.5 1159.39) rotate(-180)"/><rect class="cls-7" x="643.58" y="557.66" width="2.45" height="44.08" transform="translate(1289.62 1159.39) rotate(-180)"/><rect class="cls-17" x="633.43" y="557.66" width="2.45" height="44.08" transform="translate(1269.31 1159.39) rotate(-180)"/><rect class="cls-30" x="632.37" y="557.66" width="2.45" height="44.08" transform="translate(1267.2 1159.39) rotate(-180)"/><rect class="cls-7" x="632.93" y="557.66" width="2.45" height="44.08" transform="translate(1268.31 1159.39) rotate(-180)"/><rect class="cls-17" x="622.78" y="557.66" width="2.45" height="44.08" transform="translate(1248.01 1159.39) rotate(-180)"/><rect class="cls-30" x="621.72" y="557.66" width="2.45" height="44.08" transform="translate(1245.89 1159.39) rotate(-180)"/><rect class="cls-7" x="622.28" y="557.66" width="2.45" height="44.08" transform="translate(1247.01 1159.39) rotate(-180)"/><rect class="cls-17" x="612.13" y="557.66" width="2.45" height="44.08" transform="translate(1226.7 1159.39) rotate(-180)"/><rect class="cls-30" x="611.07" y="557.66" width="2.45" height="44.08" transform="translate(1224.59 1159.39) rotate(-180)"/><rect class="cls-7" x="611.63" y="557.66" width="2.45" height="44.08" transform="translate(1225.71 1159.39) rotate(-180)"/><rect class="cls-17" x="601.48" y="557.66" width="2.45" height="44.08" transform="translate(1205.4 1159.39) rotate(-180)"/><rect class="cls-30" x="600.42" y="557.66" width="2.45" height="44.08" transform="translate(1203.29 1159.39) rotate(-180)"/><rect class="cls-7" x="600.98" y="557.66" width="2.45" height="44.08" transform="translate(1204.4 1159.39) rotate(-180)"/><rect class="cls-17" x="590.82" y="557.66" width="2.45" height="44.08" transform="translate(1184.1 1159.39) rotate(-180)"/><rect class="cls-30" x="589.77" y="557.66" width="2.45" height="44.08" transform="translate(1181.98 1159.39) rotate(-180)"/><rect class="cls-7" x="590.33" y="557.66" width="2.45" height="44.08" transform="translate(1183.1 1159.39) rotate(-180)"/><rect class="cls-17" x="580.17" y="557.66" width="2.45" height="44.08" transform="translate(1162.79 1159.39) rotate(-180)"/><rect class="cls-30" x="579.12" y="557.66" width="2.45" height="44.08" transform="translate(1160.68 1159.39) rotate(-180)"/><rect class="cls-7" x="579.67" y="557.66" width="2.45" height="44.08" transform="translate(1161.8 1159.39) rotate(-180)"/><rect class="cls-17" x="569.52" y="557.66" width="2.45" height="44.08" transform="translate(1141.49 1159.39) rotate(-180)"/><rect class="cls-30" x="568.46" y="557.66" width="2.45" height="44.08" transform="translate(1139.38 1159.39) rotate(-180)"/><rect class="cls-7" x="569.02" y="557.66" width="2.45" height="44.08" transform="translate(1140.49 1159.39) rotate(-180)"/><rect class="cls-17" x="558.87" y="557.66" width="2.45" height="44.08" transform="translate(1120.19 1159.39) rotate(-180)"/><rect class="cls-30" x="557.81" y="557.66" width="2.45" height="44.08" transform="translate(1118.07 1159.39) rotate(-180)"/><rect class="cls-7" x="558.37" y="557.66" width="2.45" height="44.08" transform="translate(1119.19 1159.39) rotate(-180)"/><rect class="cls-17" x="548.22" y="557.66" width="2.45" height="44.08" transform="translate(1098.88 1159.39) rotate(-180)"/><rect class="cls-30" x="547.16" y="557.66" width="2.45" height="44.08" transform="translate(1096.77 1159.39) rotate(-180)"/><rect class="cls-7" x="547.72" y="557.66" width="2.45" height="44.08" transform="translate(1097.89 1159.39) rotate(-180)"/><rect class="cls-17" x="537.57" y="557.66" width="2.45" height="44.08" transform="translate(1077.58 1159.39) rotate(-180)"/><rect class="cls-30" x="536.51" y="557.66" width="2.45" height="44.08" transform="translate(1075.47 1159.39) rotate(-180)"/><rect class="cls-7" x="537.07" y="557.66" width="2.45" height="44.08" transform="translate(1076.58 1159.39) rotate(-180)"/><rect class="cls-17" x="526.91" y="557.66" width="2.45" height="44.08" transform="translate(1056.28 1159.39) rotate(-180)"/><rect class="cls-30" x="525.86" y="557.66" width="2.45" height="44.08" transform="translate(1054.16 1159.39) rotate(-180)"/><rect class="cls-7" x="526.42" y="557.66" width="2.45" height="44.08" transform="translate(1055.28 1159.39) rotate(-180)"/><rect class="cls-17" x="516.26" y="557.66" width="2.45" height="44.08" transform="translate(1034.97 1159.39) rotate(-180)"/><rect class="cls-30" x="515.21" y="557.66" width="2.45" height="44.08" transform="translate(1032.86 1159.39) rotate(-180)"/><rect class="cls-7" x="515.76" y="557.66" width="2.45" height="44.08" transform="translate(1033.98 1159.39) rotate(-180)"/><rect class="cls-17" x="505.61" y="557.66" width="2.45" height="44.08" transform="translate(1013.67 1159.39) rotate(-180)"/><rect class="cls-30" x="504.55" y="557.66" width="2.45" height="44.08" transform="translate(1011.56 1159.39) rotate(-180)"/><rect class="cls-7" x="505.11" y="557.66" width="2.45" height="44.08" transform="translate(1012.67 1159.39) rotate(-180)"/><rect class="cls-17" x="494.96" y="557.66" width="2.45" height="44.08" transform="translate(992.37 1159.39) rotate(-180)"/><rect class="cls-30" x="493.9" y="557.66" width="2.45" height="44.08" transform="translate(990.25 1159.39) rotate(-180)"/><rect class="cls-7" x="494.46" y="557.66" width="2.45" height="44.08" transform="translate(991.37 1159.39) rotate(-180)"/><rect class="cls-17" x="484.31" y="557.66" width="2.45" height="44.08" transform="translate(971.06 1159.39) rotate(-180)"/><rect class="cls-30" x="483.25" y="557.66" width="2.45" height="44.08" transform="translate(968.95 1159.39) rotate(-180)"/><rect class="cls-7" x="483.81" y="557.66" width="2.45" height="44.08" transform="translate(970.06 1159.39) rotate(-180)"/><rect class="cls-17" x="473.66" y="557.66" width="2.45" height="44.08" transform="translate(949.76 1159.39) rotate(-180)"/><rect class="cls-30" x="472.6" y="557.66" width="2.45" height="44.08" transform="translate(947.65 1159.39) rotate(-180)"/><rect class="cls-7" x="473.16" y="557.66" width="2.45" height="44.08" transform="translate(948.76 1159.39) rotate(-180)"/><rect class="cls-23" x="464.13" y="557.39" width="232.71" height="4.78" transform="translate(1160.98 1119.57) rotate(-180)"/><rect class="cls-7" x="464.13" y="555.27" width="232.71" height="4.78" transform="translate(1160.98 1115.32) rotate(-180)"/><rect class="cls-31" x="752.61" y="614.23" width="23.41" height="9.33"/><rect class="cls-31" x="752.61" y="605.28" width="3.96" height="18.28"/><path class="cls-32" d="M982.33,611.28v5.28H954.15a4.3,4.3,0,0,1-2.54-.77,2.35,2.35,0,0,1-1.05-1.87c0-1.46,1.61-2.64,3.59-2.64Z"/><rect x="970.68" y="622.95" width="46.2" height="10.47"/><path class="cls-33" d="M970.49,628.22l-12.32.19a2.61,2.61,0,0,1-2.64-2.74l.69-13.77-2.87-.14-.72,14.35a4.92,4.92,0,0,0,5,5.18l12.9-.19Z"/><rect class="cls-33" x="960.92" y="617.47" width="65.72" height="14.89"/><rect class="cls-6" x="1028.29" y="616.63" width="11.41" height="3.9"/><path class="cls-33" d="M1033.6,617.47v3.06h-5.31v-3.9h5.27A7.75,7.75,0,0,1,1033.6,617.47Z"/><path class="cls-34" d="M1001,554l-1.09-.17a28.61,28.61,0,0,1,2.58-8.61,18.58,18.58,0,0,1,3.64-5.09,11.71,11.71,0,0,1,4.74-3l.28,1.06-.14-.53.14.53a11.28,11.28,0,0,0-4.31,2.8C1004.77,543.05,1002.06,547,1001,554Z"/><path class="cls-8" d="M1018.16,549.93v1a1.53,1.53,0,0,1-1.53,1.54H1004a2.54,2.54,0,0,1,.76-1.82,2.52,2.52,0,0,1,1.82-.75Z"/><path class="cls-35" d="M1018.16,549.93v.91h-7.88a.8.8,0,0,1-.79-.79v-.12Z"/><ellipse class="cls-36" cx="1020.02" cy="542.7" rx="3.43" ry="6.78"/><path class="cls-35" d="M1020,535.92c-1.89,0-3.43,3-3.43,6.78s1.54,6.78,3.43,6.78a1.85,1.85,0,0,0,.8-.19V536.11A1.85,1.85,0,0,0,1020,535.92Z"/><rect class="cls-7" x="1009.7" y="535.06" width="10.32" height="15.28" rx="0.79"/><rect class="cls-37" x="1011.35" y="537.49" width="7.03" height="10.41" rx="0.54"/><rect class="cls-8" x="1011.56" y="537.67" width="6.6" height="9.77" rx="0.51"/><path class="cls-34" d="M1021.13,610.35l-.64-.1a16.72,16.72,0,0,1,1.51-5,10.9,10.9,0,0,1,2.13-3,7,7,0,0,1,2.78-1.77l.17.62-.08-.31.08.31a6.73,6.73,0,0,0-2.53,1.64C1023.33,603.92,1021.74,606.22,1021.13,610.35Z"/><path class="cls-8" d="M1031.19,608v.6a.91.91,0,0,1-.91.91h-7.38a1.51,1.51,0,0,1,.44-1.07,1.53,1.53,0,0,1,1.07-.44Z"/><path class="cls-35" d="M1031.19,608v.53h-4.62a.46.46,0,0,1-.47-.46V608Z"/><ellipse class="cls-36" cx="1032.28" cy="603.71" rx="2.01" ry="3.97"/><path class="cls-35" d="M1032.28,599.74c-1.11,0-2,1.78-2,4s.9,4,2,4a1.12,1.12,0,0,0,.47-.11v-7.73A1.12,1.12,0,0,0,1032.28,599.74Z"/><rect class="cls-7" x="1026.23" y="599.23" width="6.05" height="8.96" rx="0.46"/><rect class="cls-37" x="1027.19" y="600.66" width="4.12" height="6.11" rx="0.32"/><rect class="cls-8" x="1027.32" y="600.76" width="3.87" height="5.73" rx="0.3"/><path class="cls-6" d="M1024.18,609.18h-70v12.26h78.27v-4A8.29,8.29,0,0,0,1024.18,609.18Z"/><path class="cls-33" d="M899.74,617.14c-1,0-2-.09-3.11-.09s-2.09,0-3.1.09H784.31v11.63h15.51c2.06,2.67,7.14,4.56,13.08,4.56s11-1.89,13.07-4.56h50.79c3.19,3.11,10.89,5.31,19.87,5.31s16.69-2.2,19.88-5.31h35.81a4.52,4.52,0,0,0,4.51-4.52v-7.11Z"/><rect class="cls-6" x="749.56" y="602.14" width="26.46" height="9.33"/><path class="cls-12" d="M746.64,595.65h0v20.74h0a4.07,4.07,0,0,0,4.07-4.07v-12.6A4.07,4.07,0,0,0,746.64,595.65Z"/><path class="cls-7" d="M911.78,545.38a1.93,1.93,0,0,1,0,.24H894.12a1.94,1.94,0,0,1,0-.24,1.81,1.81,0,0,1,.16-.75,2.66,2.66,0,0,1,.4-.65h16.57a3,3,0,0,1,.4.65A2,2,0,0,1,911.78,545.38Z"/><rect class="cls-8" x="894.1" y="545.38" width="17.68" height="14.95"/><path class="cls-9" d="M911.78,545.38v2H894.1v-2a1.81,1.81,0,0,1,.16-.75,2.66,2.66,0,0,1,.4-.65h16.57a3,3,0,0,1,.4.65A2,2,0,0,1,911.78,545.38Z"/><path class="cls-7" d="M915,544.3a1.83,1.83,0,0,1,0,.33H891c0-.11,0-.22,0-.33,0-1.83,2-3.45,5.07-4.43a23,23,0,0,1,6.94-1C909.58,538.87,915,541.3,915,544.3Z"/><path class="cls-7" d="M913.63,558.16a2.64,2.64,0,0,1,0,.29H892.28a1.37,1.37,0,0,1,0-.29,2.4,2.4,0,0,1,.39-1.29,4.19,4.19,0,0,1,1-1.11h18.55a4.56,4.56,0,0,1,1,1.11A2.49,2.49,0,0,1,913.63,558.16Z"/><path class="cls-10" d="M915,544.3a1.83,1.83,0,0,1,0,.33h-7.42c-.23-.23-.46-.44-.7-.65A19.06,19.06,0,0,0,896,539.87a23,23,0,0,1,6.94-1C909.58,538.87,915,541.3,915,544.3Z"/><path class="cls-7" d="M939.92,548.94a1,1,0,0,1,0,.17H927.67a1,1,0,0,1,0-.17,1.35,1.35,0,0,1,.11-.52,1.84,1.84,0,0,1,.28-.45h11.49a2.15,2.15,0,0,1,.27.45A1.35,1.35,0,0,1,939.92,548.94Z"/><rect class="cls-8" x="927.66" y="548.94" width="12.26" height="10.37"/><path class="cls-9" d="M939.92,548.94v1.37H927.66v-1.37a1.35,1.35,0,0,1,.11-.52,1.84,1.84,0,0,1,.28-.45h11.49a2.15,2.15,0,0,1,.27.45A1.35,1.35,0,0,1,939.92,548.94Z"/><path class="cls-7" d="M942.12,548.19c0,.08,0,.16,0,.23H925.48a1.64,1.64,0,0,1,0-.23c0-1.27,1.39-2.39,3.51-3.07a16,16,0,0,1,4.82-.7C938.39,544.42,942.12,546.11,942.12,548.19Z"/><path class="cls-7" d="M941.2,557.81a1.41,1.41,0,0,1,0,.2h-14.8c0-.07,0-.14,0-.2a1.66,1.66,0,0,1,.3-.94,2.89,2.89,0,0,1,.68-.73h12.86a3.13,3.13,0,0,1,.69.73A1.73,1.73,0,0,1,941.2,557.81Z"/><path class="cls-10" d="M942.12,548.19c0,.08,0,.16,0,.23H937c-.16-.16-.32-.31-.49-.45a13.17,13.17,0,0,0-7.5-2.85,16,16,0,0,1,4.82-.7C938.39,544.42,942.12,546.11,942.12,548.19Z"/><rect class="cls-34" x="978.79" y="544.59" width="19.36" height="6.26"/><rect class="cls-35" x="978.79" y="544.59" width="19.36" height="1.22"/><path class="cls-38" d="M980.83,550.26h15.28a3.81,3.81,0,0,1,3.81,3.81v1.86a0,0,0,0,1,0,0H977a0,0,0,0,1,0,0v-1.86A3.81,3.81,0,0,1,980.83,550.26Z"/><path class="cls-34" d="M1006.22,473.93c0-1.1-7.94-2-17.75-2s-17.76.89-17.76,2a.29.29,0,0,0,0,.09l9.19,43.74h17l9.25-43.74A.28.28,0,0,0,1006.22,473.93Z"/><path class="cls-39" d="M1005.58,477l.63-2.94a.28.28,0,0,0,0-.09c0-1.1-7.94-2-17.75-2s-17.76.89-17.76,2a.29.29,0,0,0,0,.09l.62,3c2.07-.84,8.95-1.46,17.12-1.46S1003.51,476.13,1005.58,477Z"/><polygon class="cls-34" points="988.47 491.72 967.91 491.72 978.58 542.47 988.47 542.47 998.3 542.47 1009.03 491.72 988.47 491.72"/><polygon class="cls-35" points="1009.03 491.72 988.47 491.72 967.91 491.72 968.79 495.92 1008.14 495.92 1009.03 491.72"/><path class="cls-38" d="M999,542.47H977.93a2.36,2.36,0,0,0-2.35,2.36h25.78A2.36,2.36,0,0,0,999,542.47Z"/><path class="cls-40" d="M977.93,543H999a2.36,2.36,0,0,1,2.3,1.83h.06a2.36,2.36,0,0,0-2.36-2.36H977.93a2.36,2.36,0,0,0-2.35,2.36h.06A2.36,2.36,0,0,1,977.93,543Z"/><path class="cls-38" d="M1007.76,488.6H969.17a4.31,4.31,0,0,0-4.31,4.31h47.21A4.31,4.31,0,0,0,1007.76,488.6Z"/><path class="cls-40" d="M969.17,489.56h38.59a4.33,4.33,0,0,1,4.21,3.35h.1a4.31,4.31,0,0,0-4.31-4.31H969.17a4.31,4.31,0,0,0-4.31,4.31H965A4.32,4.32,0,0,1,969.17,489.56Z"/><path class="cls-34" d="M866.08,517.12v18.1a3.26,3.26,0,0,1-3.27,3.27h-8.38v-2.23h7.13a2.29,2.29,0,0,0,2.3-2.29V518.15a2.23,2.23,0,0,0-2.23-2.23H842.85a1.7,1.7,0,0,0-1.7,1.7v3.68h-2.23v-4.74a2.87,2.87,0,0,1,2.87-2.86h20.87A3.42,3.42,0,0,1,866.08,517.12Z"/><path class="cls-7" d="M852.18,525.69a.2.2,0,0,1,0,.07,1.18,1.18,0,0,1,0,.26H827.92a2.46,2.46,0,0,1,0-.26v-.23s0-.08,0-.13,0-.09,0-.14a.43.43,0,0,0,0,0v0a1.9,1.9,0,0,1,.11-.39c.88-2.45,5.34-4.35,10.86-4.58l1.12,0,1.11,0c5.61.23,10.11,2.19,10.9,4.69l0,.11.06.22v.12a.88.88,0,0,1,0,.17v.09A.22.22,0,0,1,852.18,525.69Z"/><path class="cls-35" d="M852.18,525.69a.2.2,0,0,1,0,.07,1.18,1.18,0,0,1,0,.26H827.92a2.46,2.46,0,0,1,0-.26v-.23s0-.08,0-.13,0-.09,0-.14v-.08a1.9,1.9,0,0,1,.11-.39h24a.49.49,0,0,1,0,.11l0,.11.06.22v.12a.88.88,0,0,1,0,.17v.09A.22.22,0,0,1,852.18,525.69Z"/><path class="cls-7" d="M854.43,528c0,.13,0,.26,0,.39H825.67a2.56,2.56,0,0,1,0-.39,3.54,3.54,0,0,1,.91-2.28h27A3.54,3.54,0,0,1,854.43,528Z"/><rect class="cls-8" x="825.64" y="528.04" width="28.79" height="24.34"/><rect class="cls-35" x="825.64" y="543.64" width="28.79" height="8.74"/><path class="cls-7" d="M1015.94,565.56h0V585.4h0c3.6,0,6.52-4.44,6.52-9.92S1019.54,565.56,1015.94,565.56Z"/><path class="cls-38" d="M992.09,582.86v32a10.59,10.59,0,0,1-10.58,10.59H762.16V582.86Z"/><rect class="cls-34" x="815.34" y="546.08" width="45.17" height="48.02"/><polygon class="cls-41" points="885.08 556.87 885.08 594.1 860.51 594.1 860.51 546.08 885.08 556.87"/><rect class="cls-15" x="756.62" y="553.78" width="5.56" height="33.27" transform="translate(1518.8 1140.83) rotate(-180)"/><polygon class="cls-16" points="762.18 553.78 756.62 553.78 756.62 554.95 760.74 554.95 760.74 587.05 762.18 587.05 762.18 553.78"/><rect class="cls-8" x="765.47" y="527.25" width="49.87" height="59.8"/><polygon class="cls-7" points="786.05 587.05 767.66 587.05 767.66 530.32 786.04 530.32 786.05 587.05"/><rect class="cls-20" x="769.3" y="532.42" width="15.11" height="27.84" rx="1.33"/><path class="cls-42" d="M783.08,532.07H770.63a1.69,1.69,0,0,0-1.68,1.68v25.18a1.68,1.68,0,0,0,1.68,1.67h12.45a1.67,1.67,0,0,0,1.67-1.67V533.75A1.68,1.68,0,0,0,783.08,532.07Zm1.33,26.86a1.34,1.34,0,0,1-1.33,1.33H770.63a1.34,1.34,0,0,1-1.33-1.33V533.75a1.34,1.34,0,0,1,1.33-1.33h12.45a1.34,1.34,0,0,1,1.33,1.33Z"/><polygon class="cls-22" points="774.18 532.42 769.3 537.29 769.3 539.75 776.63 532.42 774.18 532.42"/><path class="cls-22" d="M784.41,533.75a1.34,1.34,0,0,0-1.33-1.33H783L769.3,546.13v12.33l15.11-15.11Z"/><path class="cls-20" d="M812.87,534.57H805.7c-.43,0-.77.51-.77,1.13V557c0,.62.34,1.12.77,1.12h7.17c.43,0,.77-.5.77-1.12V535.7C813.64,535.08,813.3,534.57,812.87,534.57Z"/><polygon class="cls-22" points="808.91 534.57 804.93 538.55 804.93 540.18 810.54 534.57 808.91 534.57"/><polygon class="cls-22" points="813.64 539.78 804.93 548.49 804.93 552.75 813.64 544.04 813.64 539.78"/><path class="cls-22" d="M813.64,548.39l-8.71,8.71c0,.56.37,1,.77,1h.94l7-7Z"/><path class="cls-21" d="M812.87,534.28H805.7c-.54,0-1,.64-1,1.42V557c0,.78.43,1.42,1,1.42h7.17c.54,0,1-.64,1-1.42V535.7C813.84,534.92,813.41,534.28,812.87,534.28Zm.77,22.7c0,.62-.34,1.12-.77,1.12h-7.45l0,0h0l0,0h0l0,0h0l0,0,0,0,0,0h0l0,0h0l0,0,0-.07v0h0v-.08s0,0,0,0l0,0v0h0l0-.06v0h0v-.09a.13.13,0,0,1,0-.06v0h0v0h0V535.7c0-.62.34-1.13.77-1.13h7.17c.43,0,.77.51.77,1.13Z"/><rect class="cls-43" x="762.16" y="527.25" width="3.31" height="59.8" transform="translate(1527.64 1114.3) rotate(-180)"/><path class="cls-8" d="M755.85,552.75a1,1,0,0,0-1,1h7.36l0-1Z"/><path class="cls-15" d="M751,528.65s11.17,3,11.17,11.24V528.65Z"/><path class="cls-35" d="M815.34,527.25v4.4H757.27l-.14-.1-.42-.28-.16-.11-.13-.07-.15-.1-.13-.08-.15-.08-.14-.08-.14-.09-.14-.07-.16-.1-.13-.07-.26-.13h0l-.25-.13-.29-.15-.13-.06-.26-.12-.13-.06-.12-.06-.13-.05-.12-.06-.59-.25-.22-.08-.1,0-.11,0-.2-.07-.1,0-.17-.06c-.48-.17-.83-.28-1-.33h0l-.07,0h11.17v-1.4Z"/><polygon class="cls-44" points="784.58 567.68 769.13 567.68 770.31 566.33 783.63 566.33 784.58 567.68"/><polygon class="cls-45" points="783.63 566.33 770.31 566.33 769.87 566.83 783.98 566.83 783.63 566.33"/><rect class="cls-42" x="769.13" y="567.68" width="15.45" height="0.28"/><polygon class="cls-44" points="784.58 570.22 769.13 570.22 770.31 568.86 783.63 568.86 784.58 570.22"/><polygon class="cls-45" points="783.63 568.86 770.31 568.86 769.87 569.36 783.98 569.36 783.63 568.86"/><rect class="cls-42" x="769.13" y="570.22" width="15.45" height="0.28"/><polygon class="cls-44" points="784.58 572.75 769.13 572.75 770.31 571.4 783.63 571.4 784.58 572.75"/><polygon class="cls-45" points="783.63 571.4 770.31 571.4 769.87 571.9 783.98 571.9 783.63 571.4"/><rect class="cls-42" x="769.13" y="572.75" width="15.45" height="0.28"/><polygon class="cls-44" points="784.58 575.29 769.13 575.29 770.31 573.93 783.63 573.93 784.58 575.29"/><polygon class="cls-45" points="783.63 573.93 770.31 573.93 769.87 574.43 783.98 574.43 783.63 573.93"/><rect class="cls-42" x="769.13" y="575.29" width="15.45" height="0.28"/><polygon class="cls-44" points="784.58 577.82 769.13 577.82 770.31 576.47 783.63 576.47 784.58 577.82"/><polygon class="cls-45" points="783.63 576.47 770.31 576.47 769.87 576.97 783.98 576.97 783.63 576.47"/><rect class="cls-42" x="769.13" y="577.82" width="15.45" height="0.28"/><polygon class="cls-44" points="784.58 580.36 769.13 580.36 770.31 579 783.63 579 784.58 580.36"/><polygon class="cls-45" points="783.63 579 770.31 579 769.87 579.5 783.98 579.5 783.63 579"/><rect class="cls-42" x="769.13" y="580.36" width="15.45" height="0.28"/><ellipse class="cls-46" cx="772.94" cy="562.98" rx="3.35" ry="1.35"/><ellipse class="cls-44" cx="772.11" cy="562.98" rx="2.99" ry="0.64"/><path class="cls-47" d="M775,562.78a9.22,9.22,0,0,1-5.69,0c-.09.07-.14.13-.14.2,0,.35,1.33.64,3,.64s3-.29,3-.64C775.1,562.91,775.05,562.85,775,562.78Z"/><circle class="cls-42" cx="770.06" cy="562.98" r="0.26"/><rect class="cls-20" x="789.76" y="534.57" width="12.77" height="23.53" rx="1.13"/><path class="cls-21" d="M801.41,534.28H790.89a1.43,1.43,0,0,0-1.42,1.42V557a1.43,1.43,0,0,0,1.42,1.42h10.52a1.43,1.43,0,0,0,1.42-1.42V535.7A1.43,1.43,0,0,0,801.41,534.28Zm1.13,22.7a1.13,1.13,0,0,1-1.13,1.12H790.89a1.13,1.13,0,0,1-1.13-1.12V535.7a1.14,1.14,0,0,1,1.13-1.13h10.52a1.14,1.14,0,0,1,1.13,1.13Z"/><polygon class="cls-22" points="793.88 534.57 789.76 538.69 789.76 540.76 795.96 534.57 793.88 534.57"/><path class="cls-22" d="M802.54,535.7a1.14,1.14,0,0,0-1.13-1.13h0l-11.6,11.59v10.42l12.78-12.77Z"/><path class="cls-23" d="M801.41,533.76H790.89A1.94,1.94,0,0,0,789,535.7V557a1.93,1.93,0,0,0,1.94,1.93h10.52a1.93,1.93,0,0,0,1.94-1.93V535.7A1.94,1.94,0,0,0,801.41,533.76ZM802.83,557a1.43,1.43,0,0,1-1.42,1.42H790.89a1.43,1.43,0,0,1-1.42-1.42V535.7a1.43,1.43,0,0,1,1.42-1.42h10.52a1.43,1.43,0,0,1,1.42,1.42Z"/><path class="cls-23" d="M814,534.4a1.36,1.36,0,0,0-1.11-.64H805.7a1.38,1.38,0,0,0-1.11.64,2.36,2.36,0,0,0-.38,1.3V557a2.31,2.31,0,0,0,.38,1.29,1.35,1.35,0,0,0,1.11.64h7.17a1.34,1.34,0,0,0,1.11-.64,2.31,2.31,0,0,0,.38-1.29V535.7A2.36,2.36,0,0,0,814,534.4ZM813.84,557c0,.78-.43,1.42-1,1.42H805.7c-.54,0-1-.64-1-1.42V535.7c0-.78.43-1.42,1-1.42h7.17c.54,0,1,.64,1,1.42Z"/><path class="cls-7" d="M812.3,559.89H786V586H812.3a1.54,1.54,0,0,0,1.54-1.54v-23A1.54,1.54,0,0,0,812.3,559.89Z"/><rect class="cls-42" x="786.04" y="559.89" width="0.95" height="26.07"/><polygon class="cls-44" points="810.73 563.65 789.15 563.65 790.8 562.29 809.4 562.29 810.73 563.65"/><polygon class="cls-45" points="809.4 562.29 790.8 562.29 790.19 562.8 809.9 562.8 809.4 562.29"/><rect class="cls-42" x="789.15" y="563.65" width="21.59" height="0.28"/><polygon class="cls-44" points="810.73 568.04 789.15 568.04 790.8 566.69 809.4 566.69 810.73 568.04"/><polygon class="cls-45" points="809.4 566.69 790.8 566.69 790.19 567.19 809.9 567.19 809.4 566.69"/><rect class="cls-42" x="789.15" y="568.04" width="21.59" height="0.28"/><polygon class="cls-44" points="810.73 572.43 789.15 572.43 790.8 571.08 809.4 571.08 810.73 572.43"/><polygon class="cls-45" points="809.4 571.08 790.8 571.08 790.19 571.58 809.9 571.58 809.4 571.08"/><rect class="cls-42" x="789.15" y="572.43" width="21.59" height="0.28"/><polygon class="cls-44" points="810.73 576.83 789.15 576.83 790.8 575.47 809.4 575.47 810.73 576.83"/><polygon class="cls-45" points="809.4 575.47 790.8 575.47 790.19 575.97 809.9 575.97 809.4 575.47"/><rect class="cls-42" x="789.15" y="576.83" width="21.59" height="0.28"/><polygon class="cls-44" points="810.73 581.22 789.15 581.22 790.8 579.86 809.4 579.86 810.73 581.22"/><polygon class="cls-45" points="809.4 579.86 790.8 579.86 790.19 580.36 809.9 580.36 809.4 579.86"/><rect class="cls-42" x="789.15" y="581.22" width="21.59" height="0.28"/><path class="cls-8" d="M817.2,525.74a2.9,2.9,0,0,1-1.86,2.71,2.84,2.84,0,0,1-1.05.2h-66v-8.51a2.66,2.66,0,0,1,.79-1.9,2.53,2.53,0,0,1,1.34-.73,2.6,2.6,0,0,1,.56-.06v2.92h60.85a5.35,5.35,0,0,1,5.23,4.2A5.06,5.06,0,0,1,817.2,525.74Z"/><path class="cls-48" d="M817.07,524.57c-1-2.11-3.67-2.46-7.59-2.43-2.3,0-5,.16-8,.16H751v-1.93h60.85a5.35,5.35,0,0,1,5.23,4.2Z"/><rect class="cls-34" x="885.08" y="556.87" width="90.43" height="37.24"/><path class="cls-8" d="M1019.7,575.48a33.5,33.5,0,0,1-1.24,9.15,28,28,0,0,1-1,3c-2.66,6.56-7.42,11-12.86,11h-.12V552.31h0a11.67,11.67,0,0,1,8,3.45,23.08,23.08,0,0,1,6,10.57A33.5,33.5,0,0,1,1019.7,575.48Z"/><path class="cls-34" d="M1007.11,575.48a148.52,148.52,0,0,1-.85,17c-.45,3.64-1,5.93-1.69,6.17l-.11,0h-29V552.31h29c.51,0,1,1.27,1.39,3.45A123.43,123.43,0,0,1,1007.11,575.48Z"/><path class="cls-7" d="M1007.11,575.48c0,12.47-1.13,22.66-2.54,23.17l-.11,0H1001c1.47,0,2.65-10.39,2.65-23.19a123.43,123.43,0,0,0-1.26-19.72c-.4-2.18-.88-3.45-1.39-3.45h3.51c.51,0,1,1.27,1.39,3.45A123.43,123.43,0,0,1,1007.11,575.48Z"/><polygon class="cls-38" points="975.51 552.32 975.51 598.66 969.83 594.11 969.83 556.87 975.51 552.32"/><rect class="cls-8" x="860.07" y="522.04" width="9.8" height="8.28"/><rect class="cls-35" x="860.07" y="522.04" width="9.8" height="1.82"/><path class="cls-7" d="M869.1,531.12v0a.57.57,0,0,1,0,.18s0,0,0,0v0h0c-.26.72-1.44,1.3-3,1.49a8.84,8.84,0,0,1-2.22,0c-1.53-.19-2.7-.77-3-1.49v-.08a.57.57,0,0,1,0-.18v-.07a.28.28,0,0,1,0-.09h8.24a.28.28,0,0,1,0,.09Z"/><path class="cls-35" d="M869.1,531.12v0a.57.57,0,0,1,0,.18s0,0,0,0v0h-8.16v-.08a.57.57,0,0,1,0-.18v-.07a.28.28,0,0,1,0-.09h8.24a.28.28,0,0,1,0,.09Z"/><path class="cls-7" d="M869.87,530.32a1.21,1.21,0,0,1-.31.78h-9.18a1.21,1.21,0,0,1-.31-.78s0-.09,0-.13h9.78A.57.57,0,0,1,869.87,530.32Z"/><path class="cls-7" d="M870.66,521.77v0a.49.49,0,0,1,0,.12H859.29s0-.08,0-.12v0a.49.49,0,0,1,0-.12v0l0-.16,0-.05v0h0c.38-1.06,2.19-1.9,4.5-2.11.36,0,.73,0,1.11,0s.75,0,1.11,0c2.32.21,4.12,1,4.51,2.11v0s0,0,0,0a1.16,1.16,0,0,1,0,.18v0A.49.49,0,0,1,870.66,521.77Z"/><path class="cls-35" d="M870.66,521.77v0a.49.49,0,0,1,0,.12H859.29s0-.08,0-.12v0a.49.49,0,0,1,0-.12v0l0-.16,0-.05v0h11.24v0s0,0,0,0a1.16,1.16,0,0,1,0,.18v0A.49.49,0,0,1,870.66,521.77Z"/><path class="cls-7" d="M871.72,522.87c0,.06,0,.12,0,.18H858.24a1.1,1.1,0,0,1,0-.18,1.64,1.64,0,0,1,.43-1.07h12.64A1.64,1.64,0,0,1,871.72,522.87Z"/><path class="cls-49" d="M1004.46,552.31h-29l-5.68,4.56H885.08l-24.57-10.79H815.34v9.69l44.73.37.44.1,24.57,5.55h84.75l4.63-4.92,1-1.11h37A11.67,11.67,0,0,0,1004.46,552.31Z"/><path class="cls-35" d="M818,549.69a.93.93,0,1,1-.93-.92A.93.93,0,0,1,818,549.69Z"/><path class="cls-35" d="M818,554.22a.93.93,0,1,1-.93-.92A.93.93,0,0,1,818,554.22Z"/><path class="cls-35" d="M818,558.75a.93.93,0,1,1-.93-.92A.93.93,0,0,1,818,558.75Z"/><path class="cls-35" d="M818,563.28a.93.93,0,1,1-.93-.92A.93.93,0,0,1,818,563.28Z"/><path class="cls-35" d="M818,567.81a.93.93,0,1,1-.93-.93A.93.93,0,0,1,818,567.81Z"/><path class="cls-35" d="M818,572.33a.93.93,0,1,1-.93-.92A.93.93,0,0,1,818,572.33Z"/><path class="cls-35" d="M818,576.86a.93.93,0,1,1-.93-.92A.93.93,0,0,1,818,576.86Z"/><path class="cls-35" d="M818,581.39a.93.93,0,1,1-.93-.92A.93.93,0,0,1,818,581.39Z"/><path class="cls-35" d="M818,585.92a.93.93,0,1,1-.93-.92A.93.93,0,0,1,818,585.92Z"/><path class="cls-35" d="M818,590.45a.93.93,0,1,1-.93-.92A.93.93,0,0,1,818,590.45Z"/><path class="cls-35" d="M858.47,549.69a.93.93,0,1,1-.93-.92A.93.93,0,0,1,858.47,549.69Z"/><path class="cls-35" d="M858.47,554.22a.93.93,0,1,1-.93-.92A.93.93,0,0,1,858.47,554.22Z"/><path class="cls-35" d="M858.47,558.75a.93.93,0,1,1-.93-.92A.93.93,0,0,1,858.47,558.75Z"/><path class="cls-35" d="M858.47,563.28a.93.93,0,1,1-.93-.92A.93.93,0,0,1,858.47,563.28Z"/><path class="cls-35" d="M858.47,567.81a.93.93,0,1,1-.93-.93A.93.93,0,0,1,858.47,567.81Z"/><path class="cls-35" d="M858.47,572.33a.93.93,0,1,1-.93-.92A.93.93,0,0,1,858.47,572.33Z"/><path class="cls-35" d="M858.47,576.86a.93.93,0,1,1-.93-.92A.93.93,0,0,1,858.47,576.86Z"/><path class="cls-35" d="M858.47,581.39a.93.93,0,1,1-.93-.92A.93.93,0,0,1,858.47,581.39Z"/><path class="cls-35" d="M858.47,585.92a.93.93,0,1,1-.93-.92A.93.93,0,0,1,858.47,585.92Z"/><path class="cls-35" d="M858.47,590.45a.93.93,0,1,1-.93-.92A.93.93,0,0,1,858.47,590.45Z"/><ellipse class="cls-35" cx="882.92" cy="559.55" rx="0.64" ry="0.92"/><path class="cls-35" d="M883.56,564.07c0,.51-.28.93-.64.93s-.65-.42-.65-.93.29-.92.65-.92S883.56,563.57,883.56,564.07Z"/><path class="cls-35" d="M883.56,568.6c0,.51-.28.92-.64.92s-.65-.41-.65-.92.29-.92.65-.92S883.56,568.09,883.56,568.6Z"/><path class="cls-35" d="M883.56,573.13c0,.51-.28.92-.64.92s-.65-.41-.65-.92.29-.92.65-.92S883.56,572.62,883.56,573.13Z"/><path class="cls-35" d="M883.56,577.66c0,.51-.28.92-.64.92s-.65-.41-.65-.92.29-.92.65-.92S883.56,577.15,883.56,577.66Z"/><path class="cls-35" d="M883.56,582.19c0,.51-.28.92-.64.92s-.65-.41-.65-.92.29-.92.65-.92S883.56,581.68,883.56,582.19Z"/><ellipse class="cls-35" cx="882.92" cy="586.72" rx="0.64" ry="0.92"/><ellipse class="cls-35" cx="882.92" cy="591.24" rx="0.64" ry="0.92"/><circle class="cls-35" cx="887.43" cy="559.55" r="0.92"/><path class="cls-35" d="M888.35,564.07a.92.92,0,1,1-.92-.92A.93.93,0,0,1,888.35,564.07Z"/><path class="cls-35" d="M888.35,568.6a.92.92,0,1,1-.92-.92A.92.92,0,0,1,888.35,568.6Z"/><path class="cls-35" d="M888.35,573.13a.92.92,0,1,1-.92-.92A.92.92,0,0,1,888.35,573.13Z"/><path class="cls-35" d="M888.35,577.66a.92.92,0,1,1-.92-.92A.92.92,0,0,1,888.35,577.66Z"/><path class="cls-35" d="M888.35,582.19a.92.92,0,1,1-.92-.92A.92.92,0,0,1,888.35,582.19Z"/><circle class="cls-35" cx="887.43" cy="586.72" r="0.92"/><circle class="cls-35" cx="887.43" cy="591.24" r="0.92"/><path class="cls-35" d="M967.91,559.55a.92.92,0,1,1-.92-.92A.92.92,0,0,1,967.91,559.55Z"/><path class="cls-35" d="M967.91,564.07a.92.92,0,1,1-.92-.92A.93.93,0,0,1,967.91,564.07Z"/><path class="cls-35" d="M967.91,568.6a.92.92,0,1,1-.92-.92A.92.92,0,0,1,967.91,568.6Z"/><path class="cls-35" d="M967.91,573.13a.92.92,0,1,1-.92-.92A.92.92,0,0,1,967.91,573.13Z"/><path class="cls-35" d="M967.91,577.66a.92.92,0,1,1-.92-.92A.92.92,0,0,1,967.91,577.66Z"/><path class="cls-35" d="M967.91,582.19a.92.92,0,1,1-.92-.92A.92.92,0,0,1,967.91,582.19Z"/><path class="cls-35" d="M967.91,586.72a.92.92,0,1,1-.92-.93A.92.92,0,0,1,967.91,586.72Z"/><path class="cls-35" d="M967.91,591.24a.92.92,0,1,1-.92-.92A.92.92,0,0,1,967.91,591.24Z"/><path class="cls-35" d="M979.71,554.94a.92.92,0,1,1-.92-.92A.92.92,0,0,1,979.71,554.94Z"/><path class="cls-35" d="M979.71,559.47a.92.92,0,1,1-.92-.92A.92.92,0,0,1,979.71,559.47Z"/><circle class="cls-35" cx="978.79" cy="563.99" r="0.92"/><circle class="cls-35" cx="978.79" cy="568.52" r="0.92"/><circle class="cls-35" cx="978.79" cy="573.05" r="0.92"/><circle class="cls-35" cx="978.79" cy="577.58" r="0.92"/><path class="cls-35" d="M979.71,582.11a.92.92,0,1,1-.92-.92A.92.92,0,0,1,979.71,582.11Z"/><circle class="cls-35" cx="978.79" cy="586.63" r="0.92"/><path class="cls-35" d="M979.71,591.33a.92.92,0,1,1-.92-.92A.92.92,0,0,1,979.71,591.33Z"/><path class="cls-35" d="M979.71,596a.92.92,0,1,1-.92-.92A.92.92,0,0,1,979.71,596Z"/><path class="cls-35" d="M1005.91,495.23a.87.87,0,1,1,.87-.87A.87.87,0,0,1,1005.91,495.23Z"/><circle class="cls-35" cx="1001.61" cy="494.36" r="0.87"/><circle class="cls-35" cx="997.31" cy="494.36" r="0.87"/><circle class="cls-35" cx="993.01" cy="494.36" r="0.87"/><circle class="cls-35" cx="988.72" cy="494.36" r="0.87"/><path class="cls-35" d="M984.42,495.23a.87.87,0,1,1,.87-.87A.87.87,0,0,1,984.42,495.23Z"/><circle class="cls-35" cx="980.12" cy="494.36" r="0.87"/><circle class="cls-35" cx="975.66" cy="494.36" r="0.87"/><circle class="cls-35" cx="971.2" cy="494.36" r="0.87"/><circle class="cls-35" cx="996.99" cy="541.27" r="0.43"/><circle class="cls-35" cx="994.87" cy="541.27" r="0.43"/><circle class="cls-35" cx="992.75" cy="541.27" r="0.43"/><circle class="cls-35" cx="990.63" cy="541.27" r="0.43"/><circle class="cls-35" cx="988.51" cy="541.27" r="0.43"/><circle class="cls-35" cx="986.39" cy="541.27" r="0.43"/><circle class="cls-35" cx="984.27" cy="541.27" r="0.43"/><circle class="cls-35" cx="982.07" cy="541.27" r="0.43"/><path class="cls-35" d="M979.88,541.7a.44.44,0,0,1-.44-.43.44.44,0,0,1,.87,0A.43.43,0,0,1,979.88,541.7Z"/><circle class="cls-35" cx="996.99" cy="549.2" r="0.43"/><circle class="cls-35" cx="994.87" cy="549.2" r="0.43"/><circle class="cls-35" cx="992.75" cy="549.2" r="0.43"/><circle class="cls-35" cx="990.63" cy="549.2" r="0.43"/><circle class="cls-35" cx="988.51" cy="549.2" r="0.43"/><circle class="cls-35" cx="986.39" cy="549.2" r="0.43"/><circle class="cls-35" cx="984.27" cy="549.2" r="0.43"/><circle class="cls-35" cx="982.07" cy="549.2" r="0.43"/><path class="cls-35" d="M979.88,549.64a.44.44,0,1,1,.43-.44A.44.44,0,0,1,979.88,549.64Z"/><path class="cls-35" d="M863.41,550.54a.7.7,0,1,1-.67-.88A.79.79,0,0,1,863.41,550.54Z"/><path class="cls-35" d="M863.41,554.88a.7.7,0,1,1-.67-.88A.79.79,0,0,1,863.41,554.88Z"/><path class="cls-35" d="M863.41,559.22a.7.7,0,1,1-.67-.88A.79.79,0,0,1,863.41,559.22Z"/><path class="cls-35" d="M863.41,563.56a.7.7,0,1,1-.67-.88A.79.79,0,0,1,863.41,563.56Z"/><path class="cls-35" d="M863.41,567.9a.7.7,0,1,1-.67-.88A.79.79,0,0,1,863.41,567.9Z"/><path class="cls-35" d="M863.41,572.24a.7.7,0,1,1-.67-.88A.79.79,0,0,1,863.41,572.24Z"/><path class="cls-35" d="M863.41,576.58a.7.7,0,1,1-.67-.88A.79.79,0,0,1,863.41,576.58Z"/><path class="cls-35" d="M863.41,580.92a.7.7,0,1,1-.67-.88A.79.79,0,0,1,863.41,580.92Z"/><path class="cls-35" d="M863.41,585.26a.7.7,0,1,1-.67-.88A.79.79,0,0,1,863.41,585.26Z"/><path class="cls-35" d="M863.41,589.6a.7.7,0,1,1-.67-.88A.79.79,0,0,1,863.41,589.6Z"/><path class="cls-35" d="M1017.43,587.64c-2.66,6.56-7.42,11-12.86,11l-.11,0h-29l-5.68-4.56H815.34v-48h1.28c2,8.86,11,39,43.89,43a60,60,0,0,0,7.39.44H969.83l5.68,3.56H1001a23.52,23.52,0,0,0,3.5-.27c.62-.09,1.22-.21,1.81-.34A33.72,33.72,0,0,0,1017.43,587.64Z"/><path class="cls-7" d="M934.82,583.2A22.14,22.14,0,0,0,912.65,561H815.34v3.68h97.31a18.51,18.51,0,0,1,18.49,18.48v2.64h3.68Z"/><g class="cls-50"><path d="M932.78,582.26A19.28,19.28,0,0,0,913.49,563H815.34v1.75h97.31a18.51,18.51,0,0,1,18.49,18.48v2.64h1.64Z"/></g><rect class="cls-7" x="836.23" y="562.97" width="3.16" height="22.03"/><rect class="cls-51" x="836.23" y="562.97" width="0.65" height="22.03"/><rect class="cls-51" x="838.74" y="562.97" width="0.65" height="22.03"/><rect class="cls-7" x="859.53" y="562.97" width="3.16" height="22.03"/><rect class="cls-51" x="859.53" y="562.97" width="0.65" height="22.03"/><rect class="cls-51" x="862.03" y="562.97" width="0.65" height="22.03"/><rect class="cls-7" x="882.82" y="562.97" width="3.16" height="22.03"/><rect class="cls-51" x="882.82" y="562.97" width="0.65" height="22.03"/><rect class="cls-51" x="885.33" y="562.97" width="0.65" height="22.03"/><rect class="cls-7" x="906.11" y="562.97" width="3.16" height="22.03"/><rect class="cls-51" x="906.11" y="562.97" width="0.65" height="22.03"/><rect class="cls-51" x="908.62" y="562.97" width="0.65" height="22.03"/><polygon class="cls-12" points="786.09 590.73 751.55 590.73 756.62 587.05 786.05 587.05 786.09 590.73"/><polygon class="cls-11" points="786.09 590.73 751.55 590.73 752.85 589.87 786.07 589.87 786.09 590.73"/><rect class="cls-52" x="766.67" y="590.73" width="1.99" height="2.74"/><rect class="cls-52" x="779.59" y="590.73" width="1.99" height="2.74"/><polygon class="cls-53" points="766.16 587.05 763.37 590.73 764.87 590.73 767.39 587.05 766.16 587.05"/><polygon class="cls-53" points="774.24 587.05 772.31 590.73 778.02 590.73 779.46 587.05 774.24 587.05"/><polygon class="cls-53" points="780.03 587.05 778.74 590.73 780.33 590.73 781.42 587.05 780.03 587.05"/><rect class="cls-6" x="786.13" y="588.32" width="174.8" height="26.38"/><polygon class="cls-6" points="960.93 614.7 992.09 614.7 992.09 598.66 975.51 598.66 969.83 594.11 960.93 594.11 960.93 614.7"/><polygon class="cls-33" points="975.51 598.66 969.83 594.11 960.93 594.11 960.93 588.32 786.13 588.32 786.13 602.67 960.93 602.67 992.09 602.67 992.09 598.66 975.51 598.66"/><polygon class="cls-6" points="786.13 614.7 762.18 614.7 762.18 592.26 786.09 592.26 786.13 614.7"/><rect class="cls-11" x="773.1" y="590.79" width="1.99" height="13.36" transform="translate(1371.57 -176.62) rotate(90)"/><rect class="cls-11" x="773.1" y="598.35" width="1.99" height="13.36" transform="translate(1379.12 -169.07) rotate(90)"/><rect class="cls-11" x="773.1" y="605.9" width="1.99" height="13.36" transform="translate(1386.68 -161.52) rotate(90)"/><rect class="cls-11" x="773.1" y="613.45" width="1.99" height="13.36" transform="translate(1394.23 -153.97) rotate(90)"/><rect class="cls-11" x="773.1" y="621" width="1.99" height="13.36" transform="translate(1401.78 -146.41) rotate(90)"/><rect class="cls-11" x="773.1" y="628.56" width="1.99" height="13.36" transform="translate(1409.33 -138.86) rotate(90)"/><rect class="cls-12" x="766.67" y="590.73" width="1.99" height="47.49"/><rect class="cls-12" x="779.59" y="590.73" width="1.99" height="47.49"/><rect class="cls-12" x="773.1" y="591.58" width="1.99" height="13.36" transform="translate(1372.36 -175.84) rotate(90)"/><rect class="cls-12" x="773.1" y="599.13" width="1.99" height="13.36" transform="translate(1379.91 -168.29) rotate(90)"/><rect class="cls-12" x="773.1" y="606.68" width="1.99" height="13.36" transform="translate(1387.46 -160.73) rotate(90)"/><rect class="cls-12" x="773.1" y="614.23" width="1.99" height="13.36" transform="translate(1395.01 -153.18) rotate(90)"/><rect class="cls-12" x="773.1" y="621.79" width="1.99" height="13.36" transform="translate(1402.57 -145.63) rotate(90)"/><rect class="cls-12" x="773.1" y="629.34" width="1.99" height="13.36" transform="translate(1410.12 -138.08) rotate(90)"/><rect class="cls-12" x="751.55" y="590.73" width="34.53" height="1.53"/><g class="cls-54"><path d="M839.77,625.11V625c0-.15,0-.3,0-.45h0l0-.46V624l0-.45h0c0-.16,0-.31,0-.46s0-.07,0-.11,0-.29,0-.44h0c0-.15,0-.3-.05-.45l0-.1-.06-.45h0c0-.15-.05-.31-.07-.46l0-.08c0-.15,0-.3-.08-.45h0l-.09-.46,0-.07c-.06-.31-.13-.6-.21-.9,0,0,0-.05,0-.07l-.24-.89,0-.07-.13-.43h0a26.9,26.9,0,0,0-51.37,0h0c0,.14-.08.29-.13.43l0,.07-.24.89v.07c-.08.3-.15.59-.21.9,0,0,0,0,0,.07-.06.3-.12.6-.17.91V621c0,.15,0,.31-.08.46h0l-.06.45,0,.1c0,.15,0,.3,0,.45h0c0,.15,0,.3-.05.44s0,.07,0,.11,0,.3,0,.46h0l0,.45v.11l0,.46h0c0,.15,0,.3,0,.45v.42h6.27c0-3.09.68-5.58,1.49-5.66l13.05,4.46a6.79,6.79,0,0,0-.14,1.2H819.1a6.79,6.79,0,0,0-.14-1.2l13-4.46c.81.08,1.47,2.57,1.49,5.66h6.28C839.78,625.31,839.77,625.21,839.77,625.11Zm-32.12-2.87-12.38-6.08c-.54-.63.81-2.93,3.05-5.17s4.53-3.58,5.17-3l6.08,12.38A6.28,6.28,0,0,0,807.65,622.24Zm5.25-2.88a6.75,6.75,0,0,0-1.36.14l-4.46-13c.08-.83,2.65-1.49,5.82-1.49s5.74.67,5.81,1.5l-4.46,13A6.72,6.72,0,0,0,812.9,619.36Zm17.62-3.2-12.38,6.08a6.36,6.36,0,0,0-1.91-1.92l6.07-12.38c.64-.53,2.93.82,5.17,3S831.06,615.53,830.52,616.16Z"/><path d="M895.64,625.11V625c0-.15,0-.3,0-.45h0l0-.46V624l0-.45h0c0-.16,0-.31,0-.46a.41.41,0,0,1,0-.11c0-.14,0-.29,0-.44h0l-.06-.45v-.1l-.06-.45h0c0-.15-.05-.31-.08-.46V621c0-.15,0-.3-.08-.45h0l-.09-.46s0,0,0-.07c-.06-.31-.13-.6-.21-.9V619l-.24-.89a.19.19,0,0,1,0-.07,26.9,26.9,0,0,0-51.5-.44h0L843,618l0,.07-.24.89a.25.25,0,0,1,0,.07c-.07.3-.14.59-.2.9,0,0,0,0,0,.07l-.09.46h0c0,.15-.05.3-.08.45l0,.08c0,.15,0,.31-.07.46h0l-.06.45,0,.1c0,.15,0,.3-.05.45h0c0,.15,0,.3,0,.44s0,.07,0,.11,0,.3,0,.46h0l0,.45v.11c0,.15,0,.31,0,.46h0c0,.15,0,.3,0,.45v.12c0,.1,0,.2,0,.3h6.28c0-3.09.68-5.58,1.49-5.66l13.05,4.46a6.79,6.79,0,0,0-.14,1.2H875a6.79,6.79,0,0,0-.14-1.2l13-4.46c.81.08,1.47,2.57,1.49,5.66h6.27Zm-32.12-2.87-12.38-6.08c-.54-.63.81-2.93,3.05-5.17s4.53-3.58,5.17-3l6.07,12.38A6.36,6.36,0,0,0,863.52,622.24Zm5.24-2.88a6.72,6.72,0,0,0-1.35.14l-4.46-13c.08-.83,2.65-1.49,5.81-1.49s5.75.67,5.82,1.5l-4.46,13A6.75,6.75,0,0,0,868.76,619.36Zm17.63-3.2L874,622.24a6.28,6.28,0,0,0-1.92-1.92l6.08-12.38c.64-.53,2.93.82,5.17,3S886.93,615.53,886.39,616.16Z"/><path d="M951.51,625.11V625c0-.15,0-.3,0-.45h0c0-.15,0-.31,0-.46V624l0-.45h0c0-.16,0-.31,0-.46a.41.41,0,0,1,0-.11c0-.14,0-.29,0-.44h0l-.06-.45v-.1l-.06-.45h0c0-.15-.05-.31-.08-.46s0-.06,0-.08-.06-.3-.08-.45h0L951,620a.19.19,0,0,1,0-.07c-.06-.31-.13-.6-.21-.9a.14.14,0,0,0,0-.07c-.07-.3-.15-.6-.24-.89V618a26.9,26.9,0,0,0-51.5-.44h0l-.13.43,0,.07-.24.89a.25.25,0,0,1,0,.07c-.07.3-.14.59-.2.9,0,0,0,0,0,.07l-.09.46h0c0,.15-.06.3-.08.45s0,0,0,.08,0,.31-.07.46h0l-.06.45,0,.1c0,.15,0,.3-.05.45h0c0,.15,0,.3,0,.44s0,.07,0,.11,0,.3,0,.46h0l0,.45a.37.37,0,0,1,0,.11c0,.15,0,.31,0,.46h0c0,.15,0,.3,0,.45v.12c0,.1,0,.2,0,.3H904c0-3.09.68-5.58,1.5-5.66l13.05,4.46a6.79,6.79,0,0,0-.15,1.2h12.42a6,6,0,0,0-.15-1.2l13.06-4.46c.81.08,1.47,2.57,1.49,5.66h6.27Zm-32.12-2.87L907,616.16c-.54-.63.81-2.93,3-5.17s4.53-3.58,5.17-3l6.07,12.38A6.25,6.25,0,0,0,919.39,622.24Zm5.24-2.88a6.72,6.72,0,0,0-1.35.14l-4.46-13c.08-.83,2.65-1.49,5.81-1.49s5.75.67,5.82,1.5l-4.46,13A6.75,6.75,0,0,0,924.63,619.36Zm17.63-3.2-12.39,6.08a6.14,6.14,0,0,0-1.91-1.92L934,607.94c.64-.53,2.93.82,5.17,3S942.79,615.53,942.26,616.16Z"/></g><rect class="cls-55" x="762.18" y="592.26" width="23.91" height="3.33"/><polygon class="cls-8" points="1034.97 616.63 1034.97 645.62 1093.37 645.62 1041.73 616.63 1034.97 616.63"/><polygon class="cls-43" points="1037.55 617.84 1039.38 617.84 1045.74 644.13 1037.55 644.13 1037.55 617.84"/><polygon class="cls-43" points="1043.57 619.19 1051.19 623.17 1075.48 644.13 1057.49 644.13 1043.57 619.19"/><path class="cls-56" d="M1047.31,642.45h0l-6.58-24.61h-4.24v26.29h11.27Zm-9.76,0V619h2.11l5.67,23.44Z"/><path class="cls-56" d="M1052.73,624.49h0l-1.53-1.32-7.63-4,.87,1.55h0l13,23.39h18Zm6.31,17.37-12.76-20.28,4.09,1.85,19.21,18.43Z"/><polygon class="cls-57" points="1043.57 619.19 1046.28 621.58 1050.37 623.43 1051.19 623.17 1043.57 619.19"/><polygon class="cls-58" points="1057.49 644.13 1059.04 641.86 1069.58 641.86 1075.48 644.13 1057.49 644.13"/><polygon class="cls-57" points="1036.49 617.84 1037.55 619.01 1039.66 619.01 1040.73 617.84 1036.49 617.84"/><polygon class="cls-58" points="1036.49 644.13 1037.55 642.45 1045.33 642.45 1047.76 644.13 1036.49 644.13"/><path class="cls-59" d="M938,605.28c0,.11,0,.21,0,.32v.08c0,.11,0,.21,0,.32v0l0,.27s0,.07,0,.11a2.21,2.21,0,0,1-.05.25.59.59,0,0,1,0,.13c0,.06,0,.12,0,.19l0,.14a.83.83,0,0,0,0,.15,2.41,2.41,0,0,0-.08.25l0,.1-.06.18v0c-.05.13-.1.26-.16.39v0c-.1.21-.2.41-.31.6a7.22,7.22,0,0,1-2,2.23l-5.24-1.86a3.54,3.54,0,0,0-1.21-.21h-3.73a1.4,1.4,0,0,1-.1-.16c-.11-.19-.21-.39-.31-.6v0c-.06-.13-.11-.26-.16-.39v0l-.07-.18,0-.1c0-.08-.05-.17-.08-.25s0-.1,0-.15,0-.1,0-.14,0-.13,0-.19l0-.13c0-.08,0-.17,0-.25s0-.07,0-.11l0-.26v0c0-.11,0-.21,0-.32v-.4h0a7.15,7.15,0,0,1,.9-3.48h5.13a3.53,3.53,0,0,1,1.2.21l6.94,2.47A7,7,0,0,1,938,605.28Z"/><path class="cls-59" d="M960.09,613.12c0,.08,0,.17,0,.25v.06c0,.08,0,.16,0,.24v0l0,.21s0,.05,0,.08a1.62,1.62,0,0,1,0,.19.36.36,0,0,1,0,.1l0,.14,0,.11,0,.11-.06.2,0,.07a.78.78,0,0,1,0,.14v0a2.55,2.55,0,0,1-.13.29v0c-.07.16-.15.31-.23.46h0a6.14,6.14,0,0,1-.5.72h-2a3.59,3.59,0,0,1-3.82.93l-2.57-.91a5.4,5.4,0,0,1-.51-.74c-.09-.15-.16-.3-.24-.46v0a2.55,2.55,0,0,1-.13-.29v0a.78.78,0,0,1-.05-.14l0-.07-.06-.2,0-.11,0-.11,0-.14a.36.36,0,0,1,0-.1,1.62,1.62,0,0,1,0-.19v-.08l0-.21v0c0-.08,0-.16,0-.24v-.06a2.09,2.09,0,0,1,0-.25h0a5.39,5.39,0,0,1,1.75-4l4.47,1.59a3.8,3.8,0,0,1,1,.56h3.33c0,.12.08.23.11.35A5.21,5.21,0,0,1,960.09,613.12Z"/><polygon class="cls-8" points="786.04 585 960.93 585 960.93 598.72 945.2 598.72 934.58 588.98 914.4 588.98 904.34 598.08 888.83 598.11 878.32 588.98 858.71 588.98 848.44 598.04 833.8 598.04 824.23 588.98 794.65 588.98 794.65 597.32 786.16 605.81 786.04 585"/><polygon class="cls-43" points="793.27 589.01 793.27 596.66 787.42 602.59 787.42 589.01 793.27 589.01"/><polygon class="cls-60" points="792.53 589.79 788.14 589.79 787.42 589.01 793.27 589.01 792.53 589.79"/><polygon class="cls-56" points="788.14 589.79 788.14 600.68 787.42 602.59 787.42 589.01 788.14 589.79"/><polygon class="cls-56" points="793.27 589.01 793.27 596.66 792.53 596.27 792.53 589.79 793.27 589.01"/><polygon class="cls-61" points="787.42 602.59 793.27 596.66 792.53 596.27 788.14 600.68 787.42 602.59"/><polygon class="cls-43" points="847.54 596.48 834.47 596.48 827.11 588.98 856.12 588.98 847.54 596.48"/><polygon class="cls-43" points="903.91 596.48 889.36 596.48 880.8 588.98 912.01 588.98 903.91 596.48"/><polygon class="cls-43" points="958.72 596.48 947.01 596.48 938.45 588.98 958.72 588.98 958.72 596.48"/><polygon class="cls-60" points="853.57 589.79 829.07 589.79 827.11 588.98 856.12 588.98 853.57 589.79"/><polygon class="cls-60" points="909.51 589.79 883.18 589.79 880.8 588.98 912.01 588.98 909.51 589.79"/><polygon class="cls-60" points="957.83 589.79 940.8 589.79 938.45 588.98 958.72 588.98 957.83 589.79"/><polygon class="cls-56" points="827.11 588.98 834.47 596.48 835.06 595.7 829.07 589.79 827.11 588.98"/><polygon class="cls-56" points="856.12 588.98 847.54 596.48 846.91 595.71 853.57 589.79 856.12 588.98"/><polygon class="cls-61" points="834.47 596.48 847.54 596.48 846.91 595.71 835.06 595.71 834.47 596.48"/><polygon class="cls-56" points="880.8 588.98 889.36 596.48 889.86 595.7 883.18 589.79 880.8 588.98"/><polygon class="cls-56" points="912.01 588.98 903.91 596.48 903.18 595.71 909.51 589.79 912.01 588.98"/><polygon class="cls-61" points="889.36 596.48 903.91 596.48 903.18 595.71 889.86 595.7 889.36 596.48"/><polygon class="cls-61" points="947.01 596.48 958.72 596.48 957.83 595.71 947.7 595.7 947.01 596.48"/><polygon class="cls-56" points="957.83 595.71 957.83 589.79 958.72 588.98 958.72 596.48 957.83 595.71"/><polygon class="cls-56" points="947.7 595.7 940.8 589.79 938.45 588.98 947.01 596.48 947.7 595.7"/><rect class="cls-56" x="786.04" y="582.86" width="174.88" height="2.14"/><path class="cls-62" d="M994.28,510.11h-1.8a.71.71,0,0,1-.54-.25l-.73-.82a.57.57,0,0,0-.43-.19.55.55,0,0,0-.42.19l-.63.7a1.06,1.06,0,0,1-.8.37h-9.81a9.83,9.83,0,0,0-.53,2.51h9.26a.61.61,0,0,0,.43-.19l.86-.9a.58.58,0,0,1,.41-.17h0a.55.55,0,0,1,.42.19l.73.82a.73.73,0,0,0,.55.25h7.55a9.83,9.83,0,0,0-.53-2.51h-4Z"/><path class="cls-62" d="M984.19,517.89a.58.58,0,0,0,.43-.18l.86-.9a.6.6,0,0,1,.42-.18h0a.59.59,0,0,1,.43.19l.72.83a.76.76,0,0,0,.55.24h10.24a9.88,9.88,0,0,0,.83-2.53h-9.83a.71.71,0,0,1-.54-.25l-.73-.82a.57.57,0,0,0-.43-.19.55.55,0,0,0-.42.19l-.63.7a1.06,1.06,0,0,1-.8.37h-6.59a9.88,9.88,0,0,0,.83,2.53Z"/><path class="cls-62" d="M991.46,507.36a.6.6,0,0,0,.43-.18l.86-.9a.59.59,0,0,1,.41-.18h0a.53.53,0,0,1,.42.2l.73.82a.76.76,0,0,0,.55.24h1.94a10.16,10.16,0,0,0-16.25,0Z"/><path class="cls-62" d="M987.54,520.4h-2.66a.76.76,0,0,1-.55-.24l-.72-.82a.56.56,0,0,0-.86,0l-.62.7a1.07,1.07,0,0,1-.8.36h-.05a10.15,10.15,0,0,0,14.87,0Z"/><g class="cls-63"><path class="cls-64" d="M994,509.48h-1.79a.73.73,0,0,1-.55-.25l-.72-.82a.58.58,0,0,0-.86,0l-.62.71a1.09,1.09,0,0,1-.81.36h-9.8a9.93,9.93,0,0,0-.54,2.51h9.26a.59.59,0,0,0,.43-.19l.86-.9a.59.59,0,0,1,.42-.17h0a.59.59,0,0,1,.43.19l.72.82a.73.73,0,0,0,.55.25h7.56a10.28,10.28,0,0,0-.54-2.51Z"/><path class="cls-64" d="M983.94,517.26a.6.6,0,0,0,.44-.18l.86-.9a.58.58,0,0,1,.41-.18h0a.55.55,0,0,1,.42.2l.73.82a.75.75,0,0,0,.54.24h10.25a10.29,10.29,0,0,0,.83-2.53h-9.83a.73.73,0,0,1-.55-.25l-.72-.82a.58.58,0,0,0-.86,0l-.62.71a1.09,1.09,0,0,1-.81.36h-6.59a10.29,10.29,0,0,0,.83,2.53Z"/><path class="cls-64" d="M991.21,506.74a.59.59,0,0,0,.43-.19l.86-.9a.59.59,0,0,1,.42-.17h0a.59.59,0,0,1,.43.19l.72.82a.73.73,0,0,0,.55.25h2a10.17,10.17,0,0,0-16.26,0Z"/><path class="cls-64" d="M987.3,519.78h-2.67a.72.72,0,0,1-.54-.25l-.73-.82a.57.57,0,0,0-.85,0l-.62.7a1.1,1.1,0,0,1-.81.37h0a10.16,10.16,0,0,0,14.86,0Z"/></g></g></g></svg>