<svg id="road" xmlns="http://www.w3.org/2000/svg" viewBox="0 0 1919.86 821.2"><defs><style>.cls-1{fill:#eb9d14;}.cls-2{fill:#c27f10;}.cls-3{fill:#1e3307;}.cls-4{fill:#3e7a0f;}.cls-5{fill:#ccc;}.cls-6{fill:#ebebeb;}</style></defs><path class="cls-1" d="M485.7,613.09a17,17,0,1,0,17,17A17,17,0,0,0,485.7,613.09Zm0,31.21A14.25,14.25,0,1,1,500,630.05,14.26,14.26,0,0,1,485.7,644.3Z"/><path class="cls-2" d="M499.93,629.24c0,.27,0,.54,0,.81a14.26,14.26,0,0,1-28.51,0q0-.4,0-.81a17.09,17.09,0,0,1-2-4.21,17,17,0,1,0,32.41,0A16.71,16.71,0,0,1,499.93,629.24Z"/><path class="cls-3" d="M485.7,615.12a14.93,14.93,0,1,0,14.92,14.93A14.93,14.93,0,0,0,485.7,615.12Zm5.87,3.88h0l0-.06c.38-.37,1.85.48,3.28,1.91s2.29,2.91,1.91,3.28a.18.18,0,0,1-.07,0h0l-10.16,5,5-10.13Zm-5.87-2c2,0,3.67.43,3.67,1a.29.29,0,0,1,0,.09h0l-3.65,10.69-3.65-10.67a0,0,0,0,1,0,0h0a.15.15,0,0,1,0-.07C482,617.48,483.67,617.05,485.7,617.05Zm-9.2,3.8c1.43-1.43,2.9-2.28,3.28-1.91l0,.06h0l0,0,5,10.13-10.15-5h0a.18.18,0,0,1-.07,0C474.21,623.76,475.07,622.29,476.5,620.85Zm-2.84,12.87c-.54,0-1-1.64-1-3.67s.43-3.67,1-3.67h.1l10.68,3.65-10.7,3.66h-.08Zm6.17,7.37-.05.07c-.38.38-1.85-.48-3.28-1.91s-2.29-2.91-1.91-3.28l.06-.05h0l10.13-5-5,10.15Zm5.87,2c-2,0-3.67-.44-3.67-1a.15.15,0,0,1,0-.07h0a.06.06,0,0,1,0,0l3.65-10.67L489.35,642h0a.29.29,0,0,1,0,.09C489.37,642.62,487.72,643.06,485.7,643.06Zm9.19-3.81c-1.43,1.43-2.9,2.29-3.28,1.91l-.05-.07h0l-5-10.15,10.14,5h0l.05.05C497.18,636.34,496.33,637.81,494.89,639.25Zm2.84-5.53h-.08L487,630.05l10.68-3.65h.1c.54,0,1,1.64,1,3.67S498.27,633.72,497.73,633.72Z"/><path class="cls-4" d="M485.7,614.26a15.79,15.79,0,1,0,15.79,15.79A15.79,15.79,0,0,0,485.7,614.26Zm6.21,4.1h0l0-.06c.4-.4,2,.51,3.47,2s2.42,3.07,2,3.47l-.08.05h0l-10.73,5.27,5.25-10.72Zm-6.21-2.07c2.14,0,3.88.46,3.88,1,0,0,0,.06,0,.08h0l-3.87,11.32-3.86-11.29,0,0h0s0,0,0-.07C481.81,616.75,483.55,616.29,485.7,616.29Zm-9.73,4c1.51-1.51,3.07-2.42,3.47-2l0,.06h0l0,0,5.26,10.72L474,623.84h0a.18.18,0,0,1-.07-.05C473.55,623.39,474.45,621.84,476,620.32Zm-3,13.61c-.56,0-1-1.73-1-3.88s.46-3.88,1-3.88h.11l11.3,3.86-11.32,3.87H473Zm6.53,7.8a.18.18,0,0,1-.05.07c-.4.4-2-.5-3.47-2s-2.42-3.07-2-3.47c0,0,0,0,.06,0h0L484.76,631l-5.27,10.74Zm6.21,2.08c-2.15,0-3.89-.46-3.89-1,0,0,0,0,0-.07h0l0,0,3.86-11.3,3.87,11.32h0s0,0,0,.08C489.58,643.35,487.84,643.81,485.7,643.81Zm9.73-4c-1.52,1.52-3.07,2.42-3.47,2a.2.2,0,0,1-.06-.07h0L486.64,631l10.71,5.26h0l.06,0C497.85,636.71,496.94,638.26,495.43,639.78Zm3-5.85h-.09L487,630.05l11.29-3.86h.11c.57,0,1,1.74,1,3.88S499,633.93,498.43,633.93Z"/><circle class="cls-3" cx="485.7" cy="630.05" r="7.06"/><circle class="cls-4" cx="485.7" cy="630.05" r="6.17" transform="matrix(0.16, -0.99, 0.99, 0.16, -214.02, 1008.55)"/><circle class="cls-5" cx="485.7" cy="630.05" r="4.68"/><path class="cls-6" d="M485.7,629.08a4.7,4.7,0,0,1,4.3,2.83,4.79,4.79,0,0,0,.38-1.86,4.69,4.69,0,0,0-9.37,0,4.62,4.62,0,0,0,.39,1.86A4.69,4.69,0,0,1,485.7,629.08Z"/></svg>