<svg id="road" xmlns="http://www.w3.org/2000/svg" viewBox="0 0 1919.86 821.2"><defs><style>.cls-1{fill:#eb9d14;}.cls-2{fill:#c27f10;}.cls-3{fill:#1e3307;}.cls-4{fill:#3e7a0f;}.cls-5{fill:#ccc;}.cls-6{fill:#ebebeb;}</style></defs><path class="cls-1" d="M529.39,613.09a17,17,0,1,0,17,17A17,17,0,0,0,529.39,613.09Zm0,31.21a14.25,14.25,0,1,1,14.25-14.25A14.25,14.25,0,0,1,529.39,644.3Z"/><path class="cls-2" d="M543.62,629.24c0,.27,0,.54,0,.81a14.25,14.25,0,0,1-28.5,0c0-.27,0-.54,0-.81a17.09,17.09,0,0,1-2-4.21,17,17,0,1,0,32.42,0A17.09,17.09,0,0,1,543.62,629.24Z"/><path class="cls-3" d="M529.39,615.12a14.93,14.93,0,1,0,14.92,14.93A14.94,14.94,0,0,0,529.39,615.12Zm5.87,3.88h0l0-.06c.38-.37,1.85.48,3.28,1.91s2.29,2.91,1.92,3.28l-.07,0h0l-10.15,5,5-10.13Zm-5.87-2c2,0,3.67.43,3.67,1,0,0,0,.06,0,.09h0l-3.66,10.69-3.65-10.67a0,0,0,0,1,0,0h0a.15.15,0,0,1,0-.07C525.72,617.48,527.36,617.05,529.39,617.05Zm-9.2,3.8c1.44-1.43,2.9-2.28,3.28-1.91l0,.06h0v0l5,10.13-10.15-5h0a.18.18,0,0,1-.07,0C517.9,623.76,518.76,622.29,520.19,620.85Zm-2.84,12.87c-.53,0-1-1.64-1-3.67s.44-3.67,1-3.67h.11l10.67,3.65-10.69,3.66h-.09Zm6.17,7.37,0,.07c-.38.38-1.84-.48-3.28-1.91s-2.29-2.91-1.91-3.28l.06-.05h0l10.13-5-5,10.15Zm5.87,2c-2,0-3.67-.44-3.67-1a.15.15,0,0,1,0-.07h0a.06.06,0,0,1,0,0l3.65-10.67L533.05,642h0s0,.06,0,.09C533.06,642.62,531.42,643.06,529.39,643.06Zm9.19-3.81c-1.43,1.43-2.9,2.29-3.28,1.91a.25.25,0,0,1,0-.07h0l-5-10.15,10.13,5h0l.06.05C540.87,636.34,540,637.81,538.58,639.25Zm2.85-5.53h-.09l-10.7-3.66,10.68-3.65h.11c.53,0,1,1.64,1,3.67S542,633.72,541.43,633.72Z"/><path class="cls-4" d="M529.39,614.26a15.79,15.79,0,1,0,15.79,15.79A15.79,15.79,0,0,0,529.39,614.26Zm6.21,4.1h0l0-.06c.4-.4,2,.51,3.47,2s2.42,3.07,2,3.47l-.07.05h0l-10.74,5.27,5.26-10.72Zm-6.21-2.07c2.14,0,3.88.46,3.88,1a.19.19,0,0,1,0,.08h0l-3.87,11.32-3.86-11.29a.08.08,0,0,1,0,0h0a.17.17,0,0,1,0-.07C525.51,616.75,527.24,616.29,529.39,616.29Zm-9.73,4c1.52-1.51,3.07-2.42,3.47-2l0,.06h0v0l5.26,10.72-10.74-5.27h0a.18.18,0,0,1-.07-.05C517.24,623.39,518.14,621.84,519.66,620.32Zm-3,13.61c-.56,0-1-1.73-1-3.88s.46-3.88,1-3.88h.11l11.3,3.86-11.32,3.87h-.09Zm6.53,7.8a.18.18,0,0,1,0,.07c-.4.4-2-.5-3.47-2s-2.42-3.07-2-3.47l.06,0h0L528.45,631l-5.27,10.74Zm6.21,2.08c-2.15,0-3.88-.46-3.88-1a.17.17,0,0,1,0-.07h0a0,0,0,0,1,0,0l3.86-11.3,3.87,11.32h0a.22.22,0,0,1,0,.08C533.27,643.35,531.53,643.81,529.39,643.81Zm9.73-4c-1.52,1.52-3.07,2.42-3.47,2l-.06-.07h0L530.33,631l10.72,5.26h0l.06,0C541.54,636.71,540.63,638.26,539.12,639.78Zm3-5.85H542l-11.31-3.87L542,626.19h.11c.57,0,1,1.74,1,3.88S542.69,633.93,542.12,633.93Z"/><circle class="cls-3" cx="529.39" cy="630.05" r="7.06"/><circle class="cls-4" cx="529.39" cy="630.05" r="6.17" transform="translate(-177.32 1051.68) rotate(-80.78)"/><circle class="cls-5" cx="529.39" cy="630.05" r="4.68"/><path class="cls-6" d="M529.39,629.08a4.7,4.7,0,0,1,4.3,2.83,4.79,4.79,0,0,0,.38-1.86,4.68,4.68,0,0,0-9.36,0,4.62,4.62,0,0,0,.38,1.86A4.69,4.69,0,0,1,529.39,629.08Z"/></svg>