<svg id="Layer_1" data-name="Layer 1" xmlns="http://www.w3.org/2000/svg" viewBox="0 0 566.93 523.45"><defs><style>.cls-1{fill:#d0b66a;}</style></defs><rect class="cls-1" x="261.66" y="87.35" width="43.61" height="43.61"/><rect class="cls-1" x="305.27" y="43.74" width="43.61" height="43.61"/><rect class="cls-1" x="348.88" y="0.13" width="43.61" height="43.61"/><rect class="cls-1" x="392.49" y="0.13" width="43.61" height="43.61"/><rect class="cls-1" x="436.1" y="43.74" width="43.61" height="43.61"/><rect class="cls-1" x="479.71" y="87.35" width="43.61" height="43.61"/><rect class="cls-1" x="523.32" y="130.96" width="43.61" height="43.61"/><rect class="cls-1" x="523.32" y="174.57" width="43.61" height="43.61"/><rect class="cls-1" x="523.32" y="218.18" width="43.61" height="43.61"/><rect class="cls-1" x="479.71" y="261.79" width="43.61" height="43.61"/><rect class="cls-1" x="436.1" y="305.4" width="43.61" height="43.61"/><rect class="cls-1" x="392.49" y="349.01" width="43.61" height="43.61"/><rect class="cls-1" x="348.88" y="392.62" width="43.61" height="43.61"/><rect class="cls-1" x="305.27" y="436.23" width="43.61" height="43.61"/><rect class="cls-1" x="261.66" y="479.84" width="43.61" height="43.61"/><rect class="cls-1" x="261.66" y="87.35" width="43.61" height="43.61" transform="translate(566.93 218.31) rotate(-180)"/><rect class="cls-1" x="218.05" y="43.74" width="43.61" height="43.61" transform="translate(479.71 131.09) rotate(-180)"/><rect class="cls-1" x="174.44" y="0.13" width="43.61" height="43.61" transform="translate(392.49 43.87) rotate(-180)"/><rect class="cls-1" x="130.83" y="0.13" width="43.61" height="43.61" transform="translate(305.27 43.87) rotate(-180)"/><rect class="cls-1" x="87.22" y="43.74" width="43.61" height="43.61" transform="translate(218.05 131.09) rotate(-180)"/><rect class="cls-1" x="43.61" y="87.35" width="43.61" height="43.61" transform="translate(130.83 218.31) rotate(-180)"/><rect class="cls-1" y="130.96" width="43.61" height="43.61" transform="translate(43.61 305.53) rotate(-180)"/><rect class="cls-1" y="174.57" width="43.61" height="43.61" transform="translate(43.61 392.75) rotate(-180)"/><rect class="cls-1" y="218.18" width="43.61" height="43.61" transform="translate(43.61 479.97) rotate(-180)"/><rect class="cls-1" x="43.61" y="261.79" width="43.61" height="43.61" transform="translate(130.83 567.19) rotate(-180)"/><rect class="cls-1" x="87.22" y="305.4" width="43.61" height="43.61" transform="translate(218.05 654.41) rotate(-180)"/><rect class="cls-1" x="130.83" y="349.01" width="43.61" height="43.61" transform="translate(305.27 741.63) rotate(-180)"/><rect class="cls-1" x="174.44" y="392.62" width="43.61" height="43.61" transform="translate(392.49 828.85) rotate(-180)"/><rect class="cls-1" x="218.05" y="436.23" width="43.61" height="43.61" transform="translate(479.71 916.07) rotate(-180)"/><rect class="cls-1" x="261.66" y="479.84" width="43.61" height="43.61" transform="translate(566.93 1003.29) rotate(-180)"/></svg>