<svg id="Layer_1" data-name="Layer 1" xmlns="http://www.w3.org/2000/svg" viewBox="0 0 566.93 523.45"><defs><style>.cls-1{fill:#ed2024;}.cls-2{fill:#b61f24;}.cls-3{fill:#f5919a;}</style></defs><rect class="cls-1" x="348.88" y="43.74" width="43.61" height="43.61"/><rect class="cls-1" x="348.88" y="87.35" width="43.61" height="43.61"/><rect class="cls-1" x="348.88" y="130.96" width="43.61" height="43.61"/><rect class="cls-1" x="348.88" y="174.57" width="43.61" height="43.61"/><rect class="cls-1" x="348.88" y="218.18" width="43.61" height="43.61"/><rect class="cls-1" x="348.88" y="261.79" width="43.61" height="43.61"/><rect class="cls-2" x="348.88" y="305.4" width="43.61" height="43.61"/><rect class="cls-1" x="348.88" y="349.01" width="43.61" height="43.61"/><rect class="cls-1" x="392.49" y="43.74" width="43.61" height="43.61"/><rect class="cls-2" x="392.49" y="87.35" width="43.61" height="43.61"/><rect class="cls-1" x="392.49" y="130.96" width="43.61" height="43.61"/><rect class="cls-1" x="392.49" y="174.57" width="43.61" height="43.61"/><rect class="cls-1" x="392.49" y="218.18" width="43.61" height="43.61"/><rect class="cls-2" x="392.49" y="261.79" width="43.61" height="43.61"/><rect class="cls-1" x="392.49" y="305.4" width="43.61" height="43.61"/><rect class="cls-1" x="436.1" y="87.35" width="43.61" height="43.61"/><rect class="cls-2" x="436.1" y="130.96" width="43.61" height="43.61"/><rect class="cls-2" x="436.1" y="174.57" width="43.61" height="43.61"/><rect class="cls-2" x="436.1" y="218.18" width="43.61" height="43.61"/><rect class="cls-1" x="436.1" y="261.79" width="43.61" height="43.61"/><rect class="cls-1" x="479.71" y="130.96" width="43.61" height="43.61"/><rect class="cls-1" x="479.71" y="174.57" width="43.61" height="43.61"/><rect class="cls-1" x="479.71" y="218.18" width="43.61" height="43.61"/><rect class="cls-1" x="305.27" y="87.35" width="43.61" height="43.61"/><rect class="cls-1" x="261.66" y="130.96" width="43.61" height="43.61" transform="translate(566.93 305.53) rotate(-180)"/><rect class="cls-1" x="305.27" y="130.96" width="43.61" height="43.61"/><rect class="cls-1" x="261.66" y="174.57" width="43.61" height="43.61" transform="translate(566.93 392.75) rotate(-180)"/><rect class="cls-1" x="305.27" y="174.57" width="43.61" height="43.61"/><rect class="cls-1" x="261.66" y="218.18" width="43.61" height="43.61" transform="translate(566.93 479.97) rotate(-180)"/><rect class="cls-1" x="305.27" y="218.18" width="43.61" height="43.61"/><rect class="cls-1" x="261.66" y="261.79" width="43.61" height="43.61" transform="translate(566.93 567.19) rotate(-180)"/><rect class="cls-1" x="305.27" y="261.79" width="43.61" height="43.61"/><rect class="cls-1" x="261.66" y="305.4" width="43.61" height="43.61" transform="translate(566.93 654.41) rotate(-180)"/><rect class="cls-1" x="305.27" y="305.4" width="43.61" height="43.61"/><rect class="cls-1" x="261.66" y="349.01" width="43.61" height="43.61" transform="translate(566.93 741.63) rotate(-180)"/><rect class="cls-2" x="305.27" y="349.01" width="43.61" height="43.61"/><rect class="cls-1" x="261.66" y="392.62" width="43.61" height="43.61" transform="translate(566.93 828.85) rotate(-180)"/><rect class="cls-1" x="305.27" y="392.62" width="43.61" height="43.61"/><rect class="cls-1" x="261.66" y="436.23" width="43.61" height="43.61" transform="translate(566.93 916.07) rotate(-180)"/><rect class="cls-1" x="218.05" y="87.35" width="43.61" height="43.61" transform="translate(479.71 218.31) rotate(-180)"/><rect class="cls-1" x="218.05" y="130.96" width="43.61" height="43.61" transform="translate(479.71 305.53) rotate(-180)"/><rect class="cls-1" x="218.05" y="174.57" width="43.61" height="43.61" transform="translate(479.71 392.75) rotate(-180)"/><rect class="cls-1" x="218.05" y="218.18" width="43.61" height="43.61" transform="translate(479.71 479.97) rotate(-180)"/><rect class="cls-1" x="218.05" y="261.79" width="43.61" height="43.61" transform="translate(479.71 567.19) rotate(-180)"/><rect class="cls-1" x="218.05" y="305.4" width="43.61" height="43.61" transform="translate(479.71 654.41) rotate(-180)"/><rect class="cls-1" x="218.05" y="349.01" width="43.61" height="43.61" transform="translate(479.71 741.63) rotate(-180)"/><rect class="cls-1" x="218.05" y="392.62" width="43.61" height="43.61" transform="translate(479.71 828.85) rotate(-180)"/><rect class="cls-1" x="174.44" y="43.74" width="43.61" height="43.61" transform="translate(392.49 131.09) rotate(-180)"/><rect class="cls-1" x="174.44" y="87.35" width="43.61" height="43.61" transform="translate(392.49 218.31) rotate(-180)"/><rect class="cls-1" x="174.44" y="130.96" width="43.61" height="43.61" transform="translate(392.49 305.53) rotate(-180)"/><rect class="cls-1" x="174.44" y="174.57" width="43.61" height="43.61" transform="translate(392.49 392.75) rotate(-180)"/><rect class="cls-1" x="174.44" y="218.18" width="43.61" height="43.61" transform="translate(392.49 479.97) rotate(-180)"/><rect class="cls-1" x="174.44" y="261.79" width="43.61" height="43.61" transform="translate(392.49 567.19) rotate(-180)"/><rect class="cls-1" x="174.44" y="305.4" width="43.61" height="43.61" transform="translate(392.49 654.41) rotate(-180)"/><rect class="cls-1" x="174.44" y="349.01" width="43.61" height="43.61" transform="translate(392.49 741.63) rotate(-180)"/><rect class="cls-1" x="130.83" y="43.74" width="43.61" height="43.61" transform="translate(305.27 131.09) rotate(-180)"/><rect class="cls-1" x="130.83" y="87.35" width="43.61" height="43.61" transform="translate(305.27 218.31) rotate(-180)"/><rect class="cls-3" x="130.83" y="130.96" width="43.61" height="43.61" transform="translate(305.27 305.53) rotate(-180)"/><rect class="cls-1" x="130.83" y="174.57" width="43.61" height="43.61" transform="translate(305.27 392.75) rotate(-180)"/><rect class="cls-3" x="130.83" y="218.18" width="43.61" height="43.61" transform="translate(305.27 479.97) rotate(-180)"/><rect class="cls-1" x="130.83" y="261.79" width="43.61" height="43.61" transform="translate(305.27 567.19) rotate(-180)"/><rect class="cls-1" x="130.83" y="305.4" width="43.61" height="43.61" transform="translate(305.27 654.41) rotate(-180)"/><rect class="cls-1" x="87.22" y="87.35" width="43.61" height="43.61" transform="translate(218.05 218.31) rotate(-180)"/><rect class="cls-1" x="87.22" y="130.96" width="43.61" height="43.61" transform="translate(218.05 305.53) rotate(-180)"/><rect class="cls-3" x="87.22" y="174.57" width="43.61" height="43.61" transform="translate(218.05 392.75) rotate(-180)"/><rect class="cls-1" x="87.22" y="218.18" width="43.61" height="43.61" transform="translate(218.05 479.97) rotate(-180)"/><rect class="cls-1" x="87.22" y="261.79" width="43.61" height="43.61" transform="translate(218.05 567.19) rotate(-180)"/><rect class="cls-1" x="43.61" y="130.96" width="43.61" height="43.61" transform="translate(130.83 305.53) rotate(-180)"/><rect class="cls-1" x="43.61" y="174.57" width="43.61" height="43.61" transform="translate(130.83 392.75) rotate(-180)"/><rect class="cls-1" x="43.61" y="218.18" width="43.61" height="43.61" transform="translate(130.83 479.97) rotate(-180)"/></svg>